<svg xmlns="http://www.w3.org/2000/svg" viewBox="0 0 197.91 185"><defs><style>.cls-1{opacity:0.7;}.cls-2{fill:#00020e;}.cls-3{fill:#e247a3;}.cls-4{fill:#a7d0fc;}.cls-5{fill:#ffceb8;}.cls-6{fill:#f2b19e;}.cls-7{fill:#ffe0d2;}.cls-8{fill:#f9c0aa;}.cls-9{fill:#ffeee6;}.cls-10{fill:#ffdac7;}.cls-11{fill:#ff71b8;}.cls-12,.cls-35{fill:#fff;}.cls-13{fill:#deedff;}.cls-14{fill:#f25caf;}.cls-15{fill:#002551;}.cls-16{fill:#002e70;}.cls-17{fill:#cce1ff;}.cls-18{fill:#1273ff;}.cls-19{fill:#89c1f4;}.cls-20{fill:#318fff;}.cls-21{fill:#4fa6db;}.cls-22{fill:#70b5e8;}.cls-23{fill:#004ac3;}.cls-24{fill:#0041a0;}.cls-25{fill:#00377a;}.cls-26{fill:#ea821b;}.cls-27{fill:#ef8f26;}.cls-28{fill:#feb24e;}.cls-29{fill:#001232;}.cls-30{fill:#2789ff;}.cls-31{fill:#4da6ff;}.cls-32{fill:#0368e0;}.cls-33{fill:#5aadff;}.cls-34{fill:#c5dfff;}.cls-35{opacity:0.8;}.cls-36{fill:#92c6f4;}.cls-37{fill:#3b94ff;}.cls-38{fill:#ffc7d6;opacity:0.5;}</style></defs><g id="Layer_2" data-name="Layer 2"><g id="Layer_1-2" data-name="Layer 1"><g class="cls-1"><path class="cls-2" d="M77.83,166.49s4.74-3.43,10.25-6.61c7.77-4.49,17.38-7.83,22.16-10.59,2.09-1.21,9.35-8,9.35-8A93.81,93.81,0,0,1,100,133.1c-11.69-6.75-23.7-16-30.65-20C65.44,110.81,53,104.79,53,104.79s-8,5.66-10.5,7.09c-5.58,3.23-17.14,8.06-24.35,12.22A55.82,55.82,0,0,0,12,128.46s7.69,5.58,17,10.92C40.61,146.14,55,152,62,156,66,158.27,77.83,166.49,77.83,166.49Z"/></g><g class="cls-1"><path class="cls-2" d="M47.31,88.79c-8.71-6.59-25.18-8-36.8-3s-14,14.22-5.25,20.8,25.18,8,36.79,3,14-14.22,5.26-20.8Z"/></g><g class="cls-1"><polygon class="cls-2" points="132.72 66.67 120.92 73.52 181.11 108.05 192.91 101.19 132.72 66.67"/></g><g class="cls-1"><polygon class="cls-2" points="75.42 92.89 39.37 72.08 73.91 52.17 109.95 72.98 75.42 92.89"/></g><g class="cls-1"><path class="cls-2" d="M154.27,99.06c-12.5-9.45-36.15-11.4-52.82-4.36s-20,20.42-7.54,29.87,36.14,11.4,52.81,4.36,20.05-20.42,7.55-29.87Z"/></g><g class="cls-1"><path class="cls-2" d="M67.71,165.51l-21-12.12c-2,1.13-5.82,1.87-7.53.88l-1.43.82.26.15c.26.15.22.41-.07.57a1.07,1.07,0,0,1-1,0l-.26-.15-1.32.77.26.15c.25.14.22.4-.07.57a1.15,1.15,0,0,1-1,0l-.26-.15-1.32.76.26.15c.25.14.22.4-.07.57l-.06,0a11.85,11.85,0,0,1-4.45-1.29l-21,12.13c2,1.15,3,3.5,1.28,4.49l-.19.1,1.44.83.47-.28a1.12,1.12,0,0,1,1,0c.29.17.32.43.07.57l-.48.28,1.32.76.48-.28a1.13,1.13,0,0,1,1,0c.29.17.33.43.07.57l-.47.28,1.32.76.47-.27a1.09,1.09,0,0,1,1,0c.29.16.32.42.07.56l-.47.28,1.32.76.47-.27a1.09,1.09,0,0,1,1,0c.29.17.32.42.07.57l-.48.27,1.41.81.17-.11a7.5,7.5,0,0,1,6.73.28l14.38-8.3,7.62,4.4a7.45,7.45,0,0,1,6.72-.28l.17.11,1.41-.81-.48-.28c-.25-.14-.22-.4.08-.57a1.13,1.13,0,0,1,1,0l.48.28,1.32-.77-.48-.27c-.25-.14-.22-.4.07-.57a1.12,1.12,0,0,1,1,0l.47.28,1.32-.77-.47-.27c-.25-.15-.22-.4.07-.57a1.07,1.07,0,0,1,1,0l.48.27,1.32-.76-.48-.27c-.25-.15-.22-.4.07-.57a1.09,1.09,0,0,1,1,0l.47.27,1.44-.83-.19-.1C64.7,169,65.74,166.66,67.71,165.51Z"/></g><g class="cls-1"><polygon class="cls-2" points="194.18 158.46 192.29 157.37 150.64 181.54 115.3 161.1 157.05 136.87 155.17 135.79 113.42 160.01 111.58 158.95 109.16 160.36 151.78 185 154.2 183.59 152.52 182.63 194.18 158.46"/></g><polygon class="cls-3" points="75.73 51.46 111.44 30.84 75.73 10.33 40.02 30.95 75.73 51.46"/><path class="cls-3" d="M69,11c-1,2.5-.52,5.1,1.18,5.81s3.92-.75,5-3.25a5.88,5.88,0,0,0,.56-3.19A3.33,3.33,0,0,0,74,7.71C72.3,7,70.08,8.45,69,11Z"/><path class="cls-4" d="M62,15c-1.05,2.51-.52,5.11,1.18,5.82s3.91-.75,5-3.25.51-5.11-1.18-5.82S63,12.54,62,15Z"/><path class="cls-3" d="M54.81,19.37c-1.05,2.5-.52,5.1,1.18,5.81s3.91-.75,5-3.25a6.77,6.77,0,0,0,.56-3.38,3,3,0,0,0-1.74-2.44C58.07,15.41,55.85,16.86,54.81,19.37Z"/><path class="cls-4" d="M47.73,23.45c-1,2.51-.51,5.11,1.18,5.82s3.92-.75,5-3.26.52-5.1-1.17-5.81S48.78,21,47.73,23.45Z"/><path class="cls-3" d="M40.58,27.54c-1,2.5-.51,5.11,1.18,5.81s3.92-.75,5-3.25a6.53,6.53,0,0,0,.54-3.33,3,3,0,0,0-1.72-2.48C43.85,23.58,41.63,25,40.58,27.54Z"/><path class="cls-4" d="M82.44,11.08c1,2.5.51,5.1-1.18,5.81s-3.92-.75-5-3.25a6.31,6.31,0,0,1-.56-3.31,3.2,3.2,0,0,1,1.74-2.51C79.17,7.12,81.39,8.57,82.44,11.08Z"/><path class="cls-3" d="M89.51,15.16c1,2.51.51,5.11-1.18,5.82s-3.92-.75-5-3.26-.52-5.1,1.18-5.81S88.46,12.66,89.51,15.16Z"/><path class="cls-4" d="M96.66,19.49c1,2.5.52,5.1-1.18,5.81s-3.92-.75-5-3.25A7.1,7.1,0,0,1,90,18.52a2.66,2.66,0,0,1,1.71-2.29C93.39,15.53,95.61,17,96.66,19.49Z"/><path class="cls-3" d="M103.73,23.57c1,2.51.52,5.11-1.18,5.82s-3.91-.75-5-3.26-.51-5.1,1.18-5.81S102.69,21.07,103.73,23.57Z"/><path class="cls-4" d="M110.88,27.66c1.05,2.5.52,5.11-1.18,5.81s-3.91-.75-5-3.25a6.57,6.57,0,0,1-.5-3.51,2.89,2.89,0,0,1,1.68-2.3C107.62,23.7,109.84,25.16,110.88,27.66Z"/><polygon class="cls-4" points="111.23 32.25 104.17 27.13 99.08 69.21 105.13 72.95 111.23 32.25"/><polygon class="cls-4" points="97.11 22.8 93.18 66.28 87.34 62.47 89.98 18.52 97.11 22.8"/><polygon class="cls-4" points="82.85 14.74 81.57 58.73 75.61 56.06 75.68 11.33 82.85 14.74"/><polygon class="cls-4" points="68.63 14.92 69.96 59.51 63.99 62.73 61.51 18.55 68.63 14.92"/><polygon class="cls-4" points="54.34 22.8 58.12 66.16 52.26 69.47 47.26 26.77 54.34 22.8"/><path class="cls-5" d="M105.35,31.37a3.56,3.56,0,0,0-4-2.56c-1.52.23-3.5-.72-5.32-1.9.7-3-1.92-5.13-4.65-3.42-1.38-.9-3.62-7.68-7.29-4.7-.71-1.57-4.71-4.36-4.71-4.36S80,12,78.15,10.89a1.77,1.77,0,0,0-2.34.44c-1.82-1.07-3.29.34-2.82,2.25.57,2.29-6.13.85-6.13.85s-1.2-2.4-2.48.5a1.47,1.47,0,0,0-1.69,2.14c-2.66-.82-3.39,1.08-2.9,2.8-3.54-.35-4.44,3.53-4.44,3.53L53,27.55s-1.69-1-4.54.6a4.72,4.72,0,0,0-2.23,4.63s3.53,11.41,14.53,16.46S90.27,55.72,96,52.38s9.91-18.52,9.91-18.52Z"/><path class="cls-6" d="M77.27,27.33a5.7,5.7,0,0,0-1.66-3.71,2.19,2.19,0,0,1,2.21-.73,2.41,2.41,0,0,1,1.75,2.31,2.16,2.16,0,0,1,1.76-.06,2.24,2.24,0,0,1,1.36,1.73c1.41-.59,2.4.94,2.88,2.2,1.55-1.26,4.77-.84,5.23,1.23a1.79,1.79,0,0,0-1.3-.17,2.45,2.45,0,0,0-1.68,1.34v0A3.2,3.2,0,0,0,83.28,31c-.57-1.06-2.93-1.83-3.68-1.83a8.08,8.08,0,0,0-2.38.49A10.21,10.21,0,0,0,77.27,27.33Z"/><path class="cls-6" d="M70.48,20a5.68,5.68,0,0,1,1.66-3.71,2.21,2.21,0,0,0-2.22-.73,2.4,2.4,0,0,0-1.74,2.31,2.12,2.12,0,0,0-1.76-.06,2.23,2.23,0,0,0-1.36,1.73c-1.42-.59-2.4.94-2.88,2.2C60.63,20.49,57.41,20.91,57,23a1.84,1.84,0,0,1,1.3-.18,2.49,2.49,0,0,1,1.68,1.35v0a3.2,3.2,0,0,1,4.53-.51c.57-1.06,2.93-1.83,3.68-1.83a8.14,8.14,0,0,1,2.38.49A10.22,10.22,0,0,1,70.48,20Z"/><path class="cls-7" d="M56.4,27.17c.06,1.59-1.92,1.94-3.12,1.58a3.14,3.14,0,0,1-1.68-1.22A2.18,2.18,0,0,1,52,25.85c-1.24-.71-2.24-1.86-1.3-3.36a2.39,2.39,0,0,1,3.19-.66,2.09,2.09,0,0,1,2.72-1.27,2,2,0,0,1,1.24,1.5,2.48,2.48,0,0,1-.08,1.07c1.83-.56,3.3,1.84,3.35,3.66A4.23,4.23,0,0,1,56.4,27.17Z"/><path class="cls-8" d="M57,29a1.81,1.81,0,0,1-1.17,1.21,3.7,3.7,0,0,1-3.13-.71,2.94,2.94,0,0,1-1-1.94,3.14,3.14,0,0,0,1.68,1.22c1.2.36,3.18,0,3.12-1.58a4.23,4.23,0,0,0,4.69-.38,2.86,2.86,0,0,1,0,.66A2.59,2.59,0,0,1,57,29Z"/><path class="cls-8" d="M56.1,23.7a1.49,1.49,0,0,1,.32,1.06,1.21,1.21,0,0,1,.63.25c.46.46,0,1-.51,1.13a1.5,1.5,0,0,1-1.49-.79C54.34,24,55.68,23.25,56.1,23.7Z"/><path class="cls-7" d="M98.24,31.25c.06,1.59-1.92,1.94-3.12,1.58a3.14,3.14,0,0,1-1.68-1.22,2.18,2.18,0,0,1,.37-1.68c-1.24-.71-2.24-1.86-1.3-3.36a2.39,2.39,0,0,1,3.19-.66,2.09,2.09,0,0,1,2.72-1.27,2,2,0,0,1,1.24,1.5,2.48,2.48,0,0,1-.08,1.07c1.83-.56,3.3,1.84,3.35,3.66A4.21,4.21,0,0,1,98.24,31.25Z"/><path class="cls-8" d="M98.79,33.05a1.81,1.81,0,0,1-1.17,1.21,3.7,3.7,0,0,1-3.13-.71,2.94,2.94,0,0,1-1-1.94,3.14,3.14,0,0,0,1.68,1.22c1.2.36,3.18,0,3.12-1.58a4.21,4.21,0,0,0,4.69-.38,2.86,2.86,0,0,1,0,.66A2.58,2.58,0,0,1,98.79,33.05Z"/><path class="cls-8" d="M97.94,27.78a1.49,1.49,0,0,1,.32,1.06,1.21,1.21,0,0,1,.63.25c.46.46,0,1.05-.51,1.13a1.5,1.5,0,0,1-1.49-.79C96.17,28.09,97.52,27.33,97.94,27.78Z"/><path class="cls-7" d="M79.55,37.06c-.06,1.6,1.93,1.95,3.12,1.59a3.14,3.14,0,0,0,1.68-1.22A2.22,2.22,0,0,0,84,35.74c1.24-.7,2.24-1.85,1.3-3.35a2.39,2.39,0,0,0-3.19-.66,2.09,2.09,0,0,0-2.72-1.27A2,2,0,0,0,78.13,32,2.48,2.48,0,0,0,78.21,33c-1.83-.56-3.3,1.84-3.35,3.66A4.22,4.22,0,0,0,79.55,37.06Z"/><path class="cls-8" d="M79,38.87a1.78,1.78,0,0,0,1.16,1.21,3.7,3.7,0,0,0,3.13-.71,2.9,2.9,0,0,0,1-1.94,3.14,3.14,0,0,1-1.68,1.22c-1.19.36-3.18,0-3.12-1.59a4.22,4.22,0,0,1-4.69-.37,2.74,2.74,0,0,0,0,.65A2.6,2.6,0,0,0,79,38.87Z"/><path class="cls-8" d="M79.85,33.6a1.49,1.49,0,0,0-.32,1.06,1.14,1.14,0,0,0-.62.25c-.47.46,0,1.05.5,1.13a1.5,1.5,0,0,0,1.49-.79C81.62,33.91,80.27,33.15,79.85,33.6Z"/><path class="cls-7" d="M84.06,28.79c-2.39,2-3.51,0-3.7-.95a2.31,2.31,0,0,1,1-2.63,2.38,2.38,0,0,1-.46-1.78s0-.1.08-.14a1.85,1.85,0,0,1,2.54-.46c-.58-1.5,1.3-2.82,2.68-2.51a2.31,2.31,0,0,1,1.73,3A2.43,2.43,0,0,1,91.27,25a2.24,2.24,0,0,1-1.87,2.65A1.62,1.62,0,0,1,89.14,29C87.48,29.82,85.94,29.46,84.06,28.79Z"/><path class="cls-8" d="M86.77,30a4.93,4.93,0,0,1-1-.27,2.72,2.72,0,0,1-2,2.39c-1.48.36-3-.86-3.71-2A4,4,0,0,1,79.73,26a2.83,2.83,0,0,1,1-1,2.08,2.08,0,0,1,.15-1.51,2.38,2.38,0,0,0,.46,1.78,2.31,2.31,0,0,0-1,2.63c.19.92,1.31,3,3.7.95,1.88.67,3.42,1,5.08.18a.75.75,0,0,1-.07.12A2.49,2.49,0,0,1,86.77,30Z"/><path class="cls-8" d="M84.12,25.31c.95-1.2,1.83-.19,1.86.1a1.25,1.25,0,0,1-.42.87,1.17,1.17,0,0,1-.85.42A.86.86,0,0,1,84.12,25.31Z"/><path class="cls-9" d="M87.29,22.19a.9.9,0,0,1-.24.8.4.4,0,0,1-.58-.06.63.63,0,0,1-.08-.38,1,1,0,0,0-.24-.64c-.16-.16-.38-.78-.16-.95C86.49,20.56,87.22,21.55,87.29,22.19Z"/><path class="cls-9" d="M88.75,23.81a1.87,1.87,0,0,1,1.62.7c.29.5,0,1.65-.76,1.32a.73.73,0,0,1-.33-.34,1.76,1.76,0,0,0-.29-.44c-.24-.22-.39-.09-.67-.09a.63.63,0,0,1-.68-.51C87.58,23.85,88.19,23.82,88.75,23.81Z"/><path class="cls-10" d="M67,30.24c2.4,2,3.52,0,3.7-.95a2.3,2.3,0,0,0-1-2.63,2.38,2.38,0,0,0,.45-1.78,1,1,0,0,0-.07-.15,1.86,1.86,0,0,0-2.54-.46c.58-1.5-1.3-2.82-2.68-2.5a2.3,2.3,0,0,0-1.73,2.95,2.43,2.43,0,0,0-3.33,1.7,2.24,2.24,0,0,0,1.86,2.65,1.68,1.68,0,0,0,.26,1.35C63.55,31.26,65.09,30.9,67,30.24Z"/><path class="cls-8" d="M64.26,31.4a4.59,4.59,0,0,0,1-.28,2.73,2.73,0,0,0,2,2.4c1.48.36,3-.87,3.71-2a4.05,4.05,0,0,0,.33-4.07,2.68,2.68,0,0,0-1-1,2,2,0,0,0-.16-1.51,2.38,2.38,0,0,1-.45,1.78,2.3,2.3,0,0,1,1,2.63c-.18.92-1.3,3-3.7.95-1.87.66-3.41,1-5.08.18l.08.12A2.53,2.53,0,0,0,64.26,31.4Z"/><path class="cls-8" d="M66.91,26.75c-1-1.2-1.83-.19-1.87.1a1.22,1.22,0,0,0,.43.87,1.09,1.09,0,0,0,.85.42A.86.86,0,0,0,66.91,26.75Z"/><path class="cls-9" d="M63.73,23.64a.94.94,0,0,0,.24.79.4.4,0,0,0,.58-.05.66.66,0,0,0,.09-.39.92.92,0,0,1,.24-.63c.15-.16.37-.79.16-1C64.53,22,63.8,23,63.73,23.64Z"/><path class="cls-9" d="M62.27,25.25a1.9,1.9,0,0,0-1.61.7c-.29.51,0,1.66.76,1.33a.83.83,0,0,0,.33-.34,1.44,1.44,0,0,1,.29-.45c.24-.22.39-.09.66-.08a.62.62,0,0,0,.68-.51C63.45,25.3,62.83,25.27,62.27,25.25Z"/><path class="cls-10" d="M71.63,15.62c2.4,2,3.52,0,3.7-.95a2.29,2.29,0,0,0-1-2.63,2.38,2.38,0,0,0,.45-1.78,1,1,0,0,0-.07-.15,1.86,1.86,0,0,0-2.54-.46c.58-1.5-1.3-2.82-2.68-2.5a2.3,2.3,0,0,0-1.73,2.95,2.43,2.43,0,0,0-3.33,1.7,2.24,2.24,0,0,0,1.87,2.65,1.61,1.61,0,0,0,.26,1.35C68.22,16.64,69.76,16.28,71.63,15.62Z"/><path class="cls-8" d="M68.93,16.78a4.59,4.59,0,0,0,1-.28,2.73,2.73,0,0,0,2,2.4c1.48.36,3-.87,3.71-2A4,4,0,0,0,76,12.8a2.68,2.68,0,0,0-1-1,2,2,0,0,0-.16-1.51A2.38,2.38,0,0,1,74.33,12a2.29,2.29,0,0,1,1,2.63c-.18.92-1.3,3-3.7.95-1.87.66-3.41,1-5.07.18a.75.75,0,0,0,.07.12A2.53,2.53,0,0,0,68.93,16.78Z"/><path class="cls-8" d="M71.58,12.13c-1-1.2-1.83-.19-1.87.1a1.26,1.26,0,0,0,.43.87,1.1,1.1,0,0,0,.85.42A.86.86,0,0,0,71.58,12.13Z"/><path class="cls-9" d="M68.41,9a.88.88,0,0,0,.24.79.39.39,0,0,0,.57-.05.66.66,0,0,0,.09-.39,1,1,0,0,1,.24-.63c.16-.16.38-.79.16-1C69.21,7.38,68.48,8.38,68.41,9Z"/><path class="cls-9" d="M66.94,10.63a1.91,1.91,0,0,0-1.61.7c-.29.51,0,1.66.76,1.33a.83.83,0,0,0,.33-.34,1.44,1.44,0,0,1,.29-.45c.24-.22.39-.09.67-.08a.63.63,0,0,0,.68-.51C68.12,10.68,67.5,10.65,66.94,10.63Z"/><path class="cls-10" d="M82.12,18.43c-.71,1.42-2.47,2.61-3.9,1.39s-1.39-2.75.35-4.64A2.39,2.39,0,0,1,78,13a2.91,2.91,0,0,1,.94-.66,2.62,2.62,0,0,1,3.34,1.25,2.2,2.2,0,0,1,1.17-.36,1.89,1.89,0,0,1,1.73,1.14,1.59,1.59,0,0,1-.37,1.84,2.59,2.59,0,0,1-.39.25,2.91,2.91,0,0,1,.92,1.77v.07A2.91,2.91,0,0,1,82.12,18.43Z"/><path class="cls-8" d="M82.42,20A2.43,2.43,0,0,1,80.12,22a4.11,4.11,0,0,1-3.63-2.39,3.35,3.35,0,0,1,.28-3.69,3.17,3.17,0,0,1,.77-.65,1.54,1.54,0,0,1-.2-.86A2.3,2.3,0,0,1,78,13a2.39,2.39,0,0,0,.6,2.15c-1.74,1.89-1.74,3.46-.35,4.64s3.19,0,3.9-1.39a2.91,2.91,0,0,0,3.19-.1A2.12,2.12,0,0,1,82.42,20Z"/><path class="cls-8" d="M80.51,15A.74.74,0,0,1,81,15a1.54,1.54,0,0,1,1.61.74c.48.75-.21,1.32-1,1.32S80,16.59,80,15.78A.81.81,0,0,1,80.51,15Z"/><path class="cls-9" d="M79,12.84a2.2,2.2,0,0,1,1.94,0c.23.16.47.42.39.72s-.54.48-.81.61a1.4,1.4,0,0,1-1.83-.52A.58.58,0,0,1,79,12.84Z"/><path class="cls-9" d="M82.66,14.14c.5-.59,1.69,0,1.8.26a.6.6,0,0,1-.13.64c-.23.2-.47.05-.69,0s-.61,0-.86-.25A.45.45,0,0,1,82.66,14.14Z"/><path class="cls-7" d="M70.71,23.34c.71,1.42,2.47,2.6,3.9,1.39S76,22,74.26,20.09a2.38,2.38,0,0,0,.59-2.15,2.77,2.77,0,0,0-.93-.66,2.59,2.59,0,0,0-2.57.32,2.44,2.44,0,0,0-.77.93,2.3,2.3,0,0,0-1.17-.37,1.92,1.92,0,0,0-1.73,1.15,1.57,1.57,0,0,0,.37,1.83,1.77,1.77,0,0,0,.39.26,3,3,0,0,0-.93,1.77s0,0,0,.07A3,3,0,0,0,70.71,23.34Z"/><path class="cls-8" d="M70.41,24.94a2.42,2.42,0,0,0,2.3,1.93,4.08,4.08,0,0,0,3.63-2.38,3.35,3.35,0,0,0-.28-3.69,3.17,3.17,0,0,0-.77-.65,1.56,1.56,0,0,0,.2-.86,2.25,2.25,0,0,0-.64-1.35,2.38,2.38,0,0,1-.59,2.15C76,22,76,23.54,74.61,24.73s-3.19,0-3.9-1.39a3,3,0,0,1-3.19-.1A2.12,2.12,0,0,0,70.41,24.94Z"/><path class="cls-8" d="M72.32,19.88a.69.69,0,0,0-.53,0,1.55,1.55,0,0,0-1.61.73c-.48.76.21,1.33.95,1.33s1.67-.47,1.69-1.29A.8.8,0,0,0,72.32,19.88Z"/><path class="cls-9" d="M73.79,17.75a2.2,2.2,0,0,0-1.94,0,.71.71,0,0,0-.39.72c.08.32.54.48.81.6a1.4,1.4,0,0,0,1.83-.51A.58.58,0,0,0,73.79,17.75Z"/><path class="cls-9" d="M70.17,19.05c-.5-.6-1.69,0-1.8.26a.61.61,0,0,0,.13.64c.23.19.46.05.69-.05s.61,0,.85-.25A.44.44,0,0,0,70.17,19.05Z"/><path class="cls-7" d="M59.54,34.32c-.71,1.42-2.47,2.61-3.9,1.39S54.25,33,56,31.07a2.36,2.36,0,0,1-.59-2.15,2.77,2.77,0,0,1,.93-.66,2.59,2.59,0,0,1,2.57.32,2.47,2.47,0,0,1,.77.94,2.13,2.13,0,0,1,1.17-.37,1.89,1.89,0,0,1,1.73,1.14,1.57,1.57,0,0,1-.37,1.84,1.73,1.73,0,0,1-.39.25,3,3,0,0,1,.93,1.77s0,.05,0,.07A2.91,2.91,0,0,1,59.54,34.32Z"/><path class="cls-8" d="M59.84,35.92a2.42,2.42,0,0,1-2.3,1.94,4.09,4.09,0,0,1-3.63-2.39,3.35,3.35,0,0,1,.28-3.69,3,3,0,0,1,.78-.65,1.39,1.39,0,0,1-.2-.86,2.18,2.18,0,0,1,.63-1.35A2.36,2.36,0,0,0,56,31.07c-1.74,1.89-1.74,3.46-.35,4.64s3.19,0,3.9-1.39a2.91,2.91,0,0,0,3.19-.1A2.12,2.12,0,0,1,59.84,35.92Z"/><path class="cls-8" d="M57.93,30.87a.65.65,0,0,1,.53,0,1.52,1.52,0,0,1,1.61.73c.48.75-.21,1.32-1,1.32s-1.67-.47-1.69-1.28A.8.8,0,0,1,57.93,30.87Z"/><path class="cls-9" d="M56.46,28.73a2.2,2.2,0,0,1,1.94,0,.7.7,0,0,1,.39.71c-.08.33-.54.48-.81.61a1.4,1.4,0,0,1-1.83-.52A.58.58,0,0,1,56.46,28.73Z"/><path class="cls-9" d="M60.08,30c.5-.59,1.69,0,1.8.26a.62.62,0,0,1-.13.65c-.23.19-.46,0-.69-.06s-.61,0-.85-.25A.45.45,0,0,1,60.08,30Z"/><path class="cls-6" d="M54.59,35.17a3,3,0,0,1,3,.12,3.2,3.2,0,0,1,4.56,1.2.75.75,0,0,1,.07-.12A1.09,1.09,0,0,1,63.47,36,2.55,2.55,0,0,1,65,37.17c2-2.16,5.85-1.83,7.75.3a4.26,4.26,0,0,0-1.66.76A3.74,3.74,0,0,0,69.85,41a4.39,4.39,0,0,0-3.77-.37,2.42,2.42,0,0,0-1.69,1.68A3.7,3.7,0,0,0,61.63,42a4,4,0,0,0-1.41.73c-1.17-2.08-3.68-4.28-6.15-3.36a.39.39,0,0,1-.42-.17A3,3,0,0,1,54.59,35.17Z"/><path class="cls-6" d="M77.55,40a3.14,3.14,0,0,1,1.07.16,3.43,3.43,0,0,1,.24-1.07,2.42,2.42,0,0,1,1.88-1.37,2.17,2.17,0,0,1,2.42,1.64,4.14,4.14,0,0,1,1.59-.81A2.51,2.51,0,0,1,87,39.1a1.42,1.42,0,0,1,.65-1.35,1.77,1.77,0,0,1,1.57.13,2.09,2.09,0,0,1,2.18-1.11,3.59,3.59,0,0,1,1.74,1,2.5,2.5,0,0,0-.38.15A3.57,3.57,0,0,0,91,40.73a9.67,9.67,0,0,0,.23,4.13,5.12,5.12,0,0,0-1.28-.4,5.69,5.69,0,0,0-4.35,1.33,6.36,6.36,0,0,0-3-3.17,5.1,5.1,0,0,0-4,.54,4,4,0,0,0-.57-.94,3.71,3.71,0,0,0-2.08-1.17A2.27,2.27,0,0,1,77.55,40Z"/><path class="cls-10" d="M66.25,35.38a1.73,1.73,0,0,1,2.39-.61,1.43,1.43,0,0,1,.52-1.33A2.35,2.35,0,0,1,71.59,33a1.7,1.7,0,0,1,1,1.92,3.06,3.06,0,0,1-.68,1.29,4.16,4.16,0,0,1,.73.24,1.91,1.91,0,0,1,1.23,1.67,2.09,2.09,0,0,1-2,1.89,1.44,1.44,0,0,1-.55,1.29A1.88,1.88,0,0,1,68.88,41c-.94-.76-1.65-2.13-1.13-3.16C66.75,37.73,65.61,36.46,66.25,35.38Z"/><path class="cls-8" d="M69,36.23c.49-.73,1.76.22,1.92.45a.94.94,0,0,1,.15,1A1,1,0,0,1,70,38C69.19,37.86,68.44,37,69,36.23Z"/><path class="cls-9" d="M71.6,33.89a.68.68,0,0,1,.21.75c-.15.29-.56.37-.85.43-.55.13-1.58.1-1.48-.69C69.6,33.39,71.32,33.59,71.6,33.89Z"/><path class="cls-10" d="M94.19,34.63A1.73,1.73,0,0,0,91.8,34a1.44,1.44,0,0,0-.52-1.33,2.35,2.35,0,0,0-2.44-.44,1.71,1.71,0,0,0-1,1.92,3.24,3.24,0,0,0,.67,1.3,4,4,0,0,0-.72.24,1.88,1.88,0,0,0-1.23,1.67,2.08,2.08,0,0,0,2,1.88,1.44,1.44,0,0,0,.56,1.29,1.87,1.87,0,0,0,2.38-.31c.94-.76,1.65-2.12,1.13-3.16C93.69,37,94.82,35.71,94.19,34.63Z"/><path class="cls-8" d="M91.46,35.48c-.5-.73-1.76.21-1.93.44a.94.94,0,0,0-.14,1c.21.38.69.38,1.07.32C91.25,37.1,92,36.27,91.46,35.48Z"/><path class="cls-9" d="M88.84,33.13a.68.68,0,0,0-.21.76c.15.29.56.37.84.43.56.12,1.58.09,1.49-.7C90.83,32.64,89.12,32.84,88.84,33.13Z"/><path class="cls-6" d="M66.49,43.48s0,0,0-.06l-.13,0s0,0,0,0c.55-1.14,2.48-1.38,3.58-1.12a5.82,5.82,0,0,1,2.78,2.32c4.59-1,5.09,4.22,5.09,5.5,0,1-1.07,1.83-1.89,2.3-2.38,1.36-5.9-.64-7.77-2.12C65.8,48.4,65.33,46.2,66.49,43.48Z"/><path class="cls-11" d="M75.73,51.46a9.74,9.74,0,0,1,.57-3.28c1-2.51,3.26-4,5-3.26a3,3,0,0,1,1.64,2.4L90,43.21a6.46,6.46,0,0,1,.5-3.21c1-2.5,3.26-4,5-3.25A2.66,2.66,0,0,1,97.19,39v0L104.28,35a6.28,6.28,0,0,1,.46-3.39c1.05-2.5,3.27-4,5-3.25a2.71,2.71,0,0,1,1.74,2.5L105.13,73l-29.4,17Z"/><path class="cls-12" d="M97.19,39a8.17,8.17,0,0,1,.48-3.35c1-2.5,3.27-4,5-3.25A3,3,0,0,1,104.3,35L99.51,76.2l-5.92,3.42Z"/><path class="cls-12" d="M82.9,47.32a7.6,7.6,0,0,1,.55-3.23c1-2.5,3.26-4,5-3.25A2.29,2.29,0,0,1,90,43L87.55,83.1l-6,3.47Z"/><path class="cls-13" d="M75.73,51.46a10,10,0,0,0-.56-3.28c-1-2.51-3.26-4-5-3.26a3,3,0,0,0-1.64,2.4l-7.13-4.11A6.45,6.45,0,0,0,61,40c-1.05-2.5-3.27-4-5-3.25A2.65,2.65,0,0,0,54.27,39v0L47.19,35a6.39,6.39,0,0,0-.47-3.39c-1-2.5-3.26-4-5-3.25A2.74,2.74,0,0,0,40,30.84L46.34,73l29.39,17Z"/><path class="cls-14" d="M54.27,39a8.16,8.16,0,0,0-.47-3.35c-1-2.5-3.27-4-5-3.25A3,3,0,0,0,47.17,35L52,76.2l5.92,3.42Z"/><path class="cls-14" d="M68.57,47.32A7.6,7.6,0,0,0,68,44.09c-1-2.5-3.27-4-5-3.25A2.29,2.29,0,0,0,61.47,43L63.91,83.1l6,3.47Z"/><path class="cls-3" d="M69,82.06c.33-.18.72-.24,1.06-.42s.6-.47.93-.65c.08,0,.17,0,.14.11a2.27,2.27,0,0,1-2,1.33C69,82.41,68.84,82.16,69,82.06Z"/><path class="cls-3" d="M66.93,77.69a7.68,7.68,0,0,1,.85,1.12A3.6,3.6,0,0,1,68.46,80a.13.13,0,0,1-.21.12A3.42,3.42,0,0,1,67.43,79a8.62,8.62,0,0,1-.65-1.24A.09.09,0,0,1,66.93,77.69Z"/><path class="cls-3" d="M50.84,72.54a3.5,3.5,0,0,0,1.22.36,4.21,4.21,0,0,0,1.16-.24c.07,0,.13.06.1.12a1.63,1.63,0,0,1-2.65-.07C50.61,72.59,50.73,72.5,50.84,72.54Z"/><path class="cls-3" d="M48,67.75a13.37,13.37,0,0,0,.78,1.18c.26.32.69.56.87.92a.23.23,0,0,1-.25.33c-.46-.1-.81-.63-1.06-1a2.8,2.8,0,0,1-.51-1.38C47.81,67.7,47.94,67.68,48,67.75Z"/><path class="cls-3" d="M52.58,69.15a8.73,8.73,0,0,0,.68,1.37,8.25,8.25,0,0,1,.68,1.09.17.17,0,0,1-.26.19,3.64,3.64,0,0,1-1.28-2.63C52.39,69.06,52.55,69.06,52.58,69.15Z"/><path class="cls-3" d="M45.36,49.31A10.21,10.21,0,0,0,46,50.68a6.12,6.12,0,0,1,.68,1.08c.06.15-.13.27-.25.2a3.59,3.59,0,0,1-1.28-2.63C45.16,49.22,45.32,49.22,45.36,49.31Z"/><path class="cls-3" d="M60.12,78c.37.22.67.55,1,.8a12.93,12.93,0,0,0,1.15.64.18.18,0,0,1,0,.29l0,0a.2.2,0,0,1-.22.1,3.37,3.37,0,0,1-2.27-1.56C59.8,78.06,60,77.87,60.12,78Z"/><path class="cls-3" d="M59.22,75.46a3.79,3.79,0,0,1,.94-1.19c.17-.12.31.1.25.25-.2.45-.53.85-.76,1.29A6.79,6.79,0,0,1,59,77c-.11.13-.32,0-.33-.14A3.19,3.19,0,0,1,59.22,75.46Z"/><path class="cls-3" d="M42.72,35.53a6.12,6.12,0,0,1,.94,1,3.67,3.67,0,0,1,.74,1.1.19.19,0,0,1-.27.21,3.6,3.6,0,0,1-.85-1,5.26,5.26,0,0,1-.74-1.19A.12.12,0,0,1,42.72,35.53Z"/><path class="cls-3" d="M45.1,38.61c.11-.12.27,0,.21.16a5.54,5.54,0,0,1-1.13,1.84.16.16,0,0,1-.27-.16A5.55,5.55,0,0,1,45.1,38.61Z"/><path class="cls-3" d="M47.67,65.48c.24-.34.58-.87,1-1a.13.13,0,0,1,.16.16c-.08.4-.52.78-.73,1.12s-.36.84-.73,1a.13.13,0,0,1-.2-.08C47,66.31,47.43,65.82,47.67,65.48Z"/><path class="cls-3" d="M46,61.92a.08.08,0,0,1,.11,0c.27.16.4.53.57.78a5.56,5.56,0,0,1,.63,1c0,.12-.05.25-.18.18a2,2,0,0,1-.79-.88A1.64,1.64,0,0,1,46,61.92Z"/><path class="cls-3" d="M70.93,84.1a4.2,4.2,0,0,1,.87,0,4.18,4.18,0,0,1,.92-.1.07.07,0,0,1,.06.1,1.49,1.49,0,0,1-1.9.24A.11.11,0,0,1,70.93,84.1Z"/><path class="cls-3" d="M45.3,47.44a5,5,0,0,1,.87,0,4.8,4.8,0,0,1,.92-.1s.09.05.06.1a1.49,1.49,0,0,1-1.9.24A.11.11,0,0,1,45.3,47.44Z"/><path class="cls-14" d="M77.86,83.82a4.53,4.53,0,0,0,.9.66c.3.17.64.26.94.44a.17.17,0,0,1-.08.31,2.44,2.44,0,0,1-2-1.25C77.58,83.85,77.75,83.73,77.86,83.82Z"/><path class="cls-14" d="M78.7,83a4,4,0,0,1,.8-.84c.29-.29.56-.6.87-.87.06-.06.18,0,.15.08a3.8,3.8,0,0,1-.67,1.06,2.28,2.28,0,0,1-1,.8A.16.16,0,0,1,78.7,83Z"/><path class="cls-14" d="M101.05,71.28c.43,0,.85.11,1.29.08s.84-.17,1.25-.15c0,0,0,0,0,.05a2.28,2.28,0,0,1-2.66.34A.17.17,0,0,1,101.05,71.28Z"/><path class="cls-14" d="M98.67,72a4.26,4.26,0,0,1,.83.52,3.38,3.38,0,0,1,.71.59c.11.15-.1.28-.22.23a3.6,3.6,0,0,1-.76-.57,4,4,0,0,1-.66-.64C98.53,72.05,98.6,72,98.67,72Z"/><path class="cls-14" d="M97.45,74.89a5.15,5.15,0,0,1,.68-.64,8.23,8.23,0,0,0,.65-.81.1.1,0,0,1,.18.07,2.27,2.27,0,0,1-.47,1,1.65,1.65,0,0,1-.86.66C97.51,75.15,97.36,75,97.45,74.89Z"/><path class="cls-14" d="M92.51,76.23c.39.19.72.5,1.09.71s.82.35,1.18.59a.18.18,0,0,1-.1.34,3,3,0,0,1-2.24-1.58A0,0,0,0,1,92.51,76.23Z"/><path class="cls-14" d="M89.85,77.29c.17-.27.38-.51.55-.78a4.87,4.87,0,0,0,.39-1,.09.09,0,0,1,.18,0,1.59,1.59,0,0,1-1,1.89A.11.11,0,0,1,89.85,77.29Z"/><path class="cls-14" d="M86,79.43a8.81,8.81,0,0,1,1,.69c.4.22.84.34,1.24.55a.15.15,0,0,1-.08.27,2.41,2.41,0,0,1-1.38-.44,2,2,0,0,1-.94-.94C85.83,79.49,85.9,79.4,86,79.43Z"/><path class="cls-14" d="M77.87,76.62c.32.23.59.55.91.8s.69.41,1,.68a.12.12,0,0,1-.09.21,2.66,2.66,0,0,1-2.05-1.51A.16.16,0,0,1,77.87,76.62Z"/><path class="cls-3" d="M104.57,54c-.7,5.19-6.79,11.66-13.61,14.46s-11.77.86-11.07-4.32,6.79-11.66,13.6-14.46S105.27,48.82,104.57,54Z"/><path class="cls-12" d="M85.26,70a15.58,15.58,0,0,0,5.82-1.3C98,65.91,104.16,59.32,104.87,54a4.85,4.85,0,0,0-1.66-4.78c-2.06-1.6-5.74-1.55-9.84.14-6.89,2.83-13.08,9.42-13.79,14.69a4.87,4.87,0,0,0,1.66,4.79A6.52,6.52,0,0,0,85.26,70ZM99.2,48.71a5.85,5.85,0,0,1,3.64,1A4.27,4.27,0,0,1,104.26,54c-.68,5.08-6.7,11.45-13.42,14.21-3.88,1.6-7.33,1.68-9.23.22a4.3,4.3,0,0,1-1.42-4.21c.69-5.08,6.7-11.46,13.42-14.21A15.06,15.06,0,0,1,99.2,48.71Z"/><path class="cls-12" d="M85.28,68.33A14.19,14.19,0,0,0,90.8,67c6-2.69,11.66-8.46,12.53-12.86h0a3.6,3.6,0,0,0-1-3.73c-1.65-1.32-4.82-1.12-8.5.51-6,2.69-11.66,8.46-12.53,12.85a3.59,3.59,0,0,0,1,3.74A4.67,4.67,0,0,0,85.28,68.33Zm14-18.53a4.4,4.4,0,0,1,2.78.8A3.29,3.29,0,0,1,103,54h0c-.85,4.31-6.39,10-12.36,12.63-3.56,1.59-6.62,1.8-8.17.56a3.3,3.3,0,0,1-.93-3.44c.85-4.31,6.39-10,12.35-12.63A13.76,13.76,0,0,1,99.32,49.8Z"/><path class="cls-12" d="M91.25,56.36a2.53,2.53,0,0,1-.32,1.4,2.86,2.86,0,0,1-1.05,1.08l0,.79-1.23.75-.2-1.84c0-.47-.13-1.12-.23-1.94a8.3,8.3,0,0,1,1-.7,2.13,2.13,0,0,1,1.34-.43C91,55.52,91.21,55.82,91.25,56.36Zm-.89,1c0-.26-.17-.31-.45-.14l-.1.07,0,.9A.93.93,0,0,0,90.36,57.35Z"/><path class="cls-12" d="M94.41,54.77a3.69,3.69,0,0,1-.3,1.75,2.65,2.65,0,0,1-1,1.31.93.93,0,0,1-1.16,0,1.72,1.72,0,0,1-.5-1.26,3.38,3.38,0,0,1,.32-1.76,2.8,2.8,0,0,1,1-1.16,1,1,0,0,1,1.1-.14A1.44,1.44,0,0,1,94.41,54.77Zm-1,1.1c0-.47-.19-.62-.47-.45a1,1,0,0,0-.36,1,1,1,0,0,0,.15.46c.09.14.2.17.32.1a.88.88,0,0,0,.28-.47A1.66,1.66,0,0,0,93.37,55.87Z"/><path class="cls-12" d="M97.45,52.57a2.6,2.6,0,0,1-.32,1.4,3,3,0,0,1-1,1.09l0,.78-1.23.75-.2-1.84c-.05-.47-.13-1.12-.23-1.94a8.3,8.3,0,0,1,1-.7,2.13,2.13,0,0,1,1.34-.43C97.19,51.73,97.41,52,97.45,52.57Zm-.9,1c0-.26-.16-.31-.44-.14l-.1.07,0,.9A.89.89,0,0,0,96.55,53.56Z"/><path class="cls-12" d="M89.91,62.64a1.07,1.07,0,0,0-.31.15,1.61,1.61,0,0,0-.57.56,1.38,1.38,0,0,0-.2.84.47.47,0,0,0,.24.45.57.57,0,0,0,.54-.09,1.61,1.61,0,0,0,.41-.38c0,.07,0,.22,0,.42l0,.42a2.64,2.64,0,0,1-.64.5,1.33,1.33,0,0,1-1.24.21,1.28,1.28,0,0,1-.66-1.2,3.1,3.1,0,0,1,.37-1.69,3.62,3.62,0,0,1,1.34-1.41,3.33,3.33,0,0,1,.62-.32Z"/><path class="cls-12" d="M93.12,61a3.81,3.81,0,0,1-.3,1.75,2.65,2.65,0,0,1-1,1.31.93.93,0,0,1-1.16,0,1.76,1.76,0,0,1-.51-1.26A3.49,3.49,0,0,1,90.44,61a2.73,2.73,0,0,1,1-1.16,1,1,0,0,1,1.1-.14A1.49,1.49,0,0,1,93.12,61Zm-1,1.1c0-.47-.19-.62-.47-.45a.93.93,0,0,0-.36,1,.89.89,0,0,0,.14.46c.1.14.2.17.32.1a.77.77,0,0,0,.28-.47A1.68,1.68,0,0,0,92.08,62.06Z"/><path class="cls-12" d="M96.25,58.62a2,2,0,0,1-.17,1,2.51,2.51,0,0,1-.47.76,3.19,3.19,0,0,0,.35.29,2.82,2.82,0,0,0,.42.2l-.45.5c-.16.18-.31.37-.45.54l-.32-.3a5.05,5.05,0,0,1-.35-.46h0l0,.9-1.26.77c0-.36-.11-1-.2-1.77q-.08-.73-.24-2c.41-.3.78-.55,1.12-.76C95.52,57.48,96.18,57.6,96.25,58.62Zm-1,1.16c0-.16-.08-.23-.2-.23a.66.66,0,0,0-.34.14l.05.87a1.3,1.3,0,0,0,.32-.3A.68.68,0,0,0,95.28,59.78Z"/><path class="cls-12" d="M99,55.41c0,.36,0,1,0,1.84,0,.63.06,1.36.1,2.18l-1-.23-.81-.14.07,1.35-.72.44c0-.34-.11-1-.22-1.89-.09-.74-.18-1.37-.25-1.87l1.12-.69.89.39c0-.21,0-.37,0-.48s0-.23-.06-.39Z"/><path class="cls-15" d="M184.28,101.36,133.14,71.83c-2.92-1.68-5.3-6.22-5.3-10.12V19.83l61.74,35.65V97.35C189.58,101.26,187.21,103.05,184.28,101.36Z"/><polygon class="cls-15" points="184.63 58.35 189.58 56.01 187.76 101.63 182.66 104.59 184.63 58.35"/><path class="cls-16" d="M179.33,104.23,128.19,74.71c-2.92-1.69-5.3-6.22-5.3-10.13V22.71l61.74,35.64v41.88C184.63,104.13,182.26,105.92,179.33,104.23Z"/><polygon class="cls-12" points="181.16 94.74 126.37 63.11 126.37 61.91 181.16 93.55 181.16 94.74"/><polygon class="cls-12" points="181.16 83.2 126.37 51.57 126.37 50.37 181.16 82 181.16 83.2"/><polygon class="cls-12" points="181.16 71.6 126.37 39.97 126.37 38.77 181.16 70.41 181.16 71.6"/><polygon class="cls-12" points="137.76 57.55 137.76 45.91 136.87 45.39 136.87 57.03 137.76 57.55"/><polygon class="cls-12" points="151.03 65.21 151.03 53.57 150.14 53.05 150.14 64.69 151.03 65.21"/><polygon class="cls-4" points="125.87 12.73 120.92 15.61 186.12 53.08 191.07 50.2 125.87 12.73"/><polygon class="cls-17" points="157.99 36.91 148.69 42.28 157.31 47.24 166.62 41.87 157.99 36.91"/><polygon class="cls-17" points="120.92 15.61 120.92 26.32 124.15 28.18 133.46 22.81 120.92 15.61"/><polygon class="cls-17" points="174.63 46.47 165.32 51.84 173.65 56.63 182.95 51.26 174.63 46.47"/><polygon class="cls-17" points="141.47 27.41 132.16 32.79 140.68 37.68 149.98 32.31 141.47 27.41"/><polygon class="cls-17" points="186.12 58.65 181.66 61.23 186.12 63.8 186.12 58.65"/><polygon class="cls-18" points="186.12 53.08 182.95 51.26 173.65 56.63 181.66 61.23 186.12 58.65 186.12 53.08"/><polygon class="cls-18" points="166.62 41.87 157.31 47.24 165.32 51.84 174.63 46.47 166.62 41.87"/><polygon class="cls-18" points="149.98 32.31 140.68 37.68 148.69 42.28 157.99 36.91 149.98 32.31"/><polygon class="cls-18" points="133.46 22.81 124.15 28.18 132.16 32.79 141.47 27.41 133.46 22.81"/><polygon class="cls-19" points="186.12 63.8 191.07 60.92 191.07 50.2 186.12 53.08 186.12 63.8"/><polygon class="cls-20" points="154.93 29.43 149.98 32.31 157.99 36.91 162.94 34.03 154.93 29.43"/><polygon class="cls-20" points="171.57 38.99 166.62 41.87 174.63 46.47 179.57 43.59 171.57 38.99"/><polygon class="cls-20" points="187.9 48.4 182.95 51.28 186.12 53.08 191.07 50.2 187.9 48.4"/><polygon class="cls-20" points="138.41 19.93 133.46 22.81 141.47 27.41 146.42 24.53 138.41 19.93"/><polygon class="cls-4" points="125.87 0 120.92 2.88 186.12 40.35 191.07 37.47 125.87 0"/><polygon class="cls-20" points="129.25 1.94 124.3 4.82 133.84 10.31 138.79 7.43 129.25 1.94"/><polygon class="cls-20" points="145.92 11.52 140.97 14.4 150.52 19.89 155.47 17.01 145.92 11.52"/><polygon class="cls-20" points="162.72 21.18 157.77 24.06 167.32 29.55 172.27 26.66 162.72 21.18"/><polygon class="cls-20" points="179.15 30.64 174.2 33.52 183.75 39.01 188.7 36.13 179.15 30.64"/><polygon class="cls-17" points="150.52 19.89 159.78 35.93 167.03 40.1 157.77 24.06 150.52 19.89"/><polygon class="cls-17" points="133.84 10.31 143.1 26.35 150.23 30.44 140.97 14.4 133.84 10.31"/><polygon class="cls-17" points="186.12 40.35 183.75 38.99 186.12 43.1 186.12 40.35"/><polygon class="cls-17" points="174.2 33.5 167.32 29.55 176.58 45.59 183.46 49.54 174.2 33.5"/><polygon class="cls-17" points="124.68 5.04 120.92 2.88 120.92 13.6 133.56 20.86 124.49 5.15 124.68 5.04"/><polygon class="cls-18" points="157.77 24.06 167.03 40.1 176.58 45.59 167.32 29.55 157.77 24.06"/><polygon class="cls-18" points="186.12 51.07 186.12 43.1 183.75 38.99 174.2 33.5 183.46 49.54 186.12 51.07"/><polygon class="cls-18" points="124.3 4.82 133.56 20.86 143.1 26.35 133.84 10.31 124.3 4.82"/><polygon class="cls-18" points="140.97 14.4 150.23 30.44 159.78 35.93 150.52 19.89 140.97 14.4"/><polygon class="cls-19" points="186.12 51.07 191.07 48.19 191.07 37.47 186.12 40.35 186.12 51.07"/><path class="cls-21" d="M132.07,28.24C130.85,24.12,125.82,10,125,7.55S122.47,4,121.62,4.63h0l-.86.5.38.49a1.66,1.66,0,0,0,0,.32V23.72c0,2.12.61,3.49,2.17,4.39l7.33,4.24-.25.12.65.71,1.06-.61h0C132.67,32.2,132.87,30.91,132.07,28.24Z"/><path class="cls-19" d="M120.14,24.28c0,2.12.61,3.5,2.17,4.4L129.72,33c1.45.84,2.64.07,1.39-4.15S124.86,10.59,124,8.11c-1.14-3.46-3.9-4-3.9-1.6Z"/><path class="cls-17" d="M122.7,26.05c0,.65-.4.95-.89.67a2.13,2.13,0,0,1-.88-1.7c0-.65.39-.95.88-.67A2.14,2.14,0,0,1,122.7,26.05Z"/><path class="cls-12" d="M122.25,26c0,.47-.29.69-.64.48a1.53,1.53,0,0,1-.64-1.22c0-.47.29-.69.64-.48A1.53,1.53,0,0,1,122.25,26Z"/><path class="cls-17" d="M122.7,9.16c0,.65-.4.95-.89.67a2.11,2.11,0,0,1-.88-1.69c0-.66.39-1,.88-.67A2.12,2.12,0,0,1,122.7,9.16Z"/><path class="cls-12" d="M122.25,9.1c0,.48-.29.69-.64.49A1.55,1.55,0,0,1,121,8.37c0-.48.29-.69.64-.49A1.55,1.55,0,0,1,122.25,9.1Z"/><path class="cls-17" d="M129.78,30.15c0,.65-.4,1-.89.67a2.14,2.14,0,0,1-.88-1.69c0-.65.4-.95.88-.67A2.12,2.12,0,0,1,129.78,30.15Z"/><path class="cls-12" d="M129.33,30.09c0,.48-.29.69-.64.49a1.55,1.55,0,0,1-.64-1.22c0-.47.29-.69.64-.49A1.55,1.55,0,0,1,129.33,30.09Z"/><path class="cls-12" d="M137.23,59.46l.14.09.18.15.16.13.08.09a0,0,0,0,1,0,0s0,0,0,0l.69.28a8.08,8.08,0,0,1,.79.38,6.28,6.28,0,0,1,.78.48,3.64,3.64,0,0,1,.64.59v.16a1.1,1.1,0,0,1,0,.18l0,.16s0,.06-.06.06a4.46,4.46,0,0,0-.62-.49c-.24-.14-.49-.28-.74-.4a6.12,6.12,0,0,0-.75-.33l-.68-.26h-.05s0,0,0,.07q-.06.75-.12,1.44c0,.46-.07.93-.11,1.42s-.08,1-.11,1.58-.08,1.21-.12,1.94a.48.48,0,0,1-.11.26.38.38,0,0,1-.21.12.34.34,0,0,1-.25,0,.6.6,0,0,1-.21-.25c0-.19,0-.37,0-.55l0-.54c0-.17,0-.34,0-.51s0-.34,0-.5c0-.37,0-.75,0-1.13s0-.76,0-1.14a11.14,11.14,0,0,0-.15-1.16,6.89,6.89,0,0,0-.32-1.16.4.4,0,0,0-.09-.14s-.08-.08-.1-.08l-.27,0h-.21s-.06,0-.11-.09l-.12-.18a1.74,1.74,0,0,1-.1-.19c0-.06,0-.1,0-.11a.46.46,0,0,1,.3-.17,2.58,2.58,0,0,1,.53-.08,4.19,4.19,0,0,1,.61,0,2.13,2.13,0,0,1,.55.12h0l0,0a.2.2,0,0,1,0-.07.29.29,0,0,1,0-.09l.05-.06ZM137,60.52a1,1,0,0,0-.41-.08.88.88,0,0,0-.23,0,.1.1,0,0,0-.05.07.17.17,0,0,0,0,.12,5.61,5.61,0,0,1,.19.67c0,.22.08.44.11.67s.05.46.07.7,0,.5.07.76c0,.06,0,.09,0,.1s0,0,0,0,0-.07,0-.22,0-.32.06-.54,0-.45.06-.71,0-.5.06-.72,0-.41,0-.56S137,60.53,137,60.52Z"/><path class="cls-12" d="M141.26,66.2l-.09.44c0,.2-.1.42-.17.66s-.15.49-.23.74a4.38,4.38,0,0,1-.27.68,1.84,1.84,0,0,1-.28.45c-.1.1-.2.13-.29.07a.65.65,0,0,1-.26-.26,2.06,2.06,0,0,1-.21-.42,2.72,2.72,0,0,1-.13-.49,2.92,2.92,0,0,1,0-.51,2.88,2.88,0,0,1,0-.47c0-.18.07-.36.12-.56s.08-.39.13-.58.09-.37.12-.52a2.28,2.28,0,0,0,.05-.4c0-.1,0-.17,0-.19s-.06,0-.11,0a1,1,0,0,0-.19.23c-.06.1-.14.22-.21.36s-.15.28-.21.41-.12.25-.16.35a1.26,1.26,0,0,0-.08.21v.3a2.81,2.81,0,0,0,0,.3h-.09s-.06,0-.11-.07a1.05,1.05,0,0,1-.22-.34,2.76,2.76,0,0,1-.15-.46,4.51,4.51,0,0,1-.09-.53c0-.18,0-.36,0-.53s0-.32,0-.47v-.35a7.45,7.45,0,0,1,.05-1,7.71,7.71,0,0,1,.18-1,6.19,6.19,0,0,1,.29-.86,2.16,2.16,0,0,1,.42-.63,1,1,0,0,1,.54-.28,1,1,0,0,1,.65.16,1,1,0,0,1,.41.51,2.24,2.24,0,0,1,.12.73,2.15,2.15,0,0,1-.09.61,3,3,0,0,1-.24.58,3.77,3.77,0,0,1-.34.54,3,3,0,0,1-.42.45,3.48,3.48,0,0,1-.44.36,3.14,3.14,0,0,1-.42.24l-.06.07a.3.3,0,0,0,0,.18,1.85,1.85,0,0,1,0,.23v.24c0,.07,0,.14,0,.19s0,.09,0,.1,0,0,.09-.12a2.29,2.29,0,0,1,.17-.27c.07-.11.14-.22.22-.33s.16-.21.24-.3a.92.92,0,0,1,.23-.19.16.16,0,0,1,.2,0,.88.88,0,0,1,.29.33,1.66,1.66,0,0,1,.21.63,1.75,1.75,0,0,1,0,.44c0,.19-.06.4-.1.63s-.08.46-.13.7-.08.47-.1.67a2.5,2.5,0,0,0,0,.52q0,.22.09.27c.06,0,.12,0,.19-.11a2.72,2.72,0,0,0,.21-.42,5.66,5.66,0,0,0,.22-.59c.07-.22.14-.43.2-.63a5.44,5.44,0,0,0,.14-.54,1.86,1.86,0,0,0,.07-.31h0a.11.11,0,0,1,.08,0,.09.09,0,0,1,.06.06S141.29,66.14,141.26,66.2Zm-2.55-2a.13.13,0,0,0,0,.08s0,0,.06,0l.22-.16a4.09,4.09,0,0,0,.33-.3,5.5,5.5,0,0,0,.38-.42,4.59,4.59,0,0,0,.35-.51,3,3,0,0,0,.25-.58,2,2,0,0,0,.1-.64v-.17l0-.19a.85.85,0,0,0-.06-.17.17.17,0,0,0-.08-.1.41.41,0,0,0-.47,0,1.62,1.62,0,0,0-.4.5,5,5,0,0,0-.31.76c-.09.29-.17.57-.23.83s-.1.5-.13.7A1,1,0,0,0,138.71,64.18Z"/><path class="cls-12" d="M143.67,67.51l-.19.27-.24.34-.28.33a1.92,1.92,0,0,1-.32.26.79.79,0,0,1-.35.13.64.64,0,0,1-.35-.08,1.56,1.56,0,0,1-.35-.3,2.36,2.36,0,0,1-.32-.44,2.66,2.66,0,0,1-.23-.52A1.73,1.73,0,0,1,141,67a4.89,4.89,0,0,1,0-.54,4,4,0,0,1,.11-.52,1.83,1.83,0,0,1,.17-.45,1,1,0,0,1,.25-.33.59.59,0,0,1,.33-.13.7.7,0,0,1,.41.12l.1.09a2.46,2.46,0,0,1,.17.22,3.1,3.1,0,0,1,.17.32,1.76,1.76,0,0,1,.11.41.47.47,0,0,1-.1.36.56.56,0,0,1-.28.16,1.37,1.37,0,0,1-.35,0,1.07,1.07,0,0,1-.3-.09s-.07,0-.09.09a2.16,2.16,0,0,0-.05.32c0,.12,0,.24,0,.36v.26a.87.87,0,0,0,.09.37.74.74,0,0,0,.31.32.35.35,0,0,0,.28,0,1.19,1.19,0,0,0,.31-.14,1.68,1.68,0,0,0,.29-.25l.25-.27.18-.23a.49.49,0,0,1,.08-.11h.15l.08,0a.17.17,0,0,1,.06.08Zm-1.14-1.36a.59.59,0,0,0,0-.29.37.37,0,0,0-.19-.2.35.35,0,0,0-.33.1.67.67,0,0,0-.18.33.17.17,0,0,0,0,.1.18.18,0,0,0,.05.07l.07,0,.06,0a.55.55,0,0,0,.36,0A.34.34,0,0,0,142.53,66.15Z"/><path class="cls-12" d="M147.93,70.16a1.39,1.39,0,0,1-.3,0h-.32s0,0,0,0a.13.13,0,0,0,0,.06,3.61,3.61,0,0,1,0,.65,1.35,1.35,0,0,1-.05.29,2.43,2.43,0,0,1-.12.39,2.5,2.5,0,0,1-.19.41,1.23,1.23,0,0,1-.26.33.75.75,0,0,1-.33.17.63.63,0,0,1-.41-.07.79.79,0,0,1-.12-.13,1.16,1.16,0,0,1-.13-.2,2,2,0,0,1-.1-.26,1,1,0,0,1,0-.23,1.84,1.84,0,0,1,.11-.62,1.78,1.78,0,0,1,.28-.53,1.54,1.54,0,0,1,.37-.39,1.11,1.11,0,0,1,.41-.2c.05,0,.08-.06.07-.16a1.55,1.55,0,0,0-.05-.35,3,3,0,0,0-.13-.36.43.43,0,0,0-.14-.21.25.25,0,0,0-.22,0,.8.8,0,0,0-.21.13,1.29,1.29,0,0,0-.2.25,3.19,3.19,0,0,0-.26.59,1.29,1.29,0,0,0,0,.25c0,.13,0,.26,0,.4s0,.26,0,.38l-.14,0a.42.42,0,0,1-.16-.11.77.77,0,0,1-.13-.26c0-.12-.08-.27-.12-.44s-.06-.35-.09-.54,0-.39-.07-.58,0-.36,0-.52a3.4,3.4,0,0,1,0-.42,7.59,7.59,0,0,1,.07-1.07,7,7,0,0,1,.21-1,5.6,5.6,0,0,1,.31-.85,3,3,0,0,1,.41-.64,1.48,1.48,0,0,1,.48-.37.74.74,0,0,1,.53,0,.56.56,0,0,1,.33.21,1.43,1.43,0,0,1,.19.37,1.79,1.79,0,0,1,.11.47c0,.16,0,.33,0,.48a2.76,2.76,0,0,1-.15,1,2.51,2.51,0,0,1-.43.77,2.8,2.8,0,0,1-.62.57,6.87,6.87,0,0,1-.74.44.25.25,0,0,0,0,.07l0,.08v.42c0,.13,0,.28,0,.43a.1.1,0,0,0,0,.06s0,0,0,0a1.94,1.94,0,0,1,.3-.57,1,1,0,0,1,.45-.34.33.33,0,0,1,.33.09,1.27,1.27,0,0,1,.29.38,3.89,3.89,0,0,1,.21.51,2.88,2.88,0,0,1,.11.45s0,0,0,.06l.05,0a.87.87,0,0,0,.28,0,1.32,1.32,0,0,0,.29,0,.08.08,0,0,1,.07,0,.17.17,0,0,1,0,.07s0,0,0,.08A0,0,0,0,1,147.93,70.16Zm-2.48-2.37a.38.38,0,0,0,.06.14s0,0,.08,0l.62-.4a3.23,3.23,0,0,0,.55-.5,2.3,2.3,0,0,0,.39-.69,2.66,2.66,0,0,0,.14-1v-.19l0-.24a1.55,1.55,0,0,0,0-.23.35.35,0,0,0-.09-.16.38.38,0,0,0-.34-.15.54.54,0,0,0-.32.2,2.19,2.19,0,0,0-.3.45c-.09.19-.18.39-.26.61s-.15.45-.21.68-.11.45-.15.65a4.29,4.29,0,0,0-.08.53A1.13,1.13,0,0,0,145.45,67.79Zm1.1,3.66a1.43,1.43,0,0,0,.19-.49c0-.2.06-.4.08-.62a.16.16,0,0,0,0-.08s0,0,0,0a.86.86,0,0,0-.31.18,1.71,1.71,0,0,0-.33.37,2,2,0,0,0-.24.51,1.29,1.29,0,0,0,0,.62A.18.18,0,0,0,146,72a.62.62,0,0,0,.2-.12,2,2,0,0,0,.19-.21Z"/><path class="cls-12" d="M150.42,71.4a2.78,2.78,0,0,1-.19.27c-.07.11-.15.22-.24.34s-.18.23-.28.34a1.92,1.92,0,0,1-.32.26.93.93,0,0,1-.35.13.58.58,0,0,1-.35-.09,1.28,1.28,0,0,1-.35-.29,2.36,2.36,0,0,1-.32-.44,2.5,2.5,0,0,1-.23-.53,1.67,1.67,0,0,1-.09-.52,4.89,4.89,0,0,1,0-.54,3.65,3.65,0,0,1,.11-.52,2.09,2.09,0,0,1,.17-.46,1,1,0,0,1,.25-.32.53.53,0,0,1,.33-.13A.77.77,0,0,1,149,69a.84.84,0,0,1,.1.1,1.4,1.4,0,0,1,.17.22,1.91,1.91,0,0,1,.17.32,1.76,1.76,0,0,1,.11.41.43.43,0,0,1-.1.35.45.45,0,0,1-.28.16,1,1,0,0,1-.35,0,1.07,1.07,0,0,1-.3-.09s-.07,0-.09.09a2.24,2.24,0,0,0-.05.31c0,.13,0,.25,0,.37v.25a.92.92,0,0,0,.09.38.79.79,0,0,0,.31.32.39.39,0,0,0,.28,0,1.06,1.06,0,0,0,.31-.14,1.68,1.68,0,0,0,.29-.25l.25-.27.18-.23.08-.11h.15l.08,0a.17.17,0,0,1,.06.08ZM149.28,70a.55.55,0,0,0,0-.28.36.36,0,0,0-.18-.2.36.36,0,0,0-.34.1.59.59,0,0,0-.18.33.17.17,0,0,0,0,.1.18.18,0,0,0,.05.07l.07,0,.06,0a.55.55,0,0,0,.36,0A.33.33,0,0,0,149.28,70Z"/><path class="cls-12" d="M151,69.8a.4.4,0,0,1,.17.22,2.06,2.06,0,0,1,.12.35,2.14,2.14,0,0,1,0,.34.63.63,0,0,1,0,.23c-.06.08-.1.11-.12.1s-.05,0-.06-.09,0-.11,0-.18a.61.61,0,0,0,0-.17s-.06,0-.13,0a.9.9,0,0,0-.22.11.76.76,0,0,0-.21.19.33.33,0,0,0-.1.24,1.44,1.44,0,0,0,.09.47,3.56,3.56,0,0,0,.19.49,5.84,5.84,0,0,0,.28.56l.09,0,.17-.09.21-.13.21-.13a1.18,1.18,0,0,1,.19-.1l.11,0a.07.07,0,0,1,0,0,.45.45,0,0,1,.06.19.08.08,0,0,1,0,.07.38.38,0,0,1-.15.09l-.29.15a1.92,1.92,0,0,0-.28.18c-.09.06-.15.12-.16.17v.08a.25.25,0,0,0,0,.07,2.28,2.28,0,0,1,.16.84,1.53,1.53,0,0,1-.12.71.78.78,0,0,1-.36.41.56.56,0,0,1-.55-.06,1.06,1.06,0,0,1-.21-.18,1.38,1.38,0,0,1-.22-.29,2.21,2.21,0,0,1-.16-.35,1.23,1.23,0,0,1-.08-.38.62.62,0,0,1,.06-.26.89.89,0,0,1,.16-.22,1.29,1.29,0,0,1,.21-.19,1.42,1.42,0,0,1,.23-.14l.15-.08a.29.29,0,0,0,.1-.08.2.2,0,0,0,0-.11.59.59,0,0,0-.05-.19l-.14-.35c-.07-.16-.13-.33-.19-.5a5.43,5.43,0,0,1-.17-.53,1.59,1.59,0,0,1-.08-.42,1,1,0,0,1,.12-.48,1,1,0,0,1,.28-.36.92.92,0,0,1,.36-.2A.5.5,0,0,1,151,69.8Zm-.37,3.5a.18.18,0,0,0-.17,0,1,1,0,0,0-.24.14,1.19,1.19,0,0,0-.22.23.5.5,0,0,0-.1.27.31.31,0,0,0,.07.2.47.47,0,0,0,.15.13.39.39,0,0,0,.54-.08.72.72,0,0,0,.11-.35,1.25,1.25,0,0,0-.09-.51l0,0Z"/><path class="cls-12" d="M154,70.18a.29.29,0,0,1,.05.16l-.37-.13-.37-.14-.32-.14-.2-.07-.07,0s0,0-.07.07a2,2,0,0,1-.05.26c0,.15,0,.32-.08.53s-.07.44-.1.69l-.09.79c0,.26-.05.53-.06.78s0,.5,0,.7V74c0,.14,0,.28,0,.44s0,.32,0,.48,0,.31,0,.44a2.68,2.68,0,0,0,0,.33c0,.09,0,.14.06.16s.06,0,.11-.11l.18-.35c.07-.15.14-.32.22-.51s.16-.38.23-.58.15-.38.22-.56.12-.33.18-.45a2.32,2.32,0,0,1,.11-.27s0,0,0,0h0a.1.1,0,0,1,.05,0,.12.12,0,0,1,.05,0,.14.14,0,0,1,0,.06c-.07.17-.15.36-.23.6s-.17.47-.26.72-.17.49-.26.73a6.61,6.61,0,0,1-.27.63,1.62,1.62,0,0,1-.26.41c-.09.1-.17.12-.25.07a1,1,0,0,1-.41-.51,3.68,3.68,0,0,1-.21-.81,7,7,0,0,1-.09-.93c0-.33,0-.61,0-.87a11.14,11.14,0,0,1,.07-1.33c.05-.42.11-.79.17-1.12s.12-.58.17-.79.09-.34.1-.39a.09.09,0,0,0,0,0s0,0,0,0l-.41-.18-.49-.19a.11.11,0,0,1,0-.08l0-.09a.56.56,0,0,1,.05-.08.09.09,0,0,1,.06,0,.38.38,0,0,1,.16.05l.25.11.25.11.2.08h0a.1.1,0,0,0,0,0,2.32,2.32,0,0,1,.08-.3l.15-.39a3,3,0,0,1,.18-.36q.09-.17.15-.18s0,0,.07,0l.08.11.08.13.06.1a.41.41,0,0,1,0,.27A2.91,2.91,0,0,1,153,69c0,.11-.09.22-.13.31s-.06.13-.05.14a.08.08,0,0,0,0,.07s0,0,0,0l.19.09.32.15.35.16.28.15h0Z"/><path class="cls-12" d="M160,76.85s.07,0,.09,0,0,0,0,.08a.25.25,0,0,1,0,.12.36.36,0,0,1,0,.09.7.7,0,0,0-.14.25l-.18.47-.23.57a4,4,0,0,1-.25.51,1.44,1.44,0,0,1-.27.34.23.23,0,0,1-.28,0,.78.78,0,0,1-.23-.22,3.07,3.07,0,0,1-.2-.36,2.39,2.39,0,0,1-.16-.38,1.1,1.1,0,0,1-.06-.31,4.4,4.4,0,0,1,0-.48q0-.27.09-.57l.12-.59c0-.2.08-.37.11-.53s0-.29.06-.39,0-.17,0-.18-.08,0-.15.18a4.86,4.86,0,0,0-.23.53c-.09.21-.18.45-.27.71l-.27.71c-.09.22-.16.39-.23.53s-.13.2-.16.18a1.05,1.05,0,0,1-.44-.49,1.76,1.76,0,0,1-.17-.7.94.94,0,0,1,0-.3c0-.14,0-.29.09-.47s.08-.36.12-.55.08-.36.11-.52a2.32,2.32,0,0,0,.07-.39q0-.16,0-.18c-.06,0-.13,0-.22.13a2.79,2.79,0,0,0-.25.47l-.26.64c-.09.24-.17.46-.25.66a4.88,4.88,0,0,1-.22.49c-.06.13-.11.18-.15.16a.85.85,0,0,1-.22-.21,1.27,1.27,0,0,1-.2-.31,2.17,2.17,0,0,1-.15-.35,1,1,0,0,1-.06-.3,4.24,4.24,0,0,1,0-.69c0-.26.06-.51.1-.77s.07-.49.09-.7a2.48,2.48,0,0,0,0-.49c0-.06,0-.06.1,0a1.8,1.8,0,0,1,.2.24l.22.32a.58.58,0,0,1,.09.25,1.44,1.44,0,0,1,0,.34c0,.14,0,.29-.07.46s0,.35-.07.52,0,.34-.07.48,0,.27,0,.37,0,.15,0,.17a2,2,0,0,0,.07-.21q.08-.21.18-.54c.07-.21.15-.44.25-.68a5.68,5.68,0,0,1,.3-.65,1.75,1.75,0,0,1,.33-.45.26.26,0,0,1,.34-.06.58.58,0,0,1,.2.21,1.82,1.82,0,0,1,.16.31,2.56,2.56,0,0,1,.12.32.84.84,0,0,1,0,.23,1,1,0,0,1,0,.22c0,.1,0,.23-.09.38s-.07.3-.11.46a4.47,4.47,0,0,0-.09.45,3.06,3.06,0,0,0-.05.36c0,.1,0,.16.05.18a.6.6,0,0,0,.09-.18l.18-.48q.1-.3.24-.63a4.05,4.05,0,0,1,.29-.59,1.45,1.45,0,0,1,.32-.39.28.28,0,0,1,.34,0,.59.59,0,0,1,.2.19,1.24,1.24,0,0,1,.17.27,1.38,1.38,0,0,1,.13.28.88.88,0,0,1,0,.19,2.94,2.94,0,0,1,0,.37c0,.17-.09.38-.14.61s-.12.47-.17.72-.11.49-.15.71a4.85,4.85,0,0,0-.07.55q0,.23.06.27s.09,0,.15-.07a1.91,1.91,0,0,0,.19-.28,4.1,4.1,0,0,0,.21-.42c.07-.16.15-.31.23-.47s.15-.29.22-.41A1.27,1.27,0,0,1,160,76.85Z"/><path class="cls-12" d="M162.35,78.3a.87.87,0,0,1-.35.34,1.6,1.6,0,0,1-.43.11,1.11,1.11,0,0,0-.08.16,3.11,3.11,0,0,1-.12.3c-.05.12-.11.23-.17.35a1.4,1.4,0,0,1-.23.29.61.61,0,0,1-.3.15.58.58,0,0,1-.37-.08,1.1,1.1,0,0,1-.26-.23,1.31,1.31,0,0,1-.23-.36,1.91,1.91,0,0,1-.16-.44,2.16,2.16,0,0,1-.06-.51,1.8,1.8,0,0,1,0-.27,3.12,3.12,0,0,1,.06-.41,1.35,1.35,0,0,1,.12-.34.16.16,0,0,1,.21-.1l.06,0s0,0,0,0a.12.12,0,0,0,0-.07,1,1,0,0,0,0-.14c0-.09,0-.21-.08-.36a2.28,2.28,0,0,1-.05-.56,1,1,0,0,1,.06-.28,1.09,1.09,0,0,1,.17-.34.71.71,0,0,1,.28-.24.41.41,0,0,1,.38,0,1.29,1.29,0,0,1,.42.39,2.11,2.11,0,0,1,.31.55,3.19,3.19,0,0,1,.19.62,2.56,2.56,0,0,1,.05.6,3.23,3.23,0,0,1,0,.48c0,.14,0,.23-.05.28a.08.08,0,0,0,0,.09.19.19,0,0,0,.13,0,.53.53,0,0,0,.17,0l.14-.08a.29.29,0,0,0,.1-.07s0,0,.07,0A.22.22,0,0,1,162.35,78.3Zm-1.18.38a1.61,1.61,0,0,1-.38-.31,1.65,1.65,0,0,0-.24-.22c-.05,0-.09,0-.13.12a1.34,1.34,0,0,0-.1.35,1.93,1.93,0,0,0,0,.42,1.31,1.31,0,0,0,.06.35.34.34,0,0,0,.2.22.46.46,0,0,0,.19-.09,1.07,1.07,0,0,0,.2-.22,1,1,0,0,0,.16-.29A1,1,0,0,0,161.17,78.68Zm.09-.38s.05,0,.08-.06a1.84,1.84,0,0,0,.07-.24c0-.11,0-.23,0-.36s0-.27,0-.41a1.44,1.44,0,0,0-.06-.4,1.72,1.72,0,0,0-.14-.4,2.22,2.22,0,0,0-.22-.34,1,1,0,0,0-.24-.23.21.21,0,0,0-.2,0,.37.37,0,0,0-.14.14.69.69,0,0,0-.08.23,1.41,1.41,0,0,0,0,.28,2.32,2.32,0,0,0,.25,1.08A1.67,1.67,0,0,0,161.26,78.3Z"/><path class="cls-12" d="M162.89,80.89a4.6,4.6,0,0,0,.22-.57c.08-.23.16-.48.24-.76s.14-.54.2-.79a.36.36,0,0,0,0-.11.13.13,0,0,0,0-.11c0-.06-.05-.12-.09-.21s-.09-.17-.13-.27l-.12-.28a.91.91,0,0,1-.05-.26,5,5,0,0,1,0-.53,3.3,3.3,0,0,1,.09-.49,1,1,0,0,1,.13-.33q.08-.12.18-.06a.68.68,0,0,1,.27.34A1.61,1.61,0,0,1,164,77v.37c0,.13,0,.26,0,.4l0,.38a2.53,2.53,0,0,1,0,.32.08.08,0,0,0,0,.09l.06,0,.13.05.18,0a.52.52,0,0,0,.17,0,.13.13,0,0,0,.1,0,.06.06,0,0,1,.07,0s0,0,0,.06a.29.29,0,0,1,0,.09.08.08,0,0,1,0,.06.22.22,0,0,1-.17.05l-.25,0-.23-.06-.11,0h-.06l0,0a.11.11,0,0,0,0,.06v0c0,.1-.06.25-.1.43s-.09.37-.15.59-.12.42-.18.64-.13.42-.2.58a2.55,2.55,0,0,1-.19.4c-.06.1-.12.14-.17.11a1.6,1.6,0,0,1-.24-.22,1.7,1.7,0,0,1-.23-.3,2.31,2.31,0,0,1-.18-.35,1.34,1.34,0,0,1-.07-.39c0-.09,0-.27,0-.52s0-.55,0-.89,0-.7,0-1.08a9.46,9.46,0,0,0-.13-1.1s0,0,.05,0a.64.64,0,0,1,.15.12,1,1,0,0,1,.21.21,2.32,2.32,0,0,1,.21.25,1.28,1.28,0,0,1,.16.27.43.43,0,0,1,.07.22c0,.05,0,.13,0,.26s0,.27,0,.44,0,.35-.06.55l-.06.6c0,.19,0,.37,0,.54s0,.32,0,.44a.27.27,0,0,0,0,.12l.06.12a.94.94,0,0,0,.1.14S162.82,81,162.89,80.89Zm.79-4.34c-.05,0-.09,0-.12.1a1.36,1.36,0,0,0-.07.33c0,.12,0,.25-.05.37s0,.21,0,.25a.75.75,0,0,0,0,.2,1.89,1.89,0,0,0,.05.23.84.84,0,0,0,.08.19c0,.06,0,.1.08.11s0,0,0-.11,0-.18,0-.31,0-.27,0-.41,0-.29,0-.42a3.16,3.16,0,0,0,0-.35C163.74,76.63,163.72,76.57,163.68,76.55Z"/><path class="cls-12" d="M165.83,80a.15.15,0,0,1,0,.07.11.11,0,0,0,0,.05c0,.1-.08.22-.12.35s-.09.28-.14.43-.11.3-.17.44a3,3,0,0,1-.19.36A.89.89,0,0,1,165,82a.24.24,0,0,1-.23,0,1,1,0,0,1-.31-.3,1.59,1.59,0,0,1-.22-.43,2.64,2.64,0,0,1-.14-.48,3.87,3.87,0,0,1,0-.45,1.36,1.36,0,0,1,0-.15c0-.1,0-.22,0-.36s0-.3,0-.46l.06-.46a2.15,2.15,0,0,1,.07-.35c0-.09.07-.14.1-.14s.07,0,.13,0a.88.88,0,0,1,.17.2,1.51,1.51,0,0,1,.15.28.69.69,0,0,1,.06.25.45.45,0,0,1,0,.17q0,.14,0,.33c0,.13,0,.26,0,.41s0,.29,0,.42,0,.25,0,.36a2.13,2.13,0,0,0,0,.22.82.82,0,0,0,0,.14,1.06,1.06,0,0,0,0,.19.4.4,0,0,0,.08.16.13.13,0,0,0,.12.07s.06,0,.1-.09a1.54,1.54,0,0,0,.15-.29c0-.11.11-.24.16-.38s.11-.26.16-.38.09-.22.12-.31a.84.84,0,0,1,.08-.15s0,0,0,0A.17.17,0,0,1,165.83,80Zm-1.35-2.66a.55.55,0,0,1,0-.22c0-.1,0-.2,0-.31s0-.19.06-.27a.31.31,0,0,1,.08-.14.41.41,0,0,1,.21.1.89.89,0,0,1,.2.19,1.23,1.23,0,0,1,.14.25.44.44,0,0,1,0,.25.86.86,0,0,0,0,.13l-.06.17c0,.06,0,.11-.05.16s0,.07,0,.07,0,0-.09,0l-.14-.09a1,1,0,0,1-.15-.14A.5.5,0,0,1,164.48,77.37Z"/><path class="cls-12" d="M168.22,81.68,168,82c-.07.11-.15.22-.24.34s-.19.23-.29.34a1.92,1.92,0,0,1-.32.26.89.89,0,0,1-.34.13.61.61,0,0,1-.36-.09,1.45,1.45,0,0,1-.35-.29,2.92,2.92,0,0,1-.32-.44,3.14,3.14,0,0,1-.23-.53,1.67,1.67,0,0,1-.09-.52,4.9,4.9,0,0,1,0-.54,4.15,4.15,0,0,1,.1-.53,3,3,0,0,1,.18-.45.92.92,0,0,1,.25-.32.58.58,0,0,1,.32-.14.79.79,0,0,1,.41.12l.11.1a2.46,2.46,0,0,1,.17.22,3.17,3.17,0,0,1,.16.32,1.3,1.3,0,0,1,.11.41.4.4,0,0,1-.09.35.47.47,0,0,1-.29.16,1,1,0,0,1-.35,0,.9.9,0,0,1-.29-.09s-.07,0-.09.09a1.34,1.34,0,0,0-.05.31,2.36,2.36,0,0,0,0,.37c0,.12,0,.2,0,.25a.8.8,0,0,0,.1.38.71.71,0,0,0,.3.32.42.42,0,0,0,.29,0,1.35,1.35,0,0,0,.3-.14,1.68,1.68,0,0,0,.29-.25,3,3,0,0,0,.25-.27,2.15,2.15,0,0,0,.18-.23l.09-.11h.15l.08,0a.28.28,0,0,1,.06.08Zm-1.14-1.36a.55.55,0,0,0,0-.28.33.33,0,0,0-.18-.2.37.37,0,0,0-.34.1.59.59,0,0,0-.18.33.11.11,0,0,0,0,.1.26.26,0,0,0,.12.12l.05,0a.52.52,0,0,0,.37,0A.28.28,0,0,0,167.08,80.32Z"/><path class="cls-22" d="M159.81,110.79v-2h-.2c-.67-3.48-3-6.92-6.94-9.94-5.55-4.2-13.42-6.83-21.84-7.76-1.12-.12-2.25-.22-3.39-.28s-2.28-.1-3.43-.1h0c-1.12,0-2.23,0-3.35.09a54,54,0,0,0-18,3.92,36.59,36.59,0,0,0-4.85,2.47c-.29.18-.58.36-.86.55-.54.35-1.06.72-1.55,1.1s-.92.72-1.34,1.09a15.71,15.71,0,0,0-5.5,8.86h-.2v2.14h0c0,4.2,2.34,8.45,7.14,12.08a35.36,35.36,0,0,0,9.11,4.84c.48.18,1,.35,1.48.52a55.16,55.16,0,0,0,11.25,2.4c1.12.12,2.26.22,3.39.28s2.29.09,3.43.1a62.12,62.12,0,0,0,10.23-.84l1.67-.31c1.1-.22,2.19-.47,3.27-.76.53-.14,1.07-.29,1.59-.45,1.06-.32,2.09-.67,3.11-1,.5-.19,1-.39,1.49-.6a37.45,37.45,0,0,0,4.11-2,23.87,23.87,0,0,0,7.45-6.37,14.2,14.2,0,0,0,1-1.53,12.51,12.51,0,0,0,.74-1.46,13.54,13.54,0,0,0,.57-1.62c.11-.41.21-.83.28-1.24s.09-.65.12-1A9.92,9.92,0,0,0,159.81,110.79ZM137.36,99.63c3.53-1.5,8.54-1.08,11.19.92s1.93,4.84-1.6,6.33-8.54,1.08-11.19-.92S133.82,101.12,137.36,99.63Zm-20.79-6.21c3.53-1.49,8.54-1.08,11.19.93s1.93,4.83-1.6,6.33-8.54,1.08-11.19-.93S113,94.91,116.57,93.42ZM97.16,108c-2.65-2-1.93-4.84,1.6-6.33s8.55-1.08,11.2.92,2,4.67-1.31,6.19H98.5A7.34,7.34,0,0,1,97.16,108Zm14.18,14.16c-3.53,1.49-8.54,1.08-11.19-.93s-1.93-4.83,1.6-6.33,8.54-1.08,11.19.93S114.88,120.64,111.34,122.13Zm20.32,5c-3.53,1.5-8.54,1.08-11.19-.92s-1.94-4.84,1.6-6.33,8.54-1.08,11.19.92S135.19,125.68,131.66,127.17ZM149.33,120c-3.53,1.49-8.54,1.08-11.19-.92s-1.94-4.84,1.6-6.33,8.54-1.08,11.19.92S152.87,118.46,149.33,120Z"/><path class="cls-13" d="M152.67,97c-11.84-8.95-34.23-10.8-50-4.13s-19,19.33-7.15,28.29,34.24,10.8,50,4.13S164.51,105.91,152.67,97ZM98.76,99.78c3.54-1.49,8.55-1.08,11.2.93s1.93,4.84-1.6,6.33-8.55,1.08-11.2-.93S95.23,101.28,98.76,99.78Zm12.58,20.5c-3.53,1.49-8.54,1.08-11.19-.93s-1.93-4.84,1.6-6.33,8.54-1.08,11.19.93S114.88,118.78,111.34,120.28Zm5.23-28.71c3.53-1.49,8.54-1.08,11.19.92s1.93,4.84-1.6,6.33S117.62,99.9,115,97.9,113,93.06,116.57,91.57Zm15.09,33.75c-3.53,1.49-8.54,1.08-11.19-.92s-1.94-4.84,1.6-6.33,8.54-1.08,11.19.92S135.19,123.83,131.66,125.32Zm5.7-27.55c3.53-1.49,8.54-1.07,11.19.93s1.93,4.84-1.6,6.33-8.54,1.08-11.19-.92S133.82,99.27,137.36,97.77Zm12,20.33c-3.53,1.49-8.54,1.08-11.19-.93s-1.94-4.83,1.6-6.33,8.54-1.08,11.19.93S152.87,116.61,149.33,118.1Z"/><path class="cls-22" d="M117.57,103.77c4.8-2,11.6-1.47,15.2,1.25a5.11,5.11,0,0,1,2.1,3c.29-1.5-.38-3.06-2.1-4.36-3.6-2.72-10.4-3.28-15.2-1.26-3.18,1.35-4.67,3.5-4.26,5.58C113.62,106.37,115.07,104.82,117.57,103.77Z"/><path class="cls-22" d="M115.4,111c3.6,2.72,10.4,3.28,15.2,1.25,2.5-1,4-2.61,4.27-4.23a5.11,5.11,0,0,0-2.1-3c-3.6-2.72-10.4-3.28-15.2-1.25-2.5,1-3.95,2.6-4.26,4.23A5.07,5.07,0,0,0,115.4,111Z"/><path class="cls-22" d="M115.4,111c3.6,2.72,10.4,3.28,15.2,1.25,2.5-1,4-2.61,4.27-4.23a5.11,5.11,0,0,0-2.1-3c-3.6-2.72-10.4-3.28-15.2-1.25-2.5,1-3.95,2.6-4.26,4.23A5.07,5.07,0,0,0,115.4,111Z"/><path class="cls-4" d="M151.63,97.4c11.38,8.61,8.29,20.84-6.89,27.25s-36.81,4.63-48.19-4-8.3-20.83,6.88-27.25,36.81-4.63,48.2,4Zm1-.44c-11.84-8.95-34.23-10.8-50-4.13s-19,19.33-7.15,28.29,34.24,10.8,50,4.13,19-19.34,7.15-28.29Z"/><path class="cls-22" d="M129.63,105.43c-2.29-1.74-6.64-2.09-9.71-.8s-3.69,3.76-1.39,5.49,6.65,2.1,9.72.81,3.68-3.76,1.38-5.5Z"/><path class="cls-4" d="M128.88,105.2c-2-1.51-5.8-1.82-8.47-.7s-3.21,3.28-1.21,4.79,5.8,1.83,8.47.7,3.21-3.27,1.21-4.79Z"/><path class="cls-23" d="M190.22,110.81a12.37,12.37,0,0,1-1.22.41,26.92,26.92,0,0,1-8.9.61,31,31,0,0,1-9-2.11,25.69,25.69,0,0,1-5.55-3.06,26.16,26.16,0,0,1-3.36-2.88c-3.77-3.87-5.05-8-7-13.17v9.79c1.93,5.19,3.21,9.31,7,13.17a26.16,26.16,0,0,0,3.36,2.88,25.69,25.69,0,0,0,5.55,3.06,31,31,0,0,0,9,2.11A26.92,26.92,0,0,0,189,121a12.37,12.37,0,0,0,1.22-.41c5.55-2.31,7.69-5,7.69-5v-9.79S195.77,108.5,190.22,110.81Z"/><path class="cls-18" d="M180.1,113.2v7.33a26.92,26.92,0,0,0,8.9-.61v-7.33A26.92,26.92,0,0,1,180.1,113.2Z"/><path class="cls-18" d="M165.55,108a25.34,25.34,0,0,1-2.1-1.69v7.33a25.34,25.34,0,0,0,2.1,1.69,26.58,26.58,0,0,0,5.55,3.06v-7.33A26.58,26.58,0,0,1,165.55,108Z"/><path class="cls-24" d="M153.29,99.45A21.76,21.76,0,0,0,150.52,97c-11-8.29-31.71-10-46.34-3.83s-17.58,17.91-6.62,26.2a27,27,0,0,0,2.29,1.55,37.79,37.79,0,0,0,8.9,3.85,52.22,52.22,0,0,0,8.94,1.78,57.5,57.5,0,0,0,8.91.3,55.67,55.67,0,0,0,8.88-1.07,45.44,45.44,0,0,0,8.41-2.58l.49-.22a26.88,26.88,0,0,0,8.91-6C158.32,111.61,158.51,105,153.29,99.45Z"/><path class="cls-18" d="M150.52,95.53c-11-8.29-31.71-10-46.34-3.83s-17.58,17.91-6.62,26.2a27,27,0,0,0,2.29,1.55V102.34h8.9v21a52.22,52.22,0,0,0,8.94,1.78V104.72h8.91v20.66a55.67,55.67,0,0,0,8.88-1.07V104.72h8.9v16.79a26.88,26.88,0,0,0,8.91-6V98A21.76,21.76,0,0,0,150.52,95.53Z"/><path class="cls-23" d="M99.85,102.34v17.11a37.79,37.79,0,0,0,8.9,3.85v-21Z"/><path class="cls-23" d="M117.69,104.72v20.36a57.5,57.5,0,0,0,8.91.3V104.72Z"/><path class="cls-23" d="M135.48,104.72v19.59a45.44,45.44,0,0,0,8.41-2.58l.49-.22V104.72Z"/><path class="cls-23" d="M153.29,98v17.53C158.32,110.16,158.51,103.57,153.29,98Z"/><path class="cls-18" d="M150.52,86.21c-11-8.29-31.71-10-46.34-3.83s-17.58,17.91-6.62,26.21,31.71,10,46.33,3.82,17.59-17.91,6.63-26.2Z"/><path class="cls-25" d="M149.28,86.58c-10.59-8-30.65-9.66-44.79-3.67s-17,17.34-6.42,25.35,30.65,9.65,44.79,3.67,17-17.34,6.42-25.35Z"/><path class="cls-24" d="M146,87.42c-9.25-7-26.75-8.43-39.09-3.2s-14.85,15.13-5.6,22.12,26.75,8.42,39.09,3.2,14.85-15.13,5.6-22.12Z"/><path class="cls-25" d="M141.63,88.74c-7.43-5.62-21.49-6.77-31.41-2.58s-11.93,12.16-4.5,17.78,21.49,6.77,31.41,2.57,11.93-12.16,4.5-17.77Z"/><path class="cls-22" d="M159.81,99.06V97h-.2c-.67-3.48-3-6.92-6.94-9.94-5.55-4.2-13.42-6.83-21.84-7.76-1.12-.12-2.25-.22-3.39-.28s-2.28-.1-3.43-.1h0c-1.12,0-2.27-.33-3.38-.27a54,54,0,0,0-18,4.28,36.59,36.59,0,0,0-4.85,2.47c-.29.18-.58.36-.86.55-.54.35-1.06.72-1.55,1.1s-.92.72-1.34,1.09A15.71,15.71,0,0,0,88.55,97h-.2v2.14h0c0,4.2,2.34,8.45,7.14,12.08a35.36,35.36,0,0,0,9.11,4.84c.48.18,1,.35,1.48.52a55.16,55.16,0,0,0,11.25,2.4c1.12.12,2.26.22,3.39.28s2.29.09,3.43.1a62.12,62.12,0,0,0,10.23-.84l1.67-.31c1.1-.22,2.19-.47,3.27-.76.53-.14,1.07-.29,1.59-.45,1.06-.32,2.09-.67,3.11-1,.5-.19,1-.39,1.49-.6a37.45,37.45,0,0,0,4.11-2,23.87,23.87,0,0,0,7.45-6.37,14.2,14.2,0,0,0,1-1.53,12.51,12.51,0,0,0,.74-1.46,13.54,13.54,0,0,0,.57-1.62c.11-.41.21-.83.28-1.24s.09-.65.12-1A9.92,9.92,0,0,0,159.81,99.06ZM137.36,87.9c3.53-1.5,8.54-1.08,11.19.92s1.93,4.84-1.6,6.33-8.54,1.08-11.19-.92S133.82,89.39,137.36,87.9Zm-20.79-6.21c3.53-1.49,8.54-1.08,11.19.93s1.93,4.83-1.6,6.33S117.62,90,115,88,113,83.19,116.57,81.69ZM97.16,96.24c-2.65-2-1.93-4.84,1.6-6.33s8.55-1.08,11.2.92,2,4.67-1.31,6.19H98.5A7.34,7.34,0,0,1,97.16,96.24Zm14.18,14.16c-3.53,1.49-8.54,1.08-11.19-.93s-1.93-4.83,1.6-6.33,8.54-1.08,11.19.93S114.88,108.91,111.34,110.4Zm20.32,5c-3.53,1.5-8.54,1.08-11.19-.92s-1.94-4.84,1.6-6.33,8.54-1.08,11.19.92S135.19,114,131.66,115.44Zm17.67-7.22c-3.53,1.49-8.54,1.08-11.19-.92s-1.94-4.84,1.6-6.33,8.54-1.08,11.19.92S152.87,106.73,149.33,108.22Z"/><path class="cls-13" d="M152.67,85.23c-11.84-9-34.23-10.8-50-4.13s-19,19.33-7.15,28.29,34.24,10.8,50,4.13S164.51,94.18,152.67,85.23ZM98.76,88.05c3.54-1.49,8.55-1.08,11.2.93s1.93,4.84-1.6,6.33-8.55,1.08-11.2-.93S95.23,89.55,98.76,88.05Zm12.58,20.5c-3.53,1.49-8.54,1.08-11.19-.93s-1.93-4.84,1.6-6.33,8.54-1.08,11.19.93S114.88,107.05,111.34,108.55Zm5.23-28.71c3.53-1.49,8.54-1.08,11.19.92s1.93,4.84-1.6,6.33-8.54,1.08-11.19-.92S113,81.33,116.57,79.84Zm15.09,33.75c-3.53,1.49-8.54,1.08-11.19-.92s-1.94-4.84,1.6-6.33,8.54-1.08,11.19.92S135.19,112.1,131.66,113.59Zm5.7-27.54c3.53-1.5,8.54-1.08,11.19.92s1.93,4.84-1.6,6.33-8.54,1.08-11.19-.92S133.82,87.54,137.36,86.05Zm12,20.32c-3.53,1.49-8.54,1.08-11.19-.93s-1.94-4.83,1.6-6.33,8.54-1.08,11.19.93S152.87,104.88,149.33,106.37Z"/><path class="cls-22" d="M117.57,92c4.8-2,11.6-1.47,15.2,1.25a5.13,5.13,0,0,1,2.1,3c.29-1.5-.38-3.06-2.1-4.36-3.6-2.72-10.4-3.28-15.2-1.26-3.18,1.35-4.67,3.5-4.26,5.58C113.62,94.64,115.07,93.09,117.57,92Z"/><path class="cls-22" d="M115.4,99.29c3.6,2.72,10.4,3.28,15.2,1.25,2.5-1.05,4-2.61,4.27-4.23a5.13,5.13,0,0,0-2.1-3c-3.6-2.72-10.4-3.28-15.2-1.25-2.5,1-3.95,2.6-4.26,4.23A5.07,5.07,0,0,0,115.4,99.29Z"/><path class="cls-4" d="M115.4,99.29c3.6,2.72,10.4,3.28,15.2,1.25,2.5-1.05,4-2.61,4.27-4.23a5.13,5.13,0,0,0-2.1-3c-3.6-2.72-10.4-3.28-15.2-1.25-2.5,1-3.95,2.6-4.26,4.23A5.07,5.07,0,0,0,115.4,99.29Z"/><path class="cls-4" d="M151.63,85.67c11.38,8.61,8.29,20.84-6.89,27.25s-36.81,4.63-48.19-4-8.3-20.83,6.88-27.25,36.81-4.63,48.2,4Zm1-.44c-11.84-9-34.23-10.8-50-4.13s-19,19.33-7.15,28.29,34.24,10.8,50,4.13,19-19.34,7.15-28.29Z"/><path class="cls-22" d="M129.63,93.7c-2.29-1.73-6.64-2.09-9.71-.8s-3.69,3.76-1.39,5.49,6.65,2.1,9.72.81,3.68-3.76,1.38-5.5Z"/><path class="cls-13" d="M128.88,93.47c-2-1.51-5.8-1.82-8.47-.7s-3.21,3.28-1.21,4.79,5.8,1.83,8.47.7,3.21-3.27,1.21-4.79Z"/><path class="cls-21" d="M130.6,81.27a.1.1,0,0,0-.16.09c0,.31.13.6.15.91a3,3,0,0,0,0,.9c0,.09.16.18.26.1C131.44,82.83,131.12,81.62,130.6,81.27Z"/><path class="cls-21" d="M133.69,81.76a1.18,1.18,0,0,0-1.47.7.19.19,0,0,0,.28.21c.2-.13.35-.31.55-.44s.44-.15.64-.27A.12.12,0,0,0,133.69,81.76Z"/><path class="cls-21" d="M155.11,93.36a2.92,2.92,0,0,0-.83-.85,3.76,3.76,0,0,0-.91-.57c-.12,0-.19.12-.12.2.25.28.56.51.82.77a4.77,4.77,0,0,0,.76.73C155,93.76,155.19,93.53,155.11,93.36Z"/><path class="cls-21" d="M156.41,94.1a3.66,3.66,0,0,0-1.06.54c-.26.18-.68.41-.73.75,0,.11,0,.24.18.23.34,0,.57-.33.82-.53s.64-.47.93-.75A.14.14,0,0,0,156.41,94.1Z"/><path class="cls-21" d="M151.88,87.08a.13.13,0,0,0-.21.12,5.24,5.24,0,0,1,.17,1.1,4.32,4.32,0,0,0,0,1,.16.16,0,0,0,.27.07C152.74,88.75,152.41,87.59,151.88,87.08Z"/><path class="cls-21" d="M109.62,81.57a.13.13,0,0,0-.21.12,5.9,5.9,0,0,1,.18,1.09,3.85,3.85,0,0,0,0,1,.16.16,0,0,0,.27.07C110.49,83.23,110.15,82.08,109.62,81.57Z"/><path class="cls-21" d="M150,85.73a3,3,0,0,0-2.65-.5c-.16,0-.11.26,0,.27a9.4,9.4,0,0,1,1.38.21,7.33,7.33,0,0,0,1.11.31A.17.17,0,0,0,150,85.73Z"/><path class="cls-21" d="M138.07,97.67a3,3,0,0,0-2.1,1.85.15.15,0,0,0,.25.15c.31-.3.54-.67.86-1a11,11,0,0,1,1.1-.79A.14.14,0,0,0,138.07,97.67Z"/><path class="cls-21" d="M147.75,108.31a14.47,14.47,0,0,1-4.29.68.12.12,0,0,0,0,.23,5.12,5.12,0,0,0,4.44-.63C148,108.5,147.93,108.24,147.75,108.31Z"/><path class="cls-21" d="M153.63,102.26a.09.09,0,0,0-.16,0,10.85,10.85,0,0,1-.21,1.27c-.13.42-.37.79-.47,1.21,0,.14.13.32.27.21A2.53,2.53,0,0,0,153.63,102.26Z"/><path class="cls-21" d="M142.21,108.39a1.7,1.7,0,0,0-.53.83,1.5,1.5,0,0,0,0,1,.19.19,0,0,0,.37,0,5.42,5.42,0,0,1,.13-.79,3.76,3.76,0,0,1,.32-.74A.19.19,0,0,0,142.21,108.39Z"/><path class="cls-21" d="M92.06,96a4.9,4.9,0,0,1-.58-.7,2.27,2.27,0,0,1-.24-1,.21.21,0,0,0-.41,0c-.26.69.18,1.89,1,2C92,96.31,92.18,96.15,92.06,96Z"/><path class="cls-21" d="M93.3,95.86A3.18,3.18,0,0,0,92,98.06a.21.21,0,0,0,.39.11,6.82,6.82,0,0,0,.52-1.09c.17-.36.36-.72.56-1.07C93.58,95.88,93.41,95.77,93.3,95.86Z"/><path class="cls-21" d="M113.74,91.14a3.18,3.18,0,0,0-1.27,2.2.21.21,0,0,0,.39.11,6.82,6.82,0,0,0,.52-1.09c.17-.36.36-.72.56-1.07C114,91.16,113.85,91.05,113.74,91.14Z"/><path class="cls-21" d="M96.69,101.93a1.75,1.75,0,0,0-1.24.2,2,2,0,0,0-1,.84.17.17,0,0,0,.23.23,8.3,8.3,0,0,1,1-.54c.33-.12.7-.12,1-.27S96.87,102,96.69,101.93Z"/><path class="cls-21" d="M99.54,85.46a1.75,1.75,0,0,0-1.24.19,2,2,0,0,0-1,.84.17.17,0,0,0,.23.23,7.64,7.64,0,0,1,1-.54,8.32,8.32,0,0,0,1-.27C99.81,85.81,99.72,85.53,99.54,85.46Z"/><path class="cls-21" d="M97,105.86a7.18,7.18,0,0,0-.39-.72c-.14-.29-.16-.6-.27-.89a.18.18,0,0,0-.34,0,1.65,1.65,0,0,0,.71,1.83C96.8,106.14,97,106,97,105.86Z"/><path class="cls-21" d="M115.77,104.75c0-.11-.24-.15-.27,0a5.23,5.23,0,0,1-.24,1.11c-.14.36-.43.64-.58,1-.06.14,0,.37.23.3A2,2,0,0,0,115.77,104.75Z"/><path class="cls-21" d="M116.05,108.87a11.82,11.82,0,0,1-1.32.14,6,6,0,0,0-1.2,0,.15.15,0,0,0,0,.27,2.63,2.63,0,0,0,2.61-.23C116.19,109,116.17,108.86,116.05,108.87Z"/><path class="cls-21" d="M129.22,87.44a11.4,11.4,0,0,1-1.31.14,5.34,5.34,0,0,0-1.2,0,.14.14,0,0,0,0,.26,2.66,2.66,0,0,0,2.61-.22C129.37,87.6,129.34,87.43,129.22,87.44Z"/><path class="cls-21" d="M106.16,83.51c-.44,0-.88.12-1.32.13a6,6,0,0,0-1.2,0,.15.15,0,0,0,0,.27,2.66,2.66,0,0,0,2.61-.23C106.3,83.66,106.28,83.49,106.16,83.51Z"/><path class="cls-21" d="M118.65,113.07c-.35-.23-.74-.38-1.08-.61a4,4,0,0,1-.95-1,.14.14,0,0,0-.25.11,2.23,2.23,0,0,0,2.24,1.75C118.75,113.32,118.74,113.13,118.65,113.07Z"/><path class="cls-26" d="M51.55,172.29a3.49,3.49,0,0,0-2.91,1.89v1.42a7.21,7.21,0,0,1,6.49-.27l.16.1V174A5.55,5.55,0,0,0,51.55,172.29Z"/><path class="cls-27" d="M53.42,158.09l-7.5-4.34a7.23,7.23,0,0,1-6.47.26l-1.38.79.26.15c.24.14.21.39-.07.55a1.07,1.07,0,0,1-.95,0l-.25-.15-1.28.74.25.14c.25.14.22.39-.07.55a1.06,1.06,0,0,1-1,0l-.25-.14-1.27.73.25.15c.24.14.21.38-.07.55a1,1,0,0,1-1,0l-.25-.14-1.28.74.26.14c.24.14.21.39-.07.55a1.16,1.16,0,0,1-.73.12l-.15-.87H28.83v1.42a1.75,1.75,0,0,1,1,2.33H28.36v1.42L48.64,175.6v-1.42a3.49,3.49,0,0,1,2.91-1.89,4.24,4.24,0,0,1,1.87.4Z"/><path class="cls-26" d="M66.19,165.46V164l-1.74.41-10.41-6V173a6.21,6.21,0,0,1,1.25,1v1.41l1.36-.78-.46-.26c-.24-.14-.21-.39.07-.55a1,1,0,0,1,1,0l.46.26,1.27-.73-.45-.27c-.25-.14-.22-.39.06-.55a1.09,1.09,0,0,1,1,0l.45.27,1.28-.74-.46-.26c-.24-.14-.21-.39.07-.55a1.07,1.07,0,0,1,.95,0l.46.26,1.27-.73-.46-.27c-.24-.14-.21-.38.07-.55a1.07,1.07,0,0,1,1,0l.46.27,1.39-.8-.19-.1C64.1,168.24,64.3,166.57,66.19,165.46Z"/><rect class="cls-27" x="31.19" y="157.36" width="1.47" height="2.29"/><rect class="cls-27" x="33.49" y="156.03" width="1.47" height="2.29"/><rect class="cls-27" x="35.78" y="154.71" width="1.47" height="2.29"/><rect class="cls-27" x="38.08" y="153.38" width="1.47" height="2.29"/><path class="cls-28" d="M60.78,170.32c-.24-.14-.21-.39.07-.55a1.07,1.07,0,0,1,.95,0l.46.27,1.27-.74-.46-.27c-.24-.14-.21-.38.07-.54a1,1,0,0,1,1,0l.46.26,1.39-.8-.19-.09c-1.65-1-1.45-2.63.44-3.74l-20.27-11.7a7.23,7.23,0,0,1-6.47.25l-1.38.79.26.15c.24.14.21.39-.07.55a1.07,1.07,0,0,1-.95,0l-.25-.15-1.28.74.25.14c.25.14.22.39-.07.55a1,1,0,0,1-1,0l-.25-.14-1.27.73.25.15c.24.14.21.39-.07.55a1.07,1.07,0,0,1-1,0l-.25-.15-1.28.74.26.14c.24.14.21.39-.07.55a1.07,1.07,0,0,1-.95,0l-.26-.14-1.34.77c1.66,1,1.45,2.64-.47,3.75l20.28,11.71a7.21,7.21,0,0,1,6.49-.27.91.91,0,0,1,.16.11l1.36-.79-.46-.26c-.24-.14-.21-.39.07-.55a1.07,1.07,0,0,1,1,0l.46.26,1.27-.73-.45-.27c-.25-.14-.22-.38.06-.55a1.09,1.09,0,0,1,1,0l.45.27,1.28-.74Z"/><polygon class="cls-29" points="57.43 164.39 45.49 157.49 48.81 155.57 60.76 162.47 57.43 164.39"/><polygon class="cls-12" points="48.79 172.41 31.6 162.48 32.45 162 49.64 171.92 48.79 172.41"/><polygon class="cls-12" points="50.61 171.36 33.42 161.44 34.26 160.95 51.45 170.87 50.61 171.36"/><path class="cls-29" d="M41.25,159.45a1.41,1.41,0,0,0-.3-.24A1.84,1.84,0,0,0,40,159a2,2,0,0,0-1.07.29c-.27.15-.42.32-.44.51s.09.35.34.49a1.68,1.68,0,0,0,.61.2l-.52.2-.52.22a3.13,3.13,0,0,1-.85-.35,1.23,1.23,0,0,1-.75-1.15c0-.5.42-1,1.15-1.38a4.83,4.83,0,0,1,2.16-.63,4,4,0,0,1,2.22.53,3,3,0,0,1,.64.43Z"/><path class="cls-29" d="M45.07,159.53l-2.49,1.32L40.42,162,39,161.21l4.31-2.7Z"/><path class="cls-29" d="M48.39,161.45l-2.16,1.13c-.75.4-1.6.87-2.55,1.4,0-.25-.06-.61-.11-1.1,0-.21-.1-.51-.17-.92l-1.57.88-.82-.47c.38-.24,1.1-.68,2.15-1.35.84-.53,1.55-1,2.12-1.37l1.27.73-.09,1.14c.24-.14.42-.24.55-.33s.26-.16.44-.29Z"/><path class="cls-29" d="M51.26,163.1l-2,1a3.79,3.79,0,0,0-.35-.27l-.43-.29-.6.3.93.52-.5.18-.47.2s-.14-.12-.32-.24a4.11,4.11,0,0,0-.4-.24l-.67.36c.13.08.37.2.73.39l.39.14-.53.19-.53.21-2.27-1.3,2.22-1.37q.77-.46,2.1-1.32Z"/><path class="cls-29" d="M55.57,165.59c-.44.22-1.22.63-2.35,1.23-.69.37-1.45.8-2.3,1.27l-.92-.53,1.35-.81-2.37.34.5-1.4-1.39.77-.91-.53,2.2-1.34c.59-.37,1.29-.82,2.1-1.36l1.45.83-.43.55q-.2.28-.42.69c.21,0,.62-.12,1.22-.24l.94-.24Z"/><path class="cls-29" d="M54.38,170.09l-1.38-.8.29-.28-.47-.06a5.53,5.53,0,0,0-.63,0l.21-.28a2.59,2.59,0,0,0,.17-.25l-.7.25-.73-.42L54,167.13c.88-.35,1.7-.68,2.46-1L58,167c-.26.21-.84.69-1.75,1.46Zm-.64-1.48c.08-.07.19-.2.35-.38a3.87,3.87,0,0,0,.33-.42l-.73.22-.77.25.38.18Z"/><path class="cls-12" d="M51.4,157.79l-.9.48-.13-.1-.19-.12-.42.21-.92.49-.58-.34.84-.52.38-.25-.2-.1-.19-.09.83-.51Z"/><path class="cls-12" d="M52.29,158.31l-1.16.62-1,.55-.67-.38,2-1.27Z"/><path class="cls-12" d="M52.87,159.64a.42.42,0,0,0-.14-.11.79.79,0,0,0-.43-.11.91.91,0,0,0-.5.13q-.19.12-.21.24c0,.09,0,.17.16.23a.62.62,0,0,0,.29.09l-.25.1-.24.1a1.45,1.45,0,0,1-.4-.16.58.58,0,0,1-.35-.54c0-.23.2-.45.54-.65a2.11,2.11,0,0,1,1-.29,1.88,1.88,0,0,1,1,.24,1.26,1.26,0,0,1,.29.21Z"/><path class="cls-12" d="M55.46,160.26l-.86.19-1,.2a2.11,2.11,0,0,0-.06.26,1.73,1.73,0,0,0,0,.36l-.39-.08-.44-.07a2.07,2.07,0,0,1,.11-.28l.14-.26h0l-.48.27-.66-.38,1.06-.66,1-.61.82.48-1,.5h0l.7-.22.56-.19.25.25Z"/><path class="cls-12" d="M56.86,161l-.92.47-.16-.13-.2-.13-.28.14.43.24-.23.09-.22.09-.15-.11-.19-.12-.32.17.35.18.18.07-.25.09-.25.1-1.06-.61,1-.64,1-.63Z"/><path class="cls-12" d="M58.42,161.84l-.9.48-.13-.1-.2-.12-.41.21-.93.49-.57-.34.83-.52.38-.25-.2-.1-.19-.09.84-.51Z"/><polygon class="cls-27" points="56.65 173.23 56.65 174.65 55.29 175.43 55.29 174.02 56.65 173.23"/><polygon class="cls-27" points="57.67 174.06 57.67 172.64 58.95 171.91 58.95 173.33 57.67 174.06"/><polygon class="cls-27" points="59.96 171.32 59.96 172.74 61.24 172 61.24 170.58 59.96 171.32"/><polygon class="cls-27" points="62.26 170 62.26 171.41 63.53 170.68 63.53 169.26 62.26 170"/><polygon class="cls-27" points="64.55 168.67 64.55 170.09 65.94 169.29 65.94 167.87 64.55 168.67"/><path class="cls-30" d="M24.09,172.25A3.49,3.49,0,0,1,27,174.14v1.41a7.18,7.18,0,0,0-6.49-.26l-.17.1V174A5.57,5.57,0,0,1,24.09,172.25Z"/><path class="cls-18" d="M22.22,158l7.5-4.33a7.23,7.23,0,0,0,6.47.26l1.37.79-.25.15c-.24.14-.21.38.07.54a1,1,0,0,0,.95,0l.25-.14,1.28.73-.26.15c-.24.14-.21.39.07.55a1.07,1.07,0,0,0,.95,0l.26-.15,1.27.74-.25.14c-.24.14-.21.39.07.55a1.06,1.06,0,0,0,1,0l.25-.14,1.27.73-.25.15c-.24.14-.21.39.07.55a1.09,1.09,0,0,0,.73.11l.15-.86h1.67v1.42a1.75,1.75,0,0,0-1,2.33h1.43v1.42L27,175.55v-1.41a3.49,3.49,0,0,0-2.91-1.89,4.1,4.1,0,0,0-1.87.4Z"/><path class="cls-30" d="M9.44,165.42V164l1.75.41,10.41-6V173a6.67,6.67,0,0,0-1.26,1v1.42L19,174.61l.45-.27c.25-.14.22-.38-.06-.55a1.07,1.07,0,0,0-.95,0L18,174l-1.28-.74.46-.26c.24-.14.21-.39-.07-.55a1.07,1.07,0,0,0-.95,0l-.46.26L14.4,172l.46-.27c.24-.14.21-.38-.07-.54a1,1,0,0,0-.95,0l-.46.26-1.27-.74.45-.26c.25-.14.22-.39-.06-.55a1.09,1.09,0,0,0-1,0l-.45.27-1.39-.8c.06,0,.13-.06.18-.1C11.54,168.2,11.34,166.53,9.44,165.42Z"/><rect class="cls-18" x="42.98" y="157.31" width="1.47" height="2.29" transform="translate(87.42 316.92) rotate(180)"/><rect class="cls-18" x="40.68" y="155.99" width="1.47" height="2.29" transform="translate(82.82 314.27) rotate(180)"/><rect class="cls-18" x="38.38" y="154.66" width="1.47" height="2.29" transform="translate(78.24 311.62) rotate(180)"/><rect class="cls-18" x="36.09" y="153.34" width="1.47" height="2.29" transform="translate(73.65 308.97) rotate(180)"/><path class="cls-31" d="M14.86,170.28c.24-.14.21-.39-.07-.55a1.07,1.07,0,0,0-.95,0l-.46.26-1.27-.73.45-.27c.25-.14.22-.38-.06-.55a1.09,1.09,0,0,0-1,0l-.45.27-1.39-.8a1,1,0,0,0,.18-.1c1.66-.95,1.46-2.62-.44-3.73l20.28-11.71a7.23,7.23,0,0,0,6.47.26l1.37.79-.25.15c-.24.14-.21.38.07.55a1.07,1.07,0,0,0,.95,0l.25-.15,1.28.74-.26.14c-.24.14-.21.39.07.55a1.07,1.07,0,0,0,.95,0l.26-.15,1.27.74-.25.15c-.24.14-.21.38.07.55a1.06,1.06,0,0,0,1,0l.25-.14,1.27.73-.25.15c-.24.14-.21.39.07.55a1.07,1.07,0,0,0,1,0l.25-.15,1.35.78c-1.66,1-1.46,2.64.47,3.75L27,174.14a7.21,7.21,0,0,0-6.49-.27l-.17.1L19,173.19l.45-.26c.25-.15.22-.39-.06-.55a1,1,0,0,0-.95,0l-.46.26-1.28-.73.46-.27c.24-.14.21-.39-.07-.55a1.07,1.07,0,0,0-.95,0l-.46.27-1.27-.74Z"/><polygon class="cls-29" points="18.2 164.35 30.15 157.45 26.82 155.53 14.88 162.43 18.2 164.35"/><polygon class="cls-12" points="26.84 172.37 44.03 162.44 43.19 161.95 26 171.88 26.84 172.37"/><polygon class="cls-12" points="25.03 171.32 42.22 161.39 41.38 160.9 24.18 170.83 25.03 171.32"/><path class="cls-29" d="M21.69,166.63a2.34,2.34,0,0,0-.41.18c-.27.16-.41.33-.41.52s.16.42.5.62a1.83,1.83,0,0,0,.89.25,1.47,1.47,0,0,0,.85-.19.7.7,0,0,0,.34-.36l.35.31.38.29a1.88,1.88,0,0,1-.6.5,3.75,3.75,0,0,1-2,.43,4.89,4.89,0,0,1-2.38-.66c-.67-.39-1-.81-1.09-1.25s.24-.9.9-1.28a4.18,4.18,0,0,1,.76-.37Z"/><path class="cls-29" d="M21.83,164.43l2.28,1.43,2,1.26-1.42.82-4.66-2.5Z"/><path class="cls-29" d="M25.14,162.51l2,1.25c.69.43,1.5.92,2.42,1.47l-1.91.07-1.58.09,1.52.91-.81.47-2.34-1.24L22,164.31l1.27-.73,2,0c-.23-.14-.42-.25-.56-.32l-.5-.26Z"/><path class="cls-29" d="M28,160.86,29.75,162l-.46.2c-.16.07-.32.15-.5.25l.52.34c.19-.1.49-.28.9-.53l.31.28a3.89,3.89,0,0,0,.35.28l-.42.18-.41.23.63.39.66-.42a1.57,1.57,0,0,0,.24-.23l.35.31.36.31L30,164.89l-2.36-1.29-2.3-1.21Z"/><path class="cls-29" d="M32.32,158.37l2.14,1.35c.64.4,1.37.84,2.19,1.33l-.91.53-1.4-.78.59,1.37-2.44-.29,1.34.8-.91.53-2.33-1.27c-.64-.34-1.42-.74-2.36-1.21l1.45-.84.95.25c.32.08.72.16,1.19.24-.06-.12-.2-.35-.42-.71l-.4-.54Z"/><path class="cls-29" d="M40.12,159.05l-1.39.8-.48-.17a2.65,2.65,0,0,0-.11.27,1.31,1.31,0,0,0,0,.37l-.5-.13-.42-.09.43.4-.74.42c-.37-.34-1-.89-1.88-1.66-.6-.51-1.19-1-1.76-1.42l1.52-.88c.36.15,1.2.49,2.53,1Zm-2.56.37-.66-.2-.73-.19.38.42c.1.12.25.26.44.45l.31-.22A1.6,1.6,0,0,0,37.56,159.42Z"/><path class="cls-12" d="M18.82,160.78l.82.51-.17.08-.21.11.37.24.84.53-.58.34-.9-.49-.43-.21-.18.11-.15.11-.89-.48Z"/><path class="cls-12" d="M19.71,160.26l1.08.67.95.59-.67.38-2.18-1.17Z"/><path class="cls-12" d="M22,159.93a.6.6,0,0,0-.19.08c-.12.07-.19.15-.19.24s.07.2.24.3a.81.81,0,0,0,.41.11.64.64,0,0,0,.4-.09.33.33,0,0,0,.16-.17l.17.15.17.14a.87.87,0,0,1-.28.23,1.79,1.79,0,0,1-.94.2,2.26,2.26,0,0,1-1.11-.31c-.32-.18-.49-.38-.52-.58s.12-.43.43-.61a2.1,2.1,0,0,1,.35-.17Z"/><path class="cls-12" d="M23.09,158.43l.32.5c.1.14.22.32.36.56l.45,0,.62,0-.13.22c0,.06-.08.15-.14.26l-.48-.07-.44-.08h0l.46.28-.66.38-1.13-.61c-.25-.13-.6-.32-1.07-.55l.83-.48.88.56h0l-.38-.41-.32-.32.42-.14Z"/><path class="cls-12" d="M24.28,157.62l.82.53-.22.09-.24.12.25.16a4.36,4.36,0,0,0,.42-.25,1.12,1.12,0,0,0,.15.14l.16.13-.2.08-.19.11.29.18.31-.2.12-.1.16.14.17.15-1.06.61-1.11-.6L23,158.34Z"/><path class="cls-12" d="M25.83,156.72l.83.52-.17.08-.21.11.36.24.84.53-.57.34-.91-.49-.42-.21-.18.11-.15.11-.9-.48Z"/><polygon class="cls-18" points="18.99 173.19 18.99 174.61 20.34 175.39 20.34 173.97 18.99 173.19"/><polygon class="cls-18" points="17.97 174.02 17.97 172.6 16.69 171.87 16.69 173.28 17.97 174.02"/><polygon class="cls-18" points="15.67 171.28 15.67 172.69 14.4 171.96 14.4 170.54 15.67 171.28"/><polygon class="cls-18" points="13.38 169.95 13.38 171.37 12.11 170.63 12.11 169.22 13.38 169.95"/><polygon class="cls-18" points="11.09 168.63 11.09 170.05 9.7 169.25 9.7 167.83 11.09 168.63"/><path class="cls-23" d="M38.52,34.59a3.15,3.15,0,0,0-3.24.2l-6.58,3.8v1.58L36,36a2.5,2.5,0,0,1,1.2-.38,1.28,1.28,0,0,1,.67.18,2.89,2.89,0,0,1,1,2.57v17c0,2.61-1.63,5.77-3.57,6.88L28.7,66v1.58L36,63.42c2.34-1.36,4.25-5,4.25-8.07v-17A4.12,4.12,0,0,0,38.52,34.59Z"/><path class="cls-23" d="M28.7,66l3.88,2.26a71.25,71.25,0,0,0,7.17-3.63c1.16-.91,3.38-4.21,3.55-5.63s0-20.16,0-20.16L41.48,37l-2,.29S39.26,49.43,39.31,51s.11,7.67-1,9.15a18.3,18.3,0,0,1-4.66,3.94C32.77,64.5,28.7,66,28.7,66Z"/><polygon class="cls-23" points="42.02 36.66 38.52 34.59 33.96 36.49 28.7 38.59 32.58 40.85 39.75 37.19 42.02 36.66"/><path class="cls-20" d="M42.41,36.85a3.15,3.15,0,0,0-3.24.2l-6.59,3.8v1.58l7.27-4.2a2.56,2.56,0,0,1,1.2-.37,1.34,1.34,0,0,1,.67.17,2.9,2.9,0,0,1,1,2.57v17c0,2.62-1.64,5.77-3.57,6.89l-6.59,3.8v1.58l7.27-4.2c2.35-1.35,4.26-5,4.26-8.07v-17A4.12,4.12,0,0,0,42.41,36.85Z"/><path class="cls-18" d="M49.65,97.18c0-.09,0-.17,0-.26-.23-12.65-16.32-62.7-16.32-62.7H26.1c.44,8.81,2.41,49.07,2.41,54.89,0,4.67,0,15.47,0,21.28a35.46,35.46,0,0,0,11.71-2.57c6.16-2.6,9.42-6.58,9.46-10.62h0Z"/><path class="cls-18" d="M22.09,34.22H18.66S2.53,84.39,2.34,97v.22h0c.05,2.63,1.48,5.28,4.35,7.58A146.18,146.18,0,0,1,9,86.72C10.93,76.9,19.49,44.12,22.09,34.22Z"/><path class="cls-18" d="M26.1,34.22h-4C19.49,44.12,10.93,76.9,9,86.72a146.18,146.18,0,0,0-2.28,18.06l.38.31c5.18,3.91,13.4,5.76,21.41,5.3,0-5.81,0-16.61,0-21.28C28.51,83.29,26.54,43,26.1,34.22Z"/><path class="cls-20" d="M26.1,34.22h-4C19.49,44.12,10.93,76.9,9,86.72a146.18,146.18,0,0,0-2.28,18.06l.38.31c5.18,3.91,13.4,5.76,21.41,5.3,0-5.81,0-16.61,0-21.28C28.51,83.29,26.54,43,26.1,34.22Z"/><path class="cls-23" d="M37.25,20.42l-22.49.08,3.66,13.69v.05h0a3.76,3.76,0,0,0,1.44,1.94c2.55,1.92,7.36,2.32,10.75.88,1.81-.76,2.84-1.88,3-3.06Z"/><path class="cls-20" d="M35,16.2c-3.73-2.82-10.78-3.4-15.76-1.3S13.28,21,17,23.81s10.79,3.4,15.76,1.3S38.75,19,35,16.2Z"/><path class="cls-18" d="M33.28,16.7c-3-2.28-8.73-2.75-12.75-1a6.07,6.07,0,0,0-3.35,2.83c2.18-1.72,5.58-2,8.2-1.48,3.45.73,5.35,3.71,6,7l.11-.05C35.48,22.21,36.29,19,33.28,16.7Z"/><path class="cls-18" d="M25.38,17c-2.62-.56-6-.24-8.2,1.48-.66,1.46-.2,3.07,1.53,4.37,3,2.26,8.62,2.74,12.63,1.1C30.73,20.71,28.83,17.73,25.38,17Z"/><path class="cls-32" d="M25.38,17c-2.62-.56-6-.24-8.2,1.48-.66,1.46-.2,3.07,1.53,4.37,3,2.26,8.62,2.74,12.63,1.1C30.73,20.71,28.83,17.73,25.38,17Z"/><path class="cls-33" d="M18.55,69.42a1.48,1.48,0,0,0-2.94-.35c-.12.72-3.92,19-5.17,27-.38,2.46-1.06,5.64.78,7.72a6.2,6.2,0,0,0,3.4,2.07c1.83.58,5.75.62,5.4-3.31-.17-1.9-.21-7.71-.58-14.65C18.89,77.58,18.62,70.62,18.55,69.42Z"/><path class="cls-12" d="M16.67,97.3c-.1-4.19-.32-8.29-2.44-7.71-.57.16-1.46,3.65-2,7.07-.42,2.52-.8,5,0,6.08a2.9,2.9,0,0,0,3.6.69C17.21,102.47,16.71,98.69,16.67,97.3Z"/><path class="cls-23" d="M39.72,68.27a12.47,12.47,0,0,1-.61,1.14,4.44,4.44,0,0,0-.58,1.07c-.06.24.22.49.44.34a4.28,4.28,0,0,0,1.24-2.34C40.29,68.19,39.85,68,39.72,68.27Z"/><path class="cls-23" d="M42.82,72.4a5.51,5.51,0,0,0-1.4-.27c-.52-.1-1-.27-1.52-.41-.17,0-.35.2-.19.33.75.59,2.18,1.2,3.11.77A.24.24,0,0,0,42.82,72.4Z"/><path class="cls-23" d="M48.07,95.36a.18.18,0,0,0-.32,0,5.09,5.09,0,0,0-.31,1.16,4.17,4.17,0,0,0-.35,1.19.25.25,0,0,0,.37.21,1.93,1.93,0,0,0,.63-1.22A2.19,2.19,0,0,0,48.07,95.36Z"/><path class="cls-23" d="M46.18,100.39a4.79,4.79,0,0,0-.87-.67,4,4,0,0,1-.81-.87.25.25,0,0,0-.45.19c.25.82,1.06,1.92,2,1.74A.24.24,0,0,0,46.18,100.39Z"/><path class="cls-23" d="M47.09,89.9c-.5-.74-2-.31-2.51.29a.14.14,0,0,0,.09.23c.41,0,.81-.09,1.22-.09s.75.16,1.1,0A.29.29,0,0,0,47.09,89.9Z"/><path class="cls-23" d="M45.42,85.78a.27.27,0,0,0-.26.44,7,7,0,0,1,.72.72,5.44,5.44,0,0,0,.61.8.29.29,0,0,0,.5-.2C47,86.73,46.13,86,45.42,85.78Z"/><path class="cls-23" d="M42,103a7,7,0,0,1-1.41,1.52A10.26,10.26,0,0,0,39,105.64a.24.24,0,0,0,.17.4,2.93,2.93,0,0,0,1.84-1,5.69,5.69,0,0,0,1.33-1.88A.22.22,0,0,0,42,103Z"/><path class="cls-23" d="M36,105.7a9.7,9.7,0,0,0-.94-1.08.21.21,0,0,0-.33.26,9.59,9.59,0,0,0,.71,1.25,2.56,2.56,0,0,0,.78,1,.31.31,0,0,0,.45-.35A2.62,2.62,0,0,0,36,105.7Z"/><path class="cls-23" d="M32.06,106.72a7.56,7.56,0,0,0-1.19.92,4.3,4.3,0,0,0-1,.8.14.14,0,0,0,.08.21,1.93,1.93,0,0,0,1.46-.45,2.05,2.05,0,0,0,1-1.23A.22.22,0,0,0,32.06,106.72Z"/><path class="cls-23" d="M34,40.92a.15.15,0,0,0-.27,0c-.1.63-.07,1.28-.15,1.91a8.56,8.56,0,0,0-.32,1.92.22.22,0,0,0,.36.15C34.47,44.08,34.46,42,34,40.92Z"/><path class="cls-23" d="M33.57,47.39c-.28-.67-.94-1.15-1.29-1.79a.24.24,0,0,0-.43.18c.21.75.55,1.7,1.37,2A.28.28,0,0,0,33.57,47.39Z"/><path class="cls-23" d="M39.47,62.54a.14.14,0,0,0-.26.07c0,.59.14,1.17.14,1.76a17.61,17.61,0,0,0,0,1.78c0,.19.29.31.4.11A4,4,0,0,0,39.47,62.54Z"/><path class="cls-34" d="M84.83,123.47c-6.1-4.14-11.58-8-15.43-10.27s-15.49-7.83-15.49-7.83-7.57,5.34-9.91,6.7c-1.74,1-4.09,2.17-6.7,3.42L15.21,113v3.2a3.45,3.45,0,0,0,1.25,1.18c-.34.41-1.25,0-1.25,0V123s.64.55,1.38,1.11a1.36,1.36,0,0,1-1.38,0v3.6s7.27,5.27,16,10.31c11,6.38,24.65,11.87,31.24,15.67,3.74,2.16,14.94,9.92,14.94,9.92-.56-2.63-.11-7.28,0-9.58s0-5.1,0-5.1Z"/><path class="cls-4" d="M116.81,128.37v-3.19l-22.32,2.48-.14,2c-3.24-2-6.46-4.15-9.52-6.23l-7.44,25.46s.12,2.79,0,5.1-.56,6.95,0,9.58c0,0,4.47-3.23,9.68-6.24,7.33-4.23,16.41-7.39,20.91-10,1.93-1.11,8.46-7.19,8.8-7.51h0v-3.61a1.34,1.34,0,0,1-1.37,0c.74-.56,1.37-1.11,1.37-1.11v-5.56s-.9.38-1.24,0A3.37,3.37,0,0,0,116.81,128.37Z"/><path class="cls-13" d="M77.39,148.93s4.47-3.23,9.68-6.24c7.33-4.23,16.41-7.39,20.91-10,2-1.13,8.83-7.54,8.83-7.54a88.21,88.21,0,0,1-18.47-7.74C87.3,111,76,102.31,69.4,98.52c-3.71-2.14-15.49-7.83-15.49-7.83S46.34,96,44,97.39c-5.27,3-16.18,7.6-23,11.53a52.19,52.19,0,0,0-5.8,4.11s7.27,5.27,16,10.31c11,6.38,24.65,11.87,31.24,15.67C66.19,141.17,77.39,148.93,77.39,148.93Z"/><path class="cls-22" d="M106.38,135.45a119.33,119.33,0,0,0-13.44,6.7c-4.32,2.35-8.9,4.73-12.65,8-.07.06,0,.17.1.13,4.38-2.34,8.52-5.14,12.91-7.49s9-4.28,13.27-6.86C106.79,135.75,106.65,135.34,106.38,135.45Z"/><path class="cls-22" d="M113.44,135.3a66.8,66.8,0,0,1-9.69,6.18c-3.43,1.65-7.18,2.6-10.47,4.55-.39.23,0,.79.35.6,3.54-1.74,7.36-2.82,10.88-4.59a44,44,0,0,0,9-6.61C113.61,135.37,113.52,135.25,113.44,135.3Z"/><path class="cls-22" d="M101.8,147.51A68.47,68.47,0,0,0,91.18,152c-3.35,1.62-7.15,3.23-10.05,5.61-.17.14,0,.48.23.39,3.39-1.4,6.53-3.6,9.81-5.27,3.51-1.8,7.18-3.26,10.67-5.06A.06.06,0,0,0,101.8,147.51Z"/><path class="cls-22" d="M96.46,146.53a8.55,8.55,0,0,0-3.06,1.24,35.08,35.08,0,0,0-3.73,2c-.24.16-.1.6.2.49a32.84,32.84,0,0,0,3.43-1.66,10,10,0,0,0,3.2-2S96.51,146.52,96.46,146.53Z"/><path class="cls-4" d="M38.34,129.38c-3.52-1.89-7.16-3.51-10.63-5.51s-6.63-4.46-10.11-6.39a.06.06,0,0,0-.07.09c2.81,2.79,6.45,4.89,9.85,6.87a56.93,56.93,0,0,0,10.84,5.22A.16.16,0,0,0,38.34,129.38Z"/><path class="cls-4" d="M43.22,132.83a126.05,126.05,0,0,0-12.89-4.63,0,0,0,0,0,0,0,56.93,56.93,0,0,0,12.79,5A.2.2,0,0,0,43.22,132.83Z"/><path class="cls-4" d="M74.59,158.37c-3.19-3-7.22-5.23-11-7.34a73.42,73.42,0,0,0-12-5.58.1.1,0,0,0-.07.18c4.11,1.9,8.23,3.71,12.18,5.93,3.76,2.1,7.19,4.69,10.9,6.84C74.58,158.41,74.61,158.39,74.59,158.37Z"/><path class="cls-4" d="M63.41,148a60.82,60.82,0,0,0-14.92-5.4c-.11,0-.14.12,0,.17,4.83,2,9.82,4,14.81,5.58A.19.19,0,0,0,63.41,148Z"/><path class="cls-4" d="M71.47,147.76c-2.82-2.83-7-4.83-10.58-6.45,0,0-.07,0,0,.05,1.78,1,3.55,2.11,5.29,3.22s3.38,2.41,5.21,3.33A.1.1,0,0,0,71.47,147.76Z"/><path class="cls-29" d="M41.38,116a1.47,1.47,0,0,0-.33.13.23.23,0,0,0-.13.18q0,.14.18.24a3.06,3.06,0,0,0,.76.19,2.87,2.87,0,0,1,1,.3c.33.18.49.4.48.64a.75.75,0,0,1-.45.62,3.36,3.36,0,0,1-.68.31l-.52-.21-.54-.19.46-.17c.25-.15.26-.28,0-.41a1.27,1.27,0,0,0-.58-.16H40a3.25,3.25,0,0,1-1.65-.39c-.47-.27-.67-.57-.61-.88s.3-.54.74-.8a5.43,5.43,0,0,1,1-.41Z"/><path class="cls-29" d="M44.44,114.23a1.43,1.43,0,0,0-.41.18c-.27.15-.41.33-.41.52s.16.42.51.62a1.8,1.8,0,0,0,.89.25,1.59,1.59,0,0,0,.85-.19.71.71,0,0,0,.33-.36l.36.31.37.29a1.67,1.67,0,0,1-.6.49,3.71,3.71,0,0,1-2,.44,5,5,0,0,1-2.39-.67c-.67-.38-1-.8-1.09-1.24s.24-.9.9-1.29a4,4,0,0,1,.76-.36Z"/><path class="cls-29" d="M45.48,111.5l1.75,1.13-.47.2-.5.25.52.35c.2-.11.5-.28.9-.54,0,.06.16.15.31.29l.35.27a4,4,0,0,0-.42.19,4.19,4.19,0,0,0-.41.23l.63.39.66-.43a1.83,1.83,0,0,0,.25-.22l.34.3c.09.09.22.19.36.31l-2.26,1.31-2.37-1.28c-.54-.29-1.31-.7-2.3-1.21Z"/><path class="cls-29" d="M48.81,109.58l2,1.24c.69.44,1.5.93,2.43,1.48l-1.91.06-1.59.1,1.52.91-.81.47-2.34-1.24c-.93-.49-1.72-.9-2.38-1.23l1.27-.73,2,0-.57-.31-.5-.26Z"/><path class="cls-29" d="M56.62,110.26l-1.39.8-.48-.17-.12.27a1.35,1.35,0,0,0,0,.37l-.5-.12-.42-.1.43.4-.74.43c-.37-.35-1-.9-1.88-1.67-.6-.51-1.19-1-1.76-1.42l1.52-.88c.35.15,1.19.49,2.53,1Zm-2.56.37-.66-.2-.73-.19.37.42a6.24,6.24,0,0,0,.45.45l.3-.22A3.25,3.25,0,0,0,54.06,110.63Z"/><path class="cls-29" d="M57.3,106.62a1.49,1.49,0,0,1,.69.7.66.66,0,0,1-.06.64l.92.11c.23,0,.54,0,.95,0a4,4,0,0,0-.27.44q-.14.26-.24.48l-.87-.12c-.23,0-.6-.12-1.09-.24h0l1,.61-1.43.82-2.18-1.17c-.59-.32-1.42-.76-2.5-1.32a13.36,13.36,0,0,1,1.19-.78A3.69,3.69,0,0,1,57.3,106.62Zm-.52,1a.88.88,0,0,0-.6-.11,1.08,1.08,0,0,0-.45.17l1,.59A.57.57,0,0,0,57,108C57,107.88,57,107.76,56.78,107.65Z"/><path class="cls-29" d="M57.52,104.55,59.81,106l2,1.25-1.42.82-4.66-2.5Z"/><path class="cls-29" d="M63.28,103.71A2.68,2.68,0,0,1,64.56,105a.87.87,0,0,1-.49,1.15,3.13,3.13,0,0,1-2,.29,5.64,5.64,0,0,1-2.19-.74c-.74-.42-1.15-.85-1.24-1.29s.12-.75.63-1a3.12,3.12,0,0,1,1.8-.35A5.11,5.11,0,0,1,63.28,103.71Zm-.7,1c-.55-.31-1-.38-1.29-.19s-.2.42.35.74a2.77,2.77,0,0,0,.73.28.94.94,0,0,0,.66,0c.13-.08.14-.2,0-.39A1.41,1.41,0,0,0,62.58,104.71Z"/><path class="cls-19" d="M64.2,109.11a60.67,60.67,0,0,0-6.91,4.35c-2,1.3-4.47,2.5-6.07,4.28,0,0,0,.07,0,.06,2.39-.77,4.6-2.63,6.69-4a57.5,57.5,0,0,0,6.53-4.36C64.67,109.29,64.42,109,64.2,109.11Z"/><path class="cls-19" d="M67,110.41c-2.3,1.48-4.58,3-6.86,4.51A52,52,0,0,0,54,119.19c-.09.08,0,.26.13.2a53.1,53.1,0,0,0,6.36-3.9c2.3-1.49,4.6-3,6.87-4.5A.34.34,0,0,0,67,110.41Z"/><path class="cls-19" d="M79.81,110.71c-4.14,2.17-8.09,4.72-12.06,7.18a116.67,116.67,0,0,0-11.14,7.24c-.1.08,0,.23.14.17,4-2,7.85-4.64,11.7-7s7.84-4.63,11.61-7.16A.25.25,0,0,0,79.81,110.71Z"/><path class="cls-19" d="M81.87,112.62a43,43,0,0,0-10.22,6.93c-.19.16.06.49.27.35A114.39,114.39,0,0,0,82,112.84C82.18,112.73,82,112.55,81.87,112.62Z"/><path class="cls-35" d="M24.16,111.33c1.84-2.1,5.33-3.91,10.39-5.67A62.24,62.24,0,0,1,45,103.14s-5,4.55-8.12,7.15a45.57,45.57,0,0,1-7.92,4.9l2.32-5.43S25.64,111.17,24.16,111.33Z"/><path class="cls-35" d="M88.15,134.8s-9.78-1.15-14.4,0a35.53,35.53,0,0,0-7.39,2.62,44.39,44.39,0,0,0,9.7.45C80.41,137.45,88.15,134.8,88.15,134.8Z"/><path class="cls-36" d="M191.7,153.22l.15-.12-1.37-.76c-2.16-1-4.07-2.13-7.18-.34l-19.07,11c-2.75,1.59-3.57.11-6,1.53l-9.8,5.65v6l9.8-5.66c2.33-1.35,3.2-3.61,5.66-5.19l.46-.27,18.86-10.89c1.69-1,2.2.06,3.39,1.22.69.67,1.55,2.38,2.61,3l1,.57.22-.38a2.93,2.93,0,0,0,1.39-1.24A3.24,3.24,0,0,0,191.7,153.22Z"/><path class="cls-34" d="M191.47,152.9c-2.16-1-4.07-2.14-7.17-.34l-19.08,11c-2.75,1.59-3.57.11-6,1.52l-9.79,5.66v6l9.79-5.66c2.34-1.35,3.2-3.61,5.66-5.2l.47-.27,18.86-10.89c1.68-1,2.19.06,3.38,1.23s2.9,5.42,5.24,2A3.24,3.24,0,0,0,191.47,152.9Z"/><path class="cls-36" d="M154.51,131.82l.15-.12s-1.24-.69-1.38-.75c-2.15-1-4.06-2.14-7.17-.35l-19.07,11c-2.76,1.59-3.57.11-6,1.53l-9.8,5.65v6l9.8-5.66c2.33-1.34,3.19-3.61,5.66-5.19l.46-.27L146,132.81c1.68-1,2.2.06,3.39,1.22.68.68,1.55,2.39,2.61,3l1,.57.21-.38a2.9,2.9,0,0,0,1.4-1.24A3.25,3.25,0,0,0,154.51,131.82Z"/><path class="cls-34" d="M154.28,131.5c-2.16-1-4.07-2.14-7.18-.34l-19.07,11c-2.75,1.59-3.57.11-6,1.52l-9.8,5.66v6l9.8-5.66c2.34-1.35,3.2-3.61,5.66-5.2l.46-.26L147,133.37c1.68-1,2.19,0,3.38,1.22s2.9,5.42,5.24,2A3.25,3.25,0,0,0,154.28,131.5Z"/><path class="cls-4" d="M149.13,169l-17.25-10L129,157.39l-17.25-10c-.79-.45-1.43,0-1.43,1.09v5.62a5.68,5.68,0,0,0,1.71,3.9,49.31,49.31,0,0,0,5.37,4.4l9.28,5.36c1,.57,1.53-.39,1.72-1.31.38-1.93.66-3.92,2-3.18h0c1.37.84,1.64,3.15,2,5.52.18,1.13.73,2.72,1.72,3.29l9.28,5.36a26.87,26.87,0,0,0,5.36,1.79c1,.26,1.72-.53,1.72-1.91v-5.63A3.42,3.42,0,0,0,149.13,169Z"/><polygon class="cls-4" points="109.7 148 110.84 147.36 111.76 148.13 110.23 149.12 109.7 148"/><polygon class="cls-4" points="126.56 168.47 127.62 167.88 127.59 166.95 125.98 167.82 126.56 168.47"/><polygon class="cls-4" points="148.65 179.82 149.86 179.14 149.62 178.38 148.28 179.14 148.65 179.82"/><path class="cls-13" d="M148.06,169.6l-17.25-10L128,158,110.7,148c-.79-.46-1.44,0-1.44,1.08v5.63a5.6,5.6,0,0,0,1.72,3.89,49.61,49.61,0,0,0,5.36,4.41l9.28,5.36c1,.57,1.54-.39,1.72-1.31.39-1.93.67-3.92,2-3.18h0c1.37.83,1.65,3.14,2,5.52.19,1.13.73,2.72,1.72,3.29l9.28,5.36a27.64,27.64,0,0,0,5.37,1.79c1,.26,1.71-.54,1.71-1.92v-5.62A3.43,3.43,0,0,0,148.06,169.6Z"/><path class="cls-18" d="M124.31,157.58l-4.74-2.74-2.48,6.49,7.22,4.18c.68.39,1.23,0,1.23-.93v-4.65A2.93,2.93,0,0,0,124.31,157.58Z"/><path class="cls-18" d="M112,150.46c-.67-.39-1.22,0-1.22.93v3.32a3.89,3.89,0,0,0,.42,1.66l2-5.22Z"/><path class="cls-18" d="M117.27,153.51l-2.43,6.37c.36.28.69.53,1,.7l2.47-6.49Z"/><path class="cls-18" d="M113.17,151.15l-2,5.22a3.58,3.58,0,0,0,.81,1.11c.84.74,2,1.69,2.85,2.4l2.43-6.37Z"/><path class="cls-37" d="M113.17,151.15l-2,5.22a3.58,3.58,0,0,0,.81,1.11c.84.74,2,1.69,2.85,2.4l2.43-6.37Z"/><path class="cls-18" d="M118.27,154.09l-2.47,6.49.2.13,1.09.62,2.48-6.49Z"/><path class="cls-37" d="M118.27,154.09l-2.47,6.49.2.13,1.09.62,2.48-6.49Z"/><path class="cls-11" d="M134.05,163.2c-.68-.39-1.24,0-1.24.93v4.65a3,3,0,0,0,.25,1.12l2.28-6Z"/><path class="cls-11" d="M146.37,170.31,142,167.82l-2.48,6.49,2.79,1.61a22.66,22.66,0,0,0,4,1.41c.72.2,1.23-.36,1.23-1.35v-3.33A2.92,2.92,0,0,0,146.37,170.31Z"/><polygon class="cls-11" points="139.43 166.31 136.96 172.8 138.27 173.56 140.75 167.07 139.43 166.31"/><polygon class="cls-11" points="140.75 167.07 138.27 173.56 139.56 174.31 142.04 167.82 140.75 167.07"/><polygon class="cls-38" points="140.75 167.07 138.27 173.56 139.56 174.31 142.04 167.82 140.75 167.07"/><path class="cls-11" d="M135.34,164l-2.28,6a2.6,2.6,0,0,0,1,1.22L137,172.8l2.48-6.49Z"/><path class="cls-38" d="M135.34,164l-2.28,6a2.6,2.6,0,0,0,1,1.22L137,172.8l2.48-6.49Z"/><path class="cls-21" d="M190.71,157.86c-.1-.2-.36-.26-.51-.42a3,3,0,0,1-.37-.64s-.06,0-.08,0a.77.77,0,0,0,.1.88c.17.24.52.55.82.36A.13.13,0,0,0,190.71,157.86Z"/><path class="cls-21" d="M192,155.67c-.14.34-.42.59-.55.92-.06.15.12.24.24.19a1.8,1.8,0,0,0,.68-1C192.4,155.54,192,155.45,192,155.67Z"/><path class="cls-21" d="M161.93,167a3.51,3.51,0,0,0-.7.74,4.7,4.7,0,0,0-.61.87.12.12,0,0,0,.19.15,3.56,3.56,0,0,0,.7-.8,3,3,0,0,0,.5-.9A.06.06,0,0,0,161.93,167Z"/><path class="cls-21" d="M159.31,168.2a.07.07,0,0,0-.12.07,1.86,1.86,0,0,0,.52,1.13.1.1,0,0,0,.15-.06A1.41,1.41,0,0,0,159.31,168.2Z"/><path class="cls-21" d="M158.58,170.37c-.42.1-.82.28-1.23.4s-.85.17-1.26.32c-.07,0-.08.14,0,.16a3.58,3.58,0,0,0,2.62-.59C158.84,170.55,158.77,170.32,158.58,170.37Z"/><path class="cls-21" d="M153.49,136.45c-.11-.2-.37-.26-.52-.42a3.14,3.14,0,0,1-.37-.64s-.06,0-.08,0a.79.79,0,0,0,.1.89c.17.23.52.55.82.36A.16.16,0,0,0,153.49,136.45Z"/><path class="cls-21" d="M154.72,134.26c-.14.34-.42.6-.55.93-.06.14.13.23.24.18a1.81,1.81,0,0,0,.68-1C155.18,134.13,154.81,134,154.72,134.26Z"/><path class="cls-21" d="M124.71,145.61a3.16,3.16,0,0,0-.71.75,4.63,4.63,0,0,0-.61.86.12.12,0,0,0,.19.15,3.36,3.36,0,0,0,.7-.8,2.84,2.84,0,0,0,.5-.9S124.74,145.59,124.71,145.61Z"/><path class="cls-21" d="M122.08,146.79a.07.07,0,0,0-.12.07,1.83,1.83,0,0,0,.52,1.13.1.1,0,0,0,.15-.06A1.39,1.39,0,0,0,122.08,146.79Z"/><path class="cls-21" d="M121.36,149c-.42.1-.82.29-1.24.41s-.85.16-1.25.31c-.07,0-.09.14,0,.16a3.52,3.52,0,0,0,2.61-.59C121.62,149.15,121.54,148.91,121.36,149Z"/></g></g></svg>