<svg xmlns="http://www.w3.org/2000/svg" xmlns:xlink="http://www.w3.org/1999/xlink" viewBox="0 0 242.61 242.61"><defs><style>.cls-1{mask:url(#mask);filter:url(#luminosity-noclip-2);}.cls-2{mix-blend-mode:multiply;fill:url(#radial-gradient);}.cls-3{mask:url(#mask-2);}.cls-4,.cls-5{opacity:0.7;}.cls-4{fill:url(#radial-gradient-2);}.cls-6{fill:#00020e;}.cls-7{fill:#e247a3;}.cls-8{fill:#a7d0fc;}.cls-9{fill:#ffceb8;}.cls-10{fill:#f2b19e;}.cls-11{fill:#ffe0d2;}.cls-12{fill:#f9c0aa;}.cls-13{fill:#ffeee6;}.cls-14{fill:#ffdac7;}.cls-15{fill:#ff71b8;}.cls-16,.cls-39{fill:#fff;}.cls-17{fill:#deedff;}.cls-18{fill:#f25caf;}.cls-19{fill:#002551;}.cls-20{fill:#002e70;}.cls-21{fill:#cce1ff;}.cls-22{fill:#1273ff;}.cls-23{fill:#89c1f4;}.cls-24{fill:#318fff;}.cls-25{fill:#4fa6db;}.cls-26{fill:#70b5e8;}.cls-27{fill:#004ac3;}.cls-28{fill:#0041a0;}.cls-29{fill:#00377a;}.cls-30{fill:#ea821b;}.cls-31{fill:#ef8f26;}.cls-32{fill:#feb24e;}.cls-33{fill:#001232;}.cls-34{fill:#2789ff;}.cls-35{fill:#4da6ff;}.cls-36{fill:#0368e0;}.cls-37{fill:#5aadff;}.cls-38{fill:#c5dfff;}.cls-39{opacity:0.8;}.cls-40{fill:#92c6f4;}.cls-41{fill:#3b94ff;}.cls-42{fill:#ffc7d6;opacity:0.5;}.cls-43{filter:url(#luminosity-noclip);}</style><filter id="luminosity-noclip" x="0" y="-8313.55" width="242.61" height="32766" filterUnits="userSpaceOnUse" color-interpolation-filters="sRGB"><feFlood flood-color="#fff" result="bg"/><feBlend in="SourceGraphic" in2="bg"/></filter><mask id="mask" x="0" y="-8313.55" width="242.61" height="32766" maskUnits="userSpaceOnUse"><g class="cls-43"/></mask><radialGradient id="radial-gradient" cx="121.3" cy="121.3" r="121.3" gradientUnits="userSpaceOnUse"><stop offset="0" stop-color="#fff"/><stop offset="0.37" stop-color="#fdfdfd"/><stop offset="0.51" stop-color="#f6f6f6"/><stop offset="0.6" stop-color="#ebebeb"/><stop offset="0.68" stop-color="#dadada"/><stop offset="0.75" stop-color="#c4c4c4"/><stop offset="0.8" stop-color="#a8a8a8"/><stop offset="0.86" stop-color="#888"/><stop offset="0.91" stop-color="#626262"/><stop offset="0.95" stop-color="#373737"/><stop offset="0.99" stop-color="#090909"/><stop offset="1"/></radialGradient><filter id="luminosity-noclip-2" x="0" y="0" width="242.61" height="242.61" filterUnits="userSpaceOnUse" color-interpolation-filters="sRGB"><feFlood flood-color="#fff" result="bg"/><feBlend in="SourceGraphic" in2="bg"/></filter><mask id="mask-2" x="0" y="0" width="242.61" height="242.61" maskUnits="userSpaceOnUse"><g class="cls-1"><circle class="cls-2" cx="121.3" cy="121.3" r="121.3"/></g></mask><radialGradient id="radial-gradient-2" cx="121.3" cy="121.3" r="121.3" gradientUnits="userSpaceOnUse"><stop offset="0" stop-color="#2667c9"/><stop offset="0.41" stop-color="#2666c7"/><stop offset="0.56" stop-color="#2462c0"/><stop offset="0.67" stop-color="#215bb5"/><stop offset="0.76" stop-color="#1d52a4"/><stop offset="0.83" stop-color="#17468e"/><stop offset="0.89" stop-color="#103672"/><stop offset="0.95" stop-color="#082553"/><stop offset="1" stop-color="#001232"/></radialGradient></defs><g id="Layer_2" data-name="Layer 2"><g id="Layer_1-2" data-name="Layer 1"><g class="cls-3"><circle class="cls-4" cx="121.3" cy="121.3" r="121.3"/></g><g class="cls-5"><path class="cls-6" d="M103.86,198.13s4.73-3.43,10.24-6.62c7.78-4.48,17.39-7.83,22.16-10.59,2.09-1.21,9.36-8,9.36-8a94,94,0,0,1-19.58-8.2c-11.69-6.75-23.7-16-30.65-20C91.46,142.45,79,136.42,79,136.42s-8,5.66-10.5,7.1c-5.59,3.22-17.15,8-24.36,12.21A55.82,55.82,0,0,0,38,160.09s7.69,5.58,17,10.93C66.63,177.77,81,183.58,88,187.61,92,189.9,103.86,198.13,103.86,198.13Z"/></g><g class="cls-5"><path class="cls-6" d="M73.33,120.42c-8.71-6.59-25.18-8-36.79-3s-14,14.22-5.26,20.81,25.18,7.94,36.79,3,14-14.22,5.26-20.8Z"/></g><g class="cls-5"><polygon class="cls-6" points="158.75 98.3 146.94 105.16 207.13 139.68 218.93 132.82 158.75 98.3"/></g><g class="cls-5"><polygon class="cls-6" points="101.44 124.53 65.39 103.71 99.93 83.8 135.98 104.61 101.44 124.53"/></g><g class="cls-5"><path class="cls-6" d="M180.29,130.7c-12.5-9.46-36.14-11.41-52.81-4.37s-20,20.42-7.55,29.87,36.14,11.4,52.81,4.36,20-20.41,7.55-29.86Z"/></g><g class="cls-5"><path class="cls-6" d="M93.73,197.15,72.72,185c-2,1.13-5.81,1.87-7.53.88l-1.42.83.26.15c.25.14.22.4-.07.57a1.15,1.15,0,0,1-1,0l-.26-.15-1.32.76.26.15c.25.14.22.4-.07.57a1.12,1.12,0,0,1-1,0l-.26-.15-1.32.76.26.15c.26.15.22.4-.07.57l-.06,0a11.8,11.8,0,0,1-4.44-1.3l-21,12.13c2,1.15,3,3.5,1.28,4.49l-.19.1,1.44.83.48-.28a1.13,1.13,0,0,1,1,0c.29.17.32.43.07.57l-.47.28,1.32.76.47-.27a1.09,1.09,0,0,1,1,0c.29.16.32.42.07.56l-.48.28,1.32.76.48-.27a1.07,1.07,0,0,1,1,0c.29.17.33.42.07.57l-.47.27,1.32.76.47-.27a1.09,1.09,0,0,1,1,0c.29.17.32.42.07.57l-.47.27,1.4.81.17-.1a7.46,7.46,0,0,1,6.73.27l14.38-8.3,7.62,4.4a7.5,7.5,0,0,1,6.73-.28l.17.11,1.4-.81-.47-.28c-.25-.14-.22-.4.07-.56a1.1,1.1,0,0,1,1,0l.48.28,1.32-.76-.48-.28c-.25-.14-.22-.4.07-.57a1.15,1.15,0,0,1,1,0l.47.28,1.32-.77-.47-.27c-.25-.14-.22-.4.07-.57a1.12,1.12,0,0,1,1,0l.47.28,1.32-.77-.47-.27c-.25-.15-.22-.4.07-.57a1.07,1.07,0,0,1,1,0l.48.27,1.43-.83-.19-.09C90.73,200.65,91.77,198.3,93.73,197.15Z"/></g><g class="cls-5"><polygon class="cls-6" points="220.2 190.09 218.32 189 176.67 213.17 141.32 192.73 183.08 168.5 181.19 167.42 139.44 191.64 137.61 190.58 135.19 191.99 177.8 216.63 180.22 215.23 178.55 214.26 220.2 190.09"/></g><polygon class="cls-7" points="101.76 83.09 137.47 62.48 101.75 41.97 66.04 62.58 101.76 83.09"/><path class="cls-7" d="M95.05,42.59c-1,2.5-.51,5.11,1.18,5.81s3.92-.75,5-3.25a5.77,5.77,0,0,0,.56-3.18A3.33,3.33,0,0,0,100,39.34C98.32,38.63,96.1,40.09,95.05,42.59Z"/><path class="cls-8" d="M88,46.68c-1,2.5-.51,5.1,1.18,5.81s3.92-.75,5-3.25.52-5.11-1.18-5.82S89,44.17,88,46.68Z"/><path class="cls-7" d="M80.83,51c-1,2.5-.52,5.11,1.18,5.81s3.92-.75,5-3.25a6.66,6.66,0,0,0,.56-3.38,3,3,0,0,0-1.74-2.43C84.1,47,81.87,48.5,80.83,51Z"/><path class="cls-8" d="M73.76,55.09c-1.05,2.5-.52,5.1,1.18,5.81s3.91-.75,5-3.25.51-5.11-1.18-5.82S74.8,52.58,73.76,55.09Z"/><path class="cls-7" d="M66.61,59.17c-1,2.51-.52,5.11,1.18,5.82s3.91-.75,5-3.26a6.62,6.62,0,0,0,.53-3.33,3,3,0,0,0-1.71-2.48C69.87,55.21,67.65,56.67,66.61,59.17Z"/><path class="cls-8" d="M108.46,42.71c1,2.5.51,5.11-1.18,5.81s-3.92-.75-5-3.25a6.29,6.29,0,0,1-.57-3.3,3.16,3.16,0,0,1,1.75-2.51C105.19,38.75,107.41,40.21,108.46,42.71Z"/><path class="cls-7" d="M115.53,46.8c1,2.5.52,5.1-1.18,5.81s-3.91-.75-5-3.25-.52-5.11,1.18-5.82S114.49,44.29,115.53,46.8Z"/><path class="cls-8" d="M122.68,51.12c1,2.5.52,5.1-1.18,5.81s-3.91-.75-5-3.25a7.31,7.31,0,0,1-.53-3.53,2.65,2.65,0,0,1,1.71-2.28C119.42,47.16,121.64,48.61,122.68,51.12Z"/><path class="cls-7" d="M129.76,55.2c1,2.51.51,5.11-1.18,5.82s-3.92-.75-5-3.25-.52-5.11,1.17-5.82S128.71,52.7,129.76,55.2Z"/><path class="cls-8" d="M136.91,59.29c1,2.5.51,5.11-1.18,5.81s-3.92-.74-5-3.25a6.68,6.68,0,0,1-.51-3.51A2.88,2.88,0,0,1,132,56C133.64,55.33,135.86,56.79,136.91,59.29Z"/><polygon class="cls-8" points="137.26 63.88 130.2 58.77 125.1 100.84 131.15 104.59 137.26 63.88"/><polygon class="cls-8" points="123.14 54.44 119.2 97.91 113.37 94.1 116.01 50.15 123.14 54.44"/><polygon class="cls-8" points="108.88 46.37 107.59 90.36 101.64 87.69 101.7 42.97 108.88 46.37"/><polygon class="cls-8" points="94.66 46.55 95.98 91.14 90.02 94.36 87.53 50.18 94.66 46.55"/><polygon class="cls-8" points="80.37 54.44 84.14 97.79 78.28 101.1 73.28 58.4 80.37 54.44"/><path class="cls-9" d="M131.38,63a3.57,3.57,0,0,0-4.06-2.56c-1.52.24-3.5-.72-5.31-1.89.7-3-1.93-5.14-4.65-3.43-1.39-.89-3.63-7.68-7.3-4.7-.71-1.57-4.71-4.36-4.71-4.36s.63-2.47-1.18-3.54a1.78,1.78,0,0,0-2.34.44c-1.82-1.07-3.29.35-2.81,2.25.57,2.29-6.13.85-6.13.85s-1.2-2.4-2.48.51a1.47,1.47,0,0,0-1.7,2.13c-2.65-.82-3.39,1.08-2.89,2.8C82.27,51.15,81.38,55,81.38,55L79,59.18s-1.69-1-4.54.6a4.71,4.71,0,0,0-2.24,4.63s3.54,11.41,14.53,16.46S116.29,87.35,122,84s9.91-18.53,9.91-18.53Z"/><path class="cls-10" d="M103.29,59a5.66,5.66,0,0,0-1.66-3.7,2.21,2.21,0,0,1,2.22-.74,2.43,2.43,0,0,1,1.75,2.31,2.16,2.16,0,0,1,1.76-.06,2.23,2.23,0,0,1,1.35,1.73c1.42-.58,2.4.94,2.89,2.2,1.54-1.26,4.77-.83,5.22,1.23a1.88,1.88,0,0,0-1.3-.17,2.5,2.5,0,0,0-1.68,1.34v0A3,3,0,0,0,112,62a3.05,3.05,0,0,0-2.65.65c-.57-1.07-2.93-1.84-3.67-1.83a7.65,7.65,0,0,0-2.38.48A10.74,10.74,0,0,0,103.29,59Z"/><path class="cls-10" d="M96.5,51.64a5.71,5.71,0,0,1,1.66-3.7A2.19,2.19,0,0,0,96,47.2a2.41,2.41,0,0,0-1.75,2.31,2.16,2.16,0,0,0-1.76-.06,2.26,2.26,0,0,0-1.36,1.73c-1.41-.58-2.4.94-2.88,2.2-1.55-1.26-4.77-.83-5.22,1.23a1.8,1.8,0,0,1,1.29-.17A2.45,2.45,0,0,1,86,55.78v0a3.22,3.22,0,0,1,4.54-.5c.56-1.07,2.93-1.84,3.67-1.83a7.71,7.71,0,0,1,2.38.48A10.21,10.21,0,0,1,96.5,51.64Z"/><path class="cls-11" d="M82.42,58.8c.06,1.59-1.92,1.94-3.12,1.59a3.18,3.18,0,0,1-1.67-1.23A2.18,2.18,0,0,1,78,57.48c-1.23-.7-2.24-1.86-1.3-3.36a2.39,2.39,0,0,1,3.19-.66,2.09,2.09,0,0,1,2.72-1.27,2,2,0,0,1,1.24,1.51,2.42,2.42,0,0,1-.07,1.06c1.83-.56,3.3,1.84,3.35,3.66A4.21,4.21,0,0,1,82.42,58.8Z"/><path class="cls-12" d="M83,60.6a1.77,1.77,0,0,1-1.17,1.21,3.71,3.71,0,0,1-3.13-.71,2.89,2.89,0,0,1-1-1.94,3.18,3.18,0,0,0,1.67,1.23c1.2.35,3.18,0,3.12-1.59a4.21,4.21,0,0,0,4.7-.38,3.53,3.53,0,0,1-.05.66A2.58,2.58,0,0,1,83,60.6Z"/><path class="cls-12" d="M82.12,55.33a1.46,1.46,0,0,1,.33,1.07,1,1,0,0,1,.62.25c.46.46,0,1-.51,1.12A1.51,1.51,0,0,1,81.07,57C80.36,55.64,81.71,54.88,82.12,55.33Z"/><path class="cls-11" d="M124.26,62.88c.06,1.59-1.92,1.94-3.12,1.59a3.13,3.13,0,0,1-1.67-1.23,2.18,2.18,0,0,1,.36-1.68c-1.23-.7-2.24-1.86-1.3-3.36a2.39,2.39,0,0,1,3.19-.66,2.09,2.09,0,0,1,2.72-1.27,2,2,0,0,1,1.24,1.51,2.48,2.48,0,0,1-.07,1.07c1.83-.57,3.3,1.83,3.35,3.65A4.21,4.21,0,0,1,124.26,62.88Z"/><path class="cls-12" d="M124.81,64.68a1.77,1.77,0,0,1-1.17,1.21,3.71,3.71,0,0,1-3.13-.71,2.89,2.89,0,0,1-1-1.94,3.13,3.13,0,0,0,1.67,1.23c1.2.35,3.18,0,3.12-1.59a4.21,4.21,0,0,0,4.7-.38,3.53,3.53,0,0,1-.05.66A2.58,2.58,0,0,1,124.81,64.68Z"/><path class="cls-12" d="M124,59.41a1.46,1.46,0,0,1,.33,1.07,1,1,0,0,1,.62.25c.46.46,0,1-.51,1.12a1.51,1.51,0,0,1-1.49-.78C122.2,59.73,123.54,59,124,59.41Z"/><path class="cls-11" d="M105.58,68.7c-.07,1.59,1.92,1.94,3.12,1.58a3.11,3.11,0,0,0,1.67-1.22,2.14,2.14,0,0,0-.37-1.68c1.24-.71,2.24-1.86,1.31-3.36a2.4,2.4,0,0,0-3.2-.66,2.09,2.09,0,0,0-2.72-1.27,2,2,0,0,0-1.24,1.5,2.63,2.63,0,0,0,.08,1.07c-1.83-.56-3.3,1.84-3.35,3.66A4.21,4.21,0,0,0,105.58,68.7Z"/><path class="cls-12" d="M105,70.5a1.8,1.8,0,0,0,1.16,1.21,3.7,3.7,0,0,0,3.13-.71,2.86,2.86,0,0,0,1.05-1.94,3.11,3.11,0,0,1-1.67,1.22c-1.2.36-3.19,0-3.12-1.58a4.21,4.21,0,0,1-4.7-.38,2.85,2.85,0,0,0,.05.66A2.58,2.58,0,0,0,105,70.5Z"/><path class="cls-12" d="M105.88,65.23a1.45,1.45,0,0,0-.33,1.06,1.14,1.14,0,0,0-.62.25c-.46.47,0,1,.51,1.13a1.51,1.51,0,0,0,1.49-.79C107.64,65.54,106.29,64.78,105.88,65.23Z"/><path class="cls-11" d="M110.09,60.43c-2.4,2-3.52,0-3.7-1a2.32,2.32,0,0,1,1-2.64,2.35,2.35,0,0,1-.45-1.77,1,1,0,0,1,.07-.15,1.85,1.85,0,0,1,2.54-.46c-.58-1.5,1.3-2.82,2.68-2.51a2.31,2.31,0,0,1,1.73,3,2.42,2.42,0,0,1,3.33,1.7,2.24,2.24,0,0,1-1.86,2.65,1.69,1.69,0,0,1-.26,1.35C113.5,61.45,112,61.09,110.09,60.43Z"/><path class="cls-12" d="M112.79,61.58a4.52,4.52,0,0,1-1.05-.27,2.73,2.73,0,0,1-1.95,2.4c-1.48.35-3-.87-3.71-2a4.05,4.05,0,0,1-.33-4.07,2.68,2.68,0,0,1,1-1,2,2,0,0,1,.16-1.51,2.35,2.35,0,0,0,.45,1.77,2.32,2.32,0,0,0-1,2.64c.18.91,1.3,3,3.7,1,1.87.66,3.41,1,5.08.18a1,1,0,0,1-.08.11A2.48,2.48,0,0,1,112.79,61.58Z"/><path class="cls-12" d="M110.14,56.94c1-1.2,1.83-.19,1.87.1a1.26,1.26,0,0,1-.43.87,1.12,1.12,0,0,1-.85.42A.86.86,0,0,1,110.14,56.94Z"/><path class="cls-13" d="M113.32,53.82a1,1,0,0,1-.24.8.4.4,0,0,1-.58-.06.62.62,0,0,1-.09-.38.92.92,0,0,0-.24-.63c-.15-.17-.37-.79-.16-1C112.52,52.19,113.25,53.19,113.32,53.82Z"/><path class="cls-13" d="M114.78,55.44a1.87,1.87,0,0,1,1.61.7c.29.51,0,1.65-.76,1.32a.73.73,0,0,1-.33-.34,1.53,1.53,0,0,0-.29-.44c-.24-.22-.39-.09-.66-.09a.6.6,0,0,1-.68-.51C113.6,55.49,114.22,55.45,114.78,55.44Z"/><path class="cls-14" d="M93,61.87c2.4,2,3.52,0,3.71-.95a2.31,2.31,0,0,0-1-2.63,2.38,2.38,0,0,0,.46-1.78s0-.1-.08-.14a1.86,1.86,0,0,0-2.54-.47c.58-1.5-1.3-2.81-2.68-2.5a2.31,2.31,0,0,0-1.73,3,2.42,2.42,0,0,0-3.33,1.69,2.25,2.25,0,0,0,1.87,2.66,1.63,1.63,0,0,0,.26,1.34C89.57,62.89,91.11,62.54,93,61.87Z"/><path class="cls-12" d="M90.28,63a4.46,4.46,0,0,0,1-.28,2.73,2.73,0,0,0,2,2.4c1.48.36,3-.87,3.71-2a4,4,0,0,0,.33-4.07,2.68,2.68,0,0,0-1-1,2.08,2.08,0,0,0-.15-1.51,2.38,2.38,0,0,1-.46,1.78,2.31,2.31,0,0,1,1,2.63c-.19.92-1.31,3-3.71.95-1.87.67-3.41,1-5.07.18a.75.75,0,0,0,.07.12A2.51,2.51,0,0,0,90.28,63Z"/><path class="cls-12" d="M92.93,58.39c-1-1.2-1.83-.19-1.86.09s.22.64.42.87a1.1,1.1,0,0,0,.85.42A.85.85,0,0,0,92.93,58.39Z"/><path class="cls-13" d="M89.76,55.27a.9.9,0,0,0,.24.8.4.4,0,0,0,.58-.06.71.71,0,0,0,.08-.38A1,1,0,0,1,90.9,55c.16-.16.38-.78.16-1C90.56,53.64,89.83,54.63,89.76,55.27Z"/><path class="cls-13" d="M88.3,56.89a1.87,1.87,0,0,0-1.62.7c-.29.5,0,1.65.76,1.32a.83.83,0,0,0,.33-.34,1.46,1.46,0,0,1,.29-.44c.24-.22.39-.09.67-.09a.63.63,0,0,0,.68-.51C89.47,56.93,88.86,56.9,88.3,56.89Z"/><path class="cls-14" d="M97.66,47.25c2.39,2,3.52,0,3.7-1a2.31,2.31,0,0,0-1-2.63,2.42,2.42,0,0,0,.45-1.78s0-.1-.08-.14a1.86,1.86,0,0,0-2.54-.47c.58-1.5-1.29-2.81-2.68-2.5a2.31,2.31,0,0,0-1.73,3,2.41,2.41,0,0,0-3.32,1.69,2.24,2.24,0,0,0,1.86,2.66,1.63,1.63,0,0,0,.26,1.34C94.24,48.27,95.79,47.92,97.66,47.25Z"/><path class="cls-12" d="M95,48.41A4.72,4.72,0,0,0,96,48.13,2.71,2.71,0,0,0,98,50.53c1.49.36,3-.87,3.71-2a4,4,0,0,0,.33-4.07,2.68,2.68,0,0,0-1-1,2,2,0,0,0-.15-1.51,2.42,2.42,0,0,1-.45,1.78,2.31,2.31,0,0,1,1,2.63c-.18.92-1.31,3-3.7,1-1.87.67-3.42,1-5.08.18,0,0,0,.08.07.12A2.52,2.52,0,0,0,95,48.41Z"/><path class="cls-12" d="M97.61,43.77c-1-1.2-1.84-.19-1.87.09a1.25,1.25,0,0,0,.42.87,1.1,1.1,0,0,0,.85.42A.86.86,0,0,0,97.61,43.77Z"/><path class="cls-13" d="M94.43,40.65a.9.9,0,0,0,.24.8.4.4,0,0,0,.58-.06.71.71,0,0,0,.09-.38.92.92,0,0,1,.23-.64c.16-.16.38-.78.16-.95C95.23,39,94.5,40,94.43,40.65Z"/><path class="cls-13" d="M93,42.27a1.84,1.84,0,0,0-1.61.7c-.3.5,0,1.65.75,1.32a.83.83,0,0,0,.33-.34,1.32,1.32,0,0,1,.3-.44c.24-.22.38-.09.66-.09a.63.63,0,0,0,.68-.51C94.14,42.31,93.53,42.28,93,42.27Z"/><path class="cls-14" d="M108.14,50.06c-.71,1.42-2.47,2.61-3.89,1.39s-1.39-2.75.34-4.64a2.39,2.39,0,0,1-.59-2.15,2.77,2.77,0,0,1,.93-.66,2.57,2.57,0,0,1,2.57.33,2.37,2.37,0,0,1,.77.93,2.21,2.21,0,0,1,1.17-.37A1.88,1.88,0,0,1,111.17,46a1.57,1.57,0,0,1-.37,1.84,1.73,1.73,0,0,1-.39.25,2.93,2.93,0,0,1,.93,1.77s0,0,0,.08A2.93,2.93,0,0,1,108.14,50.06Z"/><path class="cls-12" d="M108.44,51.66a2.42,2.42,0,0,1-2.3,1.94,4.1,4.1,0,0,1-3.63-2.38,3.38,3.38,0,0,1,.28-3.7,3,3,0,0,1,.78-.65,1.39,1.39,0,0,1-.2-.86,2.21,2.21,0,0,1,.63-1.35,2.39,2.39,0,0,0,.59,2.15c-1.73,1.89-1.74,3.46-.34,4.64s3.18,0,3.89-1.39a2.93,2.93,0,0,0,3.19-.09A2.12,2.12,0,0,1,108.44,51.66Z"/><path class="cls-12" d="M106.53,46.61a.65.65,0,0,1,.53,0,1.52,1.52,0,0,1,1.61.73c.48.75-.21,1.32-1,1.32s-1.67-.47-1.69-1.28A.8.8,0,0,1,106.53,46.61Z"/><path class="cls-13" d="M105.06,44.47a2.2,2.2,0,0,1,1.94,0,.7.7,0,0,1,.39.71c-.08.33-.54.49-.81.61a1.4,1.4,0,0,1-1.83-.52A.58.58,0,0,1,105.06,44.47Z"/><path class="cls-13" d="M108.68,45.77c.5-.59,1.7,0,1.8.26a.62.62,0,0,1-.13.65c-.23.19-.46,0-.69-.06s-.61,0-.85-.24A.47.47,0,0,1,108.68,45.77Z"/><path class="cls-11" d="M96.74,55c.7,1.42,2.46,2.61,3.89,1.39s1.39-2.75-.35-4.64a2.41,2.41,0,0,0,.6-2.15,3,3,0,0,0-.93-.66,2.58,2.58,0,0,0-2.57.32,2.35,2.35,0,0,0-.77.93,2.26,2.26,0,0,0-1.18-.36,1.9,1.9,0,0,0-1.73,1.14,1.56,1.56,0,0,0,.38,1.83,1.7,1.7,0,0,0,.38.26,2.91,2.91,0,0,0-.92,1.77v.07A2.93,2.93,0,0,0,96.74,55Z"/><path class="cls-12" d="M96.43,56.57a2.45,2.45,0,0,0,2.31,1.94,4.09,4.09,0,0,0,3.62-2.39,3.37,3.37,0,0,0-.27-3.69,3.22,3.22,0,0,0-.78-.65,1.48,1.48,0,0,0,.2-.86,2.24,2.24,0,0,0-.63-1.35,2.41,2.41,0,0,1-.6,2.15c1.74,1.89,1.74,3.46.35,4.64s-3.19,0-3.89-1.39a2.93,2.93,0,0,1-3.2-.1A2.13,2.13,0,0,0,96.43,56.57Z"/><path class="cls-12" d="M98.35,51.51a.72.72,0,0,0-.54,0,1.54,1.54,0,0,0-1.61.74c-.48.75.21,1.32,1,1.32s1.67-.47,1.69-1.29A.81.81,0,0,0,98.35,51.51Z"/><path class="cls-13" d="M99.81,49.38a2.18,2.18,0,0,0-1.93,0,.73.73,0,0,0-.4.72c.08.32.54.48.81.61a1.42,1.42,0,0,0,1.84-.52A.59.59,0,0,0,99.81,49.38Z"/><path class="cls-13" d="M96.19,50.68c-.5-.59-1.69,0-1.79.26a.58.58,0,0,0,.12.64c.23.2.47.05.69,0s.61,0,.86-.25A.45.45,0,0,0,96.19,50.68Z"/><path class="cls-11" d="M85.56,66c-.71,1.42-2.46,2.61-3.89,1.39s-1.39-2.75.34-4.63a2.42,2.42,0,0,1-.59-2.16,2.61,2.61,0,0,1,.93-.65,2.56,2.56,0,0,1,2.57.32,2.37,2.37,0,0,1,.77.93,2.27,2.27,0,0,1,1.17-.37,1.9,1.9,0,0,1,1.74,1.15,1.58,1.58,0,0,1-.38,1.83,1.3,1.3,0,0,1-.39.25,3,3,0,0,1,.93,1.78s0,0,0,.07A2.93,2.93,0,0,1,85.56,66Z"/><path class="cls-12" d="M85.86,67.55a2.42,2.42,0,0,1-2.3,1.94,4.1,4.1,0,0,1-3.63-2.38,3.37,3.37,0,0,1,.28-3.69,3.26,3.26,0,0,1,.78-.66,1.45,1.45,0,0,1-.2-.86,2.27,2.27,0,0,1,.63-1.35A2.42,2.42,0,0,0,82,62.71c-1.73,1.88-1.73,3.45-.34,4.63s3.18,0,3.89-1.39a2.93,2.93,0,0,0,3.19-.09A2.12,2.12,0,0,1,85.86,67.55Z"/><path class="cls-12" d="M84,62.5a.65.65,0,0,1,.53,0,1.53,1.53,0,0,1,1.62.73c.47.75-.22,1.32-1,1.33s-1.67-.47-1.69-1.29A.82.82,0,0,1,84,62.5Z"/><path class="cls-13" d="M82.49,60.36a2.18,2.18,0,0,1,1.93,0,.7.7,0,0,1,.39.71c-.08.33-.54.49-.8.61a1.4,1.4,0,0,1-1.84-.52A.58.58,0,0,1,82.49,60.36Z"/><path class="cls-13" d="M86.11,61.66c.49-.59,1.69,0,1.79.26a.6.6,0,0,1-.13.65c-.22.19-.46,0-.69-.06s-.6,0-.85-.24A.45.45,0,0,1,86.11,61.66Z"/><path class="cls-10" d="M80.62,66.8a3,3,0,0,1,3,.12,3.19,3.19,0,0,1,4.55,1.2l.07-.11a1.08,1.08,0,0,1,1.22-.43A2.52,2.52,0,0,1,91,68.8c2-2.15,5.85-1.83,7.75.3a4.26,4.26,0,0,0-1.66.76,3.74,3.74,0,0,0-1.23,2.73,4.37,4.37,0,0,0-3.76-.37,2.43,2.43,0,0,0-1.7,1.69,3.65,3.65,0,0,0-2.76-.27,4.14,4.14,0,0,0-1.41.73c-1.17-2.08-3.68-4.28-6.15-3.36a.37.37,0,0,1-.41-.17A3,3,0,0,1,80.62,66.8Z"/><path class="cls-10" d="M103.57,71.63a3.1,3.1,0,0,1,1.07.16,3.17,3.17,0,0,1,.25-1.07,2.36,2.36,0,0,1,1.87-1.36A2.15,2.15,0,0,1,109.18,71a4.25,4.25,0,0,1,1.6-.81,2.53,2.53,0,0,1,2.21.55,1.45,1.45,0,0,1,.66-1.35,1.75,1.75,0,0,1,1.56.13,2.1,2.1,0,0,1,2.18-1.11,3.54,3.54,0,0,1,1.74,1,3,3,0,0,0-.38.15A3.63,3.63,0,0,0,117,72.37a10,10,0,0,0,.23,4.12,4.88,4.88,0,0,0-1.28-.4,5.69,5.69,0,0,0-4.35,1.33,6.32,6.32,0,0,0-3-3.17,5.15,5.15,0,0,0-4,.54,3.85,3.85,0,0,0-.57-.94,3.68,3.68,0,0,0-2.07-1.17A2.26,2.26,0,0,1,103.57,71.63Z"/><path class="cls-14" d="M92.27,67a1.75,1.75,0,0,1,2.39-.62,1.46,1.46,0,0,1,.52-1.33,2.37,2.37,0,0,1,2.44-.43,1.71,1.71,0,0,1,1,1.92,3.14,3.14,0,0,1-.67,1.29,4,4,0,0,1,.72.25,1.87,1.87,0,0,1,1.23,1.67,2.08,2.08,0,0,1-2,1.88,1.44,1.44,0,0,1-.56,1.29,1.88,1.88,0,0,1-2.38-.31c-.94-.76-1.65-2.12-1.13-3.16C92.77,69.36,91.64,68.09,92.27,67Z"/><path class="cls-12" d="M95,67.86c.5-.73,1.76.22,1.93.45a.93.93,0,0,1,.14,1c-.21.38-.69.38-1.07.31C95.21,69.49,94.47,68.66,95,67.86Z"/><path class="cls-13" d="M97.62,65.52a.66.66,0,0,1,.21.75c-.15.29-.56.37-.84.44-.56.12-1.58.09-1.49-.7C95.63,65,97.34,65.22,97.62,65.52Z"/><path class="cls-14" d="M120.21,66.26a1.73,1.73,0,0,0-2.39-.61,1.42,1.42,0,0,0-.52-1.33,2.36,2.36,0,0,0-2.43-.44,1.71,1.71,0,0,0-1,1.92,3.09,3.09,0,0,0,.68,1.3,4.16,4.16,0,0,0-.73.24A1.91,1.91,0,0,0,112.61,69a2.09,2.09,0,0,0,2,1.89,1.46,1.46,0,0,0,.55,1.29,1.88,1.88,0,0,0,2.38-.32c.94-.75,1.65-2.12,1.13-3.15C119.71,68.6,120.85,67.34,120.21,66.26Z"/><path class="cls-12" d="M117.48,67.11c-.49-.73-1.76.22-1.92.44a.94.94,0,0,0-.15,1,1,1,0,0,0,1.07.32C117.27,68.74,118,67.91,117.48,67.11Z"/><path class="cls-13" d="M114.86,64.76a.69.69,0,0,0-.21.76c.15.29.56.37.85.43.55.12,1.58.09,1.48-.69C116.86,64.27,115.14,64.47,114.86,64.76Z"/><path class="cls-10" d="M92.52,75.11l0,0h-.12s0,0,0,0c.55-1.14,2.48-1.37,3.58-1.11a5.7,5.7,0,0,1,2.78,2.31c4.59-1,5.09,4.22,5.1,5.5,0,1-1.08,1.83-1.89,2.3-2.38,1.36-5.91-.63-7.78-2.12C91.82,80,91.35,77.83,92.52,75.11Z"/><path class="cls-15" d="M101.76,83.09a10,10,0,0,1,.56-3.28c1-2.51,3.26-4,5-3.26A3,3,0,0,1,108.92,79l7.13-4.12a6.45,6.45,0,0,1,.49-3.21c1-2.5,3.27-4,5-3.25a2.67,2.67,0,0,1,1.72,2.28v0l7.08-4.08a6.37,6.37,0,0,1,.47-3.39c1-2.51,3.26-4,5-3.26a2.74,2.74,0,0,1,1.74,2.51l-6.32,42.11-29.39,17Z"/><path class="cls-16" d="M123.22,70.66a8.16,8.16,0,0,1,.47-3.35c1-2.5,3.27-4,5-3.25a3,3,0,0,1,1.67,2.54l-4.79,41.23-5.91,3.42Z"/><path class="cls-16" d="M108.92,79a7.62,7.62,0,0,1,.55-3.24c1-2.5,3.27-4,5-3.25A2.29,2.29,0,0,1,116,74.61l-2.44,40.13-6,3.46Z"/><path class="cls-17" d="M101.76,83.09a9.78,9.78,0,0,0-.57-3.28c-1-2.51-3.26-4-5-3.26A3,3,0,0,0,94.59,79l-7.12-4.12a6.46,6.46,0,0,0-.5-3.21c-1-2.5-3.27-4-5-3.25a2.67,2.67,0,0,0-1.71,2.28v0l-7.09-4.08a6.26,6.26,0,0,0-.46-3.39c-1-2.51-3.27-4-5-3.26A2.73,2.73,0,0,0,66,62.48l6.32,42.11,29.4,17Z"/><path class="cls-18" d="M80.3,70.66a8.17,8.17,0,0,0-.48-3.35c-1-2.5-3.27-4-5-3.25a3,3,0,0,0-1.67,2.54L78,107.83l5.92,3.42Z"/><path class="cls-18" d="M94.59,79A7.62,7.62,0,0,0,94,75.72c-1-2.5-3.26-4-5-3.25a2.29,2.29,0,0,0-1.59,2.14l2.45,40.13,6,3.46Z"/><path class="cls-7" d="M95.05,113.69c.34-.18.73-.24,1.07-.42s.59-.47.93-.65a.1.1,0,0,1,.14.11,2.27,2.27,0,0,1-2,1.33A.2.2,0,0,1,95.05,113.69Z"/><path class="cls-7" d="M93,109.32a9.42,9.42,0,0,1,.85,1.12,3.69,3.69,0,0,1,.67,1.23.13.13,0,0,1-.21.12,3.9,3.9,0,0,1-.82-1.14,8.56,8.56,0,0,1-.64-1.24A.09.09,0,0,1,93,109.32Z"/><path class="cls-7" d="M76.86,104.17a3.3,3.3,0,0,0,1.22.36,4.13,4.13,0,0,0,1.16-.24.09.09,0,0,1,.1.12,1.63,1.63,0,0,1-2.65-.07C76.63,104.23,76.75,104.13,76.86,104.17Z"/><path class="cls-7" d="M74,99.38a13.37,13.37,0,0,0,.78,1.18c.26.32.69.56.87.93a.22.22,0,0,1-.25.32c-.45-.09-.81-.63-1.06-1a2.94,2.94,0,0,1-.51-1.39C73.83,99.33,74,99.31,74,99.38Z"/><path class="cls-7" d="M78.61,100.78a9.65,9.65,0,0,0,.67,1.37,6.58,6.58,0,0,1,.68,1.09c.06.15-.13.27-.25.2a3.59,3.59,0,0,1-1.28-2.63C78.41,100.7,78.57,100.7,78.61,100.78Z"/><path class="cls-7" d="M71.38,80.94a9.19,9.19,0,0,0,.68,1.37,7.12,7.12,0,0,1,.68,1.09c.05.14-.14.26-.26.19A3.62,3.62,0,0,1,71.2,81C71.19,80.85,71.34,80.85,71.38,80.94Z"/><path class="cls-7" d="M86.14,109.6c.37.22.68.55,1,.8a11.58,11.58,0,0,0,1.14.65c.13.07.11.19,0,.28h0c0,.08-.14.1-.22.09a3.34,3.34,0,0,1-2.27-1.56C85.82,109.7,86,109.5,86.14,109.6Z"/><path class="cls-7" d="M85.25,107.1a3.66,3.66,0,0,1,.94-1.2c.16-.12.31.1.24.25-.2.45-.53.85-.76,1.29a6.21,6.21,0,0,1-.63,1.23.19.19,0,0,1-.32-.14A2.94,2.94,0,0,1,85.25,107.1Z"/><path class="cls-7" d="M68.74,67.16a5.15,5.15,0,0,1,.94,1,3.51,3.51,0,0,1,.74,1.09.19.19,0,0,1-.27.21,3.6,3.6,0,0,1-.85-1,5.39,5.39,0,0,1-.74-1.19C68.53,67.21,68.66,67.1,68.74,67.16Z"/><path class="cls-7" d="M71.13,70.24c.11-.12.26,0,.21.16a5.63,5.63,0,0,1-1.14,1.84.16.16,0,0,1-.27-.16A5.42,5.42,0,0,1,71.13,70.24Z"/><path class="cls-7" d="M73.69,97.11c.25-.34.58-.87,1-1a.13.13,0,0,1,.16.16c-.08.41-.51.78-.73,1.13s-.36.84-.72,1a.14.14,0,0,1-.21-.08C73.07,97.94,73.45,97.45,73.69,97.11Z"/><path class="cls-7" d="M72,93.56a.07.07,0,0,1,.1,0c.27.16.4.53.57.78a6.26,6.26,0,0,1,.64,1,.14.14,0,0,1-.19.18,2.11,2.11,0,0,1-.79-.88A1.56,1.56,0,0,1,72,93.56Z"/><path class="cls-7" d="M97,115.73a5.08,5.08,0,0,1,.87,0,4.9,4.9,0,0,1,.93-.1.07.07,0,0,1,.06.1,1.5,1.5,0,0,1-1.91.24C96.83,115.87,96.88,115.75,97,115.73Z"/><path class="cls-7" d="M71.32,79.07a5.08,5.08,0,0,1,.87,0,5.88,5.88,0,0,1,.93-.1s.09.06.06.1a1.52,1.52,0,0,1-1.91.25A.12.12,0,0,1,71.32,79.07Z"/><path class="cls-18" d="M103.88,115.45a4.84,4.84,0,0,0,.9.66c.3.17.65.27,1,.44.15.08.07.3-.09.31a2.43,2.43,0,0,1-2-1.25C103.6,115.48,103.78,115.36,103.88,115.45Z"/><path class="cls-18" d="M104.72,114.6a4,4,0,0,1,.8-.84c.29-.28.56-.6.87-.87.06,0,.18,0,.15.09a3.75,3.75,0,0,1-.67,1,2.28,2.28,0,0,1-1,.8A.16.16,0,0,1,104.72,114.6Z"/><path class="cls-18" d="M127.07,102.91c.43,0,.86.11,1.29.08s.84-.17,1.26-.15c0,0,0,0,0,0a2.28,2.28,0,0,1-2.66.34A.17.17,0,0,1,127.07,102.91Z"/><path class="cls-18" d="M124.69,103.61a4,4,0,0,1,.83.52,3.14,3.14,0,0,1,.71.6c.11.14-.09.27-.22.22a3.43,3.43,0,0,1-.76-.57,4,4,0,0,1-.66-.64A.09.09,0,0,1,124.69,103.61Z"/><path class="cls-18" d="M123.47,106.52a4.67,4.67,0,0,1,.69-.64,8.44,8.44,0,0,0,.64-.81.1.1,0,0,1,.18.07,2.16,2.16,0,0,1-.47,1,1.67,1.67,0,0,1-.85.66C123.53,106.78,123.38,106.65,123.47,106.52Z"/><path class="cls-18" d="M118.54,107.86c.38.19.71.5,1.08.71s.83.35,1.18.59c.14.1.1.35-.09.34a3,3,0,0,1-2.25-1.58S118.5,107.85,118.54,107.86Z"/><path class="cls-18" d="M115.87,108.92c.18-.27.38-.51.55-.78a4.13,4.13,0,0,0,.39-1,.1.1,0,0,1,.19,0,1.62,1.62,0,0,1-1,1.9A.12.12,0,0,1,115.87,108.92Z"/><path class="cls-18" d="M112,111.07a8.43,8.43,0,0,1,1,.68c.39.23.83.34,1.23.56a.14.14,0,0,1-.07.26,2.41,2.41,0,0,1-1.39-.44c-.35-.21-.82-.52-.94-.93C111.85,111.12,111.93,111,112,111.07Z"/><path class="cls-18" d="M103.89,108.25c.33.24.6.55.91.8s.7.41,1,.68a.12.12,0,0,1-.09.22,2.71,2.71,0,0,1-2-1.52A.16.16,0,0,1,103.89,108.25Z"/><path class="cls-7" d="M130.59,85.63c-.7,5.19-6.79,11.66-13.61,14.46s-11.77.86-11.07-4.32,6.79-11.66,13.6-14.46S131.29,80.45,130.59,85.63Z"/><path class="cls-16" d="M111.28,101.67a15.54,15.54,0,0,0,5.82-1.3c6.9-2.83,13.08-9.42,13.8-14.7a4.88,4.88,0,0,0-1.66-4.78c-2.07-1.59-5.75-1.54-9.84.14-6.9,2.83-13.09,9.42-13.8,14.7a4.87,4.87,0,0,0,1.66,4.78A6.54,6.54,0,0,0,111.28,101.67Zm13.94-21.33a5.91,5.91,0,0,1,3.64,1,4.27,4.27,0,0,1,1.42,4.21c-.68,5.08-6.7,11.46-13.41,14.21-3.89,1.6-7.34,1.68-9.23.22a4.27,4.27,0,0,1-1.42-4.21c.68-5.08,6.7-11.46,13.41-14.21A15.06,15.06,0,0,1,125.22,80.34Z"/><path class="cls-16" d="M111.3,100a14.15,14.15,0,0,0,5.52-1.38c6-2.69,11.67-8.46,12.53-12.85h0a3.57,3.57,0,0,0-1-3.74c-1.64-1.32-4.82-1.12-8.49.51-6,2.69-11.66,8.46-12.53,12.86a3.56,3.56,0,0,0,1,3.73A4.67,4.67,0,0,0,111.3,100Zm14-18.53a4.38,4.38,0,0,1,2.78.8,3.3,3.3,0,0,1,.93,3.44h0c-.85,4.31-6.39,10-12.35,12.63-3.57,1.58-6.62,1.79-8.18.55a3.29,3.29,0,0,1-.93-3.43c.85-4.31,6.39-10,12.35-12.63A13.7,13.7,0,0,1,125.34,81.43Z"/><path class="cls-16" d="M117.27,88a2.43,2.43,0,0,1-.32,1.4,3,3,0,0,1-1,1.09l0,.78-1.23.75-.2-1.84c-.06-.47-.14-1.12-.24-1.94a8.56,8.56,0,0,1,1-.7,2.17,2.17,0,0,1,1.33-.43C117,87.15,117.23,87.45,117.27,88Zm-.89,1c0-.26-.17-.31-.44-.14l-.1.07,0,.9A.92.92,0,0,0,116.38,89Z"/><path class="cls-16" d="M120.43,86.4a3.74,3.74,0,0,1-.29,1.76,2.71,2.71,0,0,1-1,1.31.9.9,0,0,1-1.15,0,1.68,1.68,0,0,1-.51-1.25,3.27,3.27,0,0,1,.33-1.76,2.74,2.74,0,0,1,1-1.17,1,1,0,0,1,1.1-.13A1.4,1.4,0,0,1,120.43,86.4Zm-1,1.1c0-.47-.19-.62-.47-.44a.92.92,0,0,0-.35,1,.86.86,0,0,0,.14.46c.1.14.2.17.32.1a.82.82,0,0,0,.28-.47A1.47,1.47,0,0,0,119.39,87.5Z"/><path class="cls-16" d="M123.47,84.2a2.43,2.43,0,0,1-.32,1.4,3,3,0,0,1-1,1.09l0,.78-1.23.75-.2-1.84c-.06-.47-.14-1.12-.24-1.94a9.19,9.19,0,0,1,1-.7,2.21,2.21,0,0,1,1.34-.43C123.22,83.36,123.43,83.66,123.47,84.2Zm-.89,1c0-.26-.17-.31-.44-.14l-.1.07,0,.9A.92.92,0,0,0,122.58,85.19Z"/><path class="cls-16" d="M115.94,94.27a1.1,1.1,0,0,0-.32.15,1.56,1.56,0,0,0-.57.57,1.44,1.44,0,0,0-.2.83q0,.36.24.45a.56.56,0,0,0,.54-.09,1.46,1.46,0,0,0,.41-.38c0,.08,0,.22-.05.42l0,.43a3.08,3.08,0,0,1-.63.5,1.38,1.38,0,0,1-1.25.2,1.26,1.26,0,0,1-.65-1.2,3.2,3.2,0,0,1,.36-1.69,4,4,0,0,1,2-1.73Z"/><path class="cls-16" d="M119.14,92.59a3.88,3.88,0,0,1-.3,1.76,2.69,2.69,0,0,1-1,1.31.93.93,0,0,1-1.16,0,1.71,1.71,0,0,1-.5-1.25,3.36,3.36,0,0,1,.32-1.76,2.76,2.76,0,0,1,1-1.17,1.06,1.06,0,0,1,1.1-.14A1.46,1.46,0,0,1,119.14,92.59Zm-1,1.1c0-.47-.19-.62-.47-.44a.94.94,0,0,0-.36,1,.9.9,0,0,0,.15.46c.09.14.2.17.31.1a.83.83,0,0,0,.29-.47A1.66,1.66,0,0,0,118.1,93.69Z"/><path class="cls-16" d="M122.28,90.25a2.29,2.29,0,0,1-.17,1,2.58,2.58,0,0,1-.48.76l.35.28a4.34,4.34,0,0,0,.42.2L122,93l-.46.54-.32-.29a4.25,4.25,0,0,1-.34-.47h0l0,.89-1.25.77c-.05-.36-.11-1-.2-1.77q-.08-.73-.24-2c.4-.3.77-.55,1.11-.76C121.54,89.11,122.2,89.24,122.28,90.25Zm-1,1.17c0-.16-.08-.24-.2-.24a.64.64,0,0,0-.33.14l0,.87a1,1,0,0,0,.33-.3A.67.67,0,0,0,121.3,91.42Z"/><path class="cls-16" d="M125,87c0,.36,0,1,0,1.84,0,.63.06,1.36.1,2.18l-.94-.23-.82-.14L123.5,92l-.72.44c0-.34-.11-1-.22-1.89-.1-.74-.18-1.36-.26-1.87l1.12-.68.89.38a4.35,4.35,0,0,0,0-.48q0-.15-.06-.39Z"/><path class="cls-19" d="M210.31,133l-51.14-29.52c-2.93-1.69-5.3-6.23-5.3-10.13V51.47l61.74,35.64V129C215.61,132.89,213.23,134.68,210.31,133Z"/><polygon class="cls-19" points="210.66 89.98 215.6 87.64 213.78 133.27 208.69 136.22 210.66 89.98"/><path class="cls-20" d="M205.36,135.87l-51.14-29.53c-2.93-1.69-5.3-6.22-5.3-10.12V54.34L210.66,90v41.88C210.66,135.76,208.28,137.56,205.36,135.87Z"/><polygon class="cls-16" points="207.18 126.37 152.39 94.74 152.39 93.55 207.18 125.18 207.18 126.37"/><polygon class="cls-16" points="207.18 114.83 152.39 83.2 152.39 82 207.18 113.64 207.18 114.83"/><polygon class="cls-16" points="207.18 103.23 152.39 71.6 152.39 70.41 207.18 102.04 207.18 103.23"/><polygon class="cls-16" points="163.79 89.18 163.79 77.54 162.89 77.02 162.89 88.66 163.79 89.18"/><polygon class="cls-16" points="177.06 96.84 177.06 85.2 176.16 84.69 176.16 96.33 177.06 96.84"/><polygon class="cls-8" points="151.9 44.36 146.94 47.24 212.15 84.71 217.09 81.83 151.9 44.36"/><polygon class="cls-21" points="184.02 68.54 174.71 73.92 183.34 78.87 192.64 73.5 184.02 68.54"/><polygon class="cls-21" points="146.94 47.24 146.94 57.96 150.18 59.81 159.48 54.44 146.94 47.24"/><polygon class="cls-21" points="200.65 78.1 191.34 83.47 199.67 88.26 208.97 82.89 200.65 78.1"/><polygon class="cls-21" points="167.49 59.05 158.19 64.42 166.7 69.31 176.01 63.94 167.49 59.05"/><polygon class="cls-21" points="212.15 90.28 207.68 92.86 212.15 95.43 212.15 90.28"/><polygon class="cls-22" points="212.15 84.71 208.97 82.89 199.67 88.26 207.68 92.86 212.15 90.28 212.15 84.71"/><polygon class="cls-22" points="192.64 73.5 183.34 78.87 191.34 83.47 200.65 78.1 192.64 73.5"/><polygon class="cls-22" points="176.01 63.94 166.7 69.31 174.71 73.92 184.02 68.54 176.01 63.94"/><polygon class="cls-22" points="159.48 54.44 150.18 59.81 158.19 64.42 167.49 59.05 159.48 54.44"/><polygon class="cls-23" points="212.15 95.43 217.09 92.55 217.09 81.83 212.15 84.71 212.15 95.43"/><polygon class="cls-24" points="180.96 61.06 176.01 63.94 184.02 68.54 188.97 65.66 180.96 61.06"/><polygon class="cls-24" points="197.59 70.62 192.64 73.5 200.65 78.1 205.6 75.22 197.59 70.62"/><polygon class="cls-24" points="213.92 80.03 208.97 82.91 212.15 84.71 217.09 81.83 213.92 80.03"/><polygon class="cls-24" points="164.43 51.56 159.48 54.44 167.49 59.05 172.44 56.17 164.43 51.56"/><polygon class="cls-8" points="151.9 31.63 146.94 34.51 212.15 71.98 217.09 69.1 151.9 31.63"/><polygon class="cls-24" points="155.27 33.57 150.32 36.45 159.87 41.94 164.82 39.06 155.27 33.57"/><polygon class="cls-24" points="171.94 43.15 166.99 46.03 176.54 51.52 181.49 48.64 171.94 43.15"/><polygon class="cls-24" points="188.75 52.81 183.8 55.69 193.34 61.18 198.29 58.3 188.75 52.81"/><polygon class="cls-24" points="205.18 62.27 200.23 65.15 209.77 70.64 214.72 67.76 205.18 62.27"/><polygon class="cls-21" points="176.54 51.52 185.8 67.56 193.06 71.73 183.8 55.69 176.54 51.52"/><polygon class="cls-21" points="159.87 41.94 169.13 57.98 176.25 62.08 166.99 46.03 159.87 41.94"/><polygon class="cls-21" points="212.15 71.98 209.77 70.62 212.15 74.73 212.15 71.98"/><polygon class="cls-21" points="200.23 65.13 193.34 61.18 202.6 77.22 209.49 81.17 200.23 65.13"/><polygon class="cls-21" points="150.7 36.67 146.94 34.51 146.94 45.23 159.58 52.49 150.51 36.78 150.7 36.67"/><polygon class="cls-22" points="183.8 55.69 193.06 71.73 202.6 77.22 193.34 61.18 183.8 55.69"/><polygon class="cls-22" points="212.15 82.7 212.15 74.73 209.77 70.62 200.23 65.13 209.49 81.17 212.15 82.7"/><polygon class="cls-22" points="150.32 36.45 159.58 52.49 169.13 57.98 159.87 41.94 150.32 36.45"/><polygon class="cls-22" points="166.99 46.03 176.25 62.08 185.8 67.56 176.54 51.52 166.99 46.03"/><polygon class="cls-23" points="212.15 82.7 217.09 79.82 217.09 69.1 212.15 71.98 212.15 82.7"/><path class="cls-25" d="M158.09,59.87c-1.22-4.12-6.25-18.21-7.07-20.69s-2.53-3.52-3.38-2.92h0l-.86.5.38.49a3.25,3.25,0,0,0,0,.33V55.35c0,2.12.61,3.49,2.17,4.39L156.63,64l-.25.12.64.71,1.06-.61h0C158.7,63.83,158.89,62.54,158.09,59.87Z"/><path class="cls-23" d="M146.17,55.91c0,2.12.61,3.5,2.17,4.4l7.4,4.27c1.45.84,2.65.07,1.39-4.15s-6.25-18.21-7.07-20.69c-1.14-3.46-3.89-4.05-3.89-1.6Z"/><path class="cls-21" d="M148.72,57.68c0,.65-.4,1-.88.67a2.12,2.12,0,0,1-.89-1.69c0-.66.4-1,.89-.67A2.14,2.14,0,0,1,148.72,57.68Z"/><path class="cls-16" d="M148.27,57.62c0,.47-.28.69-.64.49a1.57,1.57,0,0,1-.64-1.23c0-.47.29-.68.64-.48A1.51,1.51,0,0,1,148.27,57.62Z"/><path class="cls-21" d="M148.72,40.79c0,.65-.4,1-.88.67a2.12,2.12,0,0,1-.89-1.69c0-.65.4-1,.89-.67A2.14,2.14,0,0,1,148.72,40.79Z"/><path class="cls-16" d="M148.27,40.74c0,.47-.28.68-.64.48A1.53,1.53,0,0,1,147,40c0-.47.29-.69.64-.49A1.54,1.54,0,0,1,148.27,40.74Z"/><path class="cls-21" d="M155.8,61.78c0,.65-.39.95-.88.67a2.12,2.12,0,0,1-.89-1.69c0-.65.4-.95.89-.67A2.11,2.11,0,0,1,155.8,61.78Z"/><path class="cls-16" d="M155.35,61.73c0,.47-.28.68-.64.48a1.53,1.53,0,0,1-.64-1.22c0-.47.29-.69.64-.49A1.54,1.54,0,0,1,155.35,61.73Z"/><path class="cls-16" d="M163.26,91.09l.14.1.18.14.16.14.08.08v.08l.69.27a8.08,8.08,0,0,1,.79.38,6.28,6.28,0,0,1,.78.48,3.32,3.32,0,0,1,.64.59v.16c0,.06,0,.12,0,.18a.62.62,0,0,1,0,.16c0,.05,0,.07,0,.07a3.42,3.42,0,0,0-.63-.49,6.65,6.65,0,0,0-.74-.41l-.75-.33-.67-.26h-.06s0,0,0,.07c0,.5-.07,1-.11,1.44s-.08.93-.12,1.42-.07,1-.11,1.58-.08,1.21-.12,1.94a.42.42,0,0,1-.11.26.33.33,0,0,1-.21.12.3.3,0,0,1-.24,0,.48.48,0,0,1-.21-.25,5,5,0,0,1,0-.55l0-.54c0-.17,0-.34,0-.51s0-.33,0-.5c0-.37,0-.75,0-1.13s0-.76,0-1.14a7.67,7.67,0,0,0-.15-1.16,6.86,6.86,0,0,0-.31-1.16.77.77,0,0,0-.09-.13c0-.06-.09-.09-.11-.09l-.26,0h-.22s-.06,0-.1-.08l-.13-.18a1.13,1.13,0,0,1-.09-.2c0-.06,0-.1,0-.11a.53.53,0,0,1,.3-.17,3.71,3.71,0,0,1,.53-.08,4.19,4.19,0,0,1,.61,0,2.13,2.13,0,0,1,.55.12h0s0,0,0,0a.2.2,0,0,1,0-.07l0-.08a.15.15,0,0,1,0-.06S163.24,91.08,163.26,91.09ZM163,92.15a1.18,1.18,0,0,0-.41-.08l-.23,0a.1.1,0,0,0,0,.07.13.13,0,0,0,0,.12c.07.22.13.45.18.67s.08.44.11.67.06.46.08.7,0,.5.06.77a.22.22,0,0,0,0,.09s0,0,0,0l0-.21c0-.15,0-.33,0-.55s.05-.45.07-.71,0-.49.05-.72,0-.4,0-.56S163,92.16,163,92.15Z"/><path class="cls-16" d="M167.28,97.83c0,.09-.05.24-.09.44s-.1.42-.17.66-.14.49-.23.75a6.27,6.27,0,0,1-.26.67,2.19,2.19,0,0,1-.29.45c-.1.1-.2.13-.29.08a.84.84,0,0,1-.26-.27,1.63,1.63,0,0,1-.2-.42,2.52,2.52,0,0,1-.13-.49,2.92,2.92,0,0,1-.05-.5,2.79,2.79,0,0,1,.05-.47c0-.18.07-.37.11-.57s.09-.39.13-.58.09-.37.12-.52.05-.29.06-.4,0-.17,0-.18-.06-.06-.12,0a1.31,1.31,0,0,0-.18.23c-.07.1-.14.22-.22.36l-.21.41-.16.36a1,1,0,0,0-.07.2c0,.1,0,.2,0,.3a2.66,2.66,0,0,0,0,.3h-.1s-.06,0-.11-.07a1.05,1.05,0,0,1-.22-.34,2.76,2.76,0,0,1-.15-.46,4.51,4.51,0,0,1-.09-.53c0-.18,0-.36,0-.53s0-.32,0-.47,0-.26,0-.35a9.2,9.2,0,0,1,.06-1,7.17,7.17,0,0,1,.17-1,4.92,4.92,0,0,1,.3-.87,2.15,2.15,0,0,1,.41-.63,1,1,0,0,1,.54-.28,1,1,0,0,1,.65.16.92.92,0,0,1,.41.51,2.28,2.28,0,0,1,.12.73,2.49,2.49,0,0,1-.08.61,3,3,0,0,1-.24.58,3.84,3.84,0,0,1-.35.54,3.7,3.7,0,0,1-.42.46,3.55,3.55,0,0,1-.44.35,3.29,3.29,0,0,1-.42.25s0,0-.06.06a.3.3,0,0,0,0,.18v.23a1,1,0,0,0,0,.24,1,1,0,0,0,0,.19c0,.06,0,.09,0,.1s0,0,.09-.12.1-.17.17-.27l.22-.33.24-.3a1,1,0,0,1,.24-.19.16.16,0,0,1,.19,0,1,1,0,0,1,.3.33,1.87,1.87,0,0,1,.2.63,1.66,1.66,0,0,1,0,.44c0,.19-.06.4-.1.63s-.09.46-.13.7-.08.47-.11.68a2.43,2.43,0,0,0,0,.52c0,.14,0,.23.09.26s.12,0,.19-.11a3.92,3.92,0,0,0,.22-.42c.07-.17.14-.37.22-.59s.13-.43.19-.63.11-.38.15-.53.06-.26.07-.32h0a.08.08,0,0,1,.08,0,.17.17,0,0,1,.06.06A.18.18,0,0,1,167.28,97.83Zm-2.55-2a.13.13,0,0,0,0,.08s.05,0,.06,0l.23-.17a4.09,4.09,0,0,0,.33-.3,5.5,5.5,0,0,0,.37-.42,2.7,2.7,0,0,0,.35-.51,3.4,3.4,0,0,0,.26-.58,2.31,2.31,0,0,0,.1-.64,1,1,0,0,0,0-.17l0-.19a.84.84,0,0,0,0-.17.3.3,0,0,0-.09-.1.39.39,0,0,0-.47,0,1.45,1.45,0,0,0-.39.49,4.45,4.45,0,0,0-.32.76c-.09.29-.17.57-.23.83a6.06,6.06,0,0,0-.12.7A1.18,1.18,0,0,0,164.73,95.81Z"/><path class="cls-16" d="M169.69,99.14l-.18.27c-.07.11-.16.22-.24.34a3.11,3.11,0,0,1-.29.33,1.52,1.52,0,0,1-.32.26.69.69,0,0,1-.34.13.59.59,0,0,1-.36-.08,1.81,1.81,0,0,1-.35-.3,2.49,2.49,0,0,1-.32-.44,3,3,0,0,1-.23-.52,1.69,1.69,0,0,1-.09-.53,3.44,3.44,0,0,1,0-.54,2.82,2.82,0,0,1,.1-.52,2.34,2.34,0,0,1,.18-.45.85.85,0,0,1,.25-.33.54.54,0,0,1,.32-.13.7.7,0,0,1,.41.12l.11.1a1.14,1.14,0,0,1,.16.22,1.58,1.58,0,0,1,.17.32,1.56,1.56,0,0,1,.11.4.5.5,0,0,1-.09.36.59.59,0,0,1-.29.16,1,1,0,0,1-.35,0,.9.9,0,0,1-.29-.09s-.07,0-.1.1a1.82,1.82,0,0,0,0,.31c0,.12,0,.24,0,.36v.26a.83.83,0,0,0,.1.38.76.76,0,0,0,.3.32.36.36,0,0,0,.29,0,.81.81,0,0,0,.3-.14,2.17,2.17,0,0,0,.29-.24c.09-.1.18-.19.25-.28a1.62,1.62,0,0,0,.18-.23.48.48,0,0,0,.08-.11h.15a.08.08,0,0,1,.08,0,.16.16,0,0,1,.07.07Zm-1.14-1.36a.59.59,0,0,0,0-.29.34.34,0,0,0-.18-.19.34.34,0,0,0-.34.09.67.67,0,0,0-.18.33.17.17,0,0,0,0,.1.2.2,0,0,0,.06.07.13.13,0,0,0,.06,0l.06,0a.45.45,0,0,0,.36,0A.34.34,0,0,0,168.55,97.78Z"/><path class="cls-16" d="M174,101.79a1.55,1.55,0,0,1-.31,0h-.31s0,0,0,0a.18.18,0,0,0,0,.06,2.88,2.88,0,0,1,0,.65,2.16,2.16,0,0,1,0,.29q0,.18-.12.39a3.75,3.75,0,0,1-.19.41,1.49,1.49,0,0,1-.27.33.62.62,0,0,1-.33.17.59.59,0,0,1-.4-.07.46.46,0,0,1-.13-.12,2,2,0,0,1-.12-.21,1.3,1.3,0,0,1-.1-.25.53.53,0,0,1,0-.24,1.83,1.83,0,0,1,.1-.62,2.66,2.66,0,0,1,.28-.53,2.3,2.3,0,0,1,.37-.39,1.19,1.19,0,0,1,.41-.2c.06,0,.08,0,.08-.16a1.61,1.61,0,0,0-.06-.35,1.91,1.91,0,0,0-.13-.36.53.53,0,0,0-.13-.21.25.25,0,0,0-.22,0,.53.53,0,0,0-.22.12,1.26,1.26,0,0,0-.19.25c-.06.1-.11.2-.16.3a1.76,1.76,0,0,0-.1.3.8.8,0,0,0,0,.24c0,.13,0,.26,0,.4s0,.26,0,.38a.42.42,0,0,1-.14,0,.49.49,0,0,1-.15-.1.67.67,0,0,1-.13-.27,2.13,2.13,0,0,1-.12-.44c0-.16-.07-.35-.1-.54s-.05-.39-.07-.58,0-.36,0-.52,0-.31,0-.41a7.62,7.62,0,0,1,.08-1.08,6.1,6.1,0,0,1,.2-1,6,6,0,0,1,.32-.85,2.61,2.61,0,0,1,.41-.64,1.48,1.48,0,0,1,.48-.37.74.74,0,0,1,.53,0,.58.58,0,0,1,.32.21,1.37,1.37,0,0,1,.2.38,2.82,2.82,0,0,1,.11.46c0,.17,0,.33,0,.49a2.74,2.74,0,0,1-.15,1,2.49,2.49,0,0,1-.42.77,2.85,2.85,0,0,1-.63.57,5.44,5.44,0,0,1-.73.44.14.14,0,0,0-.06.07.16.16,0,0,0,0,.08c0,.15,0,.29,0,.42s0,.28,0,.43,0,.06,0,.06,0,0,0,0a1.94,1.94,0,0,1,.3-.57.88.88,0,0,1,.45-.33.34.34,0,0,1,.34.08,1.39,1.39,0,0,1,.28.38,2.87,2.87,0,0,1,.21.51,2.06,2.06,0,0,1,.11.45l0,.06s0,0,.05,0a.78.78,0,0,0,.28,0,1.29,1.29,0,0,0,.28,0s.06,0,.07,0a.09.09,0,0,1,0,.07s0,.06,0,.08A.08.08,0,0,0,174,101.79Zm-2.48-2.37a.24.24,0,0,0,.05.14s.05,0,.08,0l.62-.41a2.84,2.84,0,0,0,.55-.49,2.43,2.43,0,0,0,.39-.69,2.89,2.89,0,0,0,.15-1s0-.11,0-.19a1,1,0,0,0,0-.24,1.89,1.89,0,0,0-.05-.23.48.48,0,0,0-.08-.16.39.39,0,0,0-.34-.15.56.56,0,0,0-.33.2,2.19,2.19,0,0,0-.3.45c-.09.19-.18.39-.26.61s-.14.45-.2.68-.12.45-.16.65-.06.38-.08.53A1.53,1.53,0,0,0,171.48,99.42Zm1.1,3.66a1.56,1.56,0,0,0,.18-.49,6,6,0,0,0,.09-.61.19.19,0,0,0,0-.09s0,0,0,0a.94.94,0,0,0-.31.18,2,2,0,0,0-.34.37,2,2,0,0,0-.24.51,1.29,1.29,0,0,0,0,.62.16.16,0,0,0,.18.08.62.62,0,0,0,.2-.12,1,1,0,0,0,.19-.21Z"/><path class="cls-16" d="M176.44,103l-.18.27c-.07.1-.15.22-.24.33s-.19.23-.29.34a1.92,1.92,0,0,1-.32.26,1,1,0,0,1-.34.13.61.61,0,0,1-.36-.09,1.45,1.45,0,0,1-.35-.29,2.92,2.92,0,0,1-.32-.44,3.43,3.43,0,0,1-.23-.52,1.73,1.73,0,0,1-.09-.53,3.27,3.27,0,0,1,0-.54,2.82,2.82,0,0,1,.1-.52A2.75,2.75,0,0,1,174,101a1,1,0,0,1,.25-.32.54.54,0,0,1,.32-.13.77.77,0,0,1,.41.11l.11.1.16.22a1.91,1.91,0,0,1,.17.32,1.76,1.76,0,0,1,.11.41.43.43,0,0,1-.09.35.54.54,0,0,1-.29.17,1.36,1.36,0,0,1-.35,0,.9.9,0,0,1-.29-.09s-.07,0-.1.09a2.16,2.16,0,0,0,0,.32c0,.12,0,.24,0,.36v.26a.76.76,0,0,0,.1.37.66.66,0,0,0,.3.32.36.36,0,0,0,.29,0,1,1,0,0,0,.3-.14,1.68,1.68,0,0,0,.29-.25,3.08,3.08,0,0,0,.25-.27,1.47,1.47,0,0,0,.18-.23,1,1,0,0,0,.08-.11h.15l.08,0a.19.19,0,0,1,.07.08Zm-1.14-1.36a.59.59,0,0,0,0-.29.39.39,0,0,0-.18-.2.37.37,0,0,0-.34.1.67.67,0,0,0-.18.33.17.17,0,0,0,0,.1.2.2,0,0,0,.06.07.18.18,0,0,0,.07,0l.05,0a.55.55,0,0,0,.36,0A.34.34,0,0,0,175.3,101.68Z"/><path class="cls-16" d="M177,101.43a.49.49,0,0,1,.18.23,1.69,1.69,0,0,1,.11.34,2.21,2.21,0,0,1,0,.35.54.54,0,0,1,0,.22c-.06.08-.1.11-.12.11s-.05,0-.06-.1,0-.11,0-.18a.58.58,0,0,0-.05-.17s0,0-.13,0a.9.9,0,0,0-.22.11.93.93,0,0,0-.21.19.38.38,0,0,0-.09.24,1.4,1.4,0,0,0,.08.47,4.56,4.56,0,0,0,.19.49c.08.18.18.37.28.56l.09,0,.18-.09.21-.13.21-.13.18-.1.11,0s0,0,0,0a.36.36,0,0,1,0,.09.44.44,0,0,1,0,.1.08.08,0,0,1,0,.07.5.5,0,0,1-.15.1l-.29.14-.29.18a.37.37,0,0,0-.16.18v.07a.64.64,0,0,1,0,.07,2.37,2.37,0,0,1,.17.84,1.67,1.67,0,0,1-.13.71.71.71,0,0,1-.36.41.56.56,0,0,1-.55-.06,1.3,1.3,0,0,1-.21-.17,2.16,2.16,0,0,1-.21-.29,1.69,1.69,0,0,1-.17-.36,1.22,1.22,0,0,1-.07-.38.62.62,0,0,1,.06-.26.86.86,0,0,1,.15-.22,1.9,1.9,0,0,1,.21-.19l.23-.14.16-.08a.24.24,0,0,0,.09-.08.18.18,0,0,0,0-.11,1.3,1.3,0,0,0-.06-.19l-.14-.35c-.06-.16-.13-.32-.19-.5s-.12-.35-.17-.52a1.64,1.64,0,0,1-.07-.43,1.13,1.13,0,0,1,.11-.48,1.28,1.28,0,0,1,.28-.36.9.9,0,0,1,.36-.19A.45.45,0,0,1,177,101.43Zm-.36,3.5a.24.24,0,0,0-.18,0,.79.79,0,0,0-.24.15,1.52,1.52,0,0,0-.22.22.48.48,0,0,0-.09.27.36.36,0,0,0,.06.2.5.5,0,0,0,.15.14.45.45,0,0,0,.31.06.35.35,0,0,0,.23-.15.61.61,0,0,0,.11-.35,1.42,1.42,0,0,0-.08-.51l0,0Z"/><path class="cls-16" d="M180.07,101.82a.37.37,0,0,1,.05.15l-.38-.12-.37-.15-.31-.13-.2-.08-.08,0s-.05,0-.06.07,0,.13-.05.27-.06.31-.09.52-.06.44-.1.69-.06.52-.08.79-.05.53-.07.79,0,.49,0,.7v.33c0,.14,0,.29,0,.44s0,.32,0,.48,0,.31,0,.44,0,.24,0,.33a.37.37,0,0,0,.06.16s.06,0,.11-.11.11-.2.18-.35.15-.32.22-.51l.24-.57q.1-.3.21-.57l.18-.45c0-.13.09-.21.11-.26s0,0,0,0h0l.06,0,0,0a.14.14,0,0,1,0,.06c-.07.17-.15.37-.23.6s-.17.47-.25.72l-.27.73a6,6,0,0,1-.26.64,1.82,1.82,0,0,1-.27.41.2.2,0,0,1-.25.07,1,1,0,0,1-.4-.52,3.68,3.68,0,0,1-.22-.81,9.19,9.19,0,0,1-.08-.93c0-.32,0-.61,0-.87a11.19,11.19,0,0,1,.08-1.33c.05-.42.1-.79.16-1.11s.12-.59.18-.8l.09-.39s0,0,0,0,0,0,0,0l-.42-.18-.49-.19v-.08l0-.09.06-.08a.05.05,0,0,1,.05,0l.16,0,.25.11.26.11.19.08s0,0,.05,0,0,0,0,0a2.27,2.27,0,0,1,.08-.29c0-.13.1-.27.16-.4a2,2,0,0,1,.17-.36q.09-.17.15-.18s0,0,.07,0l.09.11.08.13a.54.54,0,0,0,.06.11.47.47,0,0,1,0,.26,2.42,2.42,0,0,1-.12.35c0,.11-.09.22-.12.31a.55.55,0,0,0-.06.14.08.08,0,0,0,0,.07s0,0,0,0l.19.09.32.15.35.17.28.14h0Z"/><path class="cls-16" d="M186,108.48s.08,0,.09,0a.2.2,0,0,1,0,.08.5.5,0,0,1,0,.12.39.39,0,0,1,0,.09.58.58,0,0,0-.14.25l-.19.47-.23.57a3.47,3.47,0,0,1-.25.51,1.52,1.52,0,0,1-.27.35.23.23,0,0,1-.28,0,.65.65,0,0,1-.22-.22,2.12,2.12,0,0,1-.21-.36,2.39,2.39,0,0,1-.16-.38,1.1,1.1,0,0,1-.06-.31,4.71,4.71,0,0,1,0-.48c0-.18.06-.37.1-.57s.07-.4.11-.59.08-.37.11-.53.05-.29.06-.39,0-.16,0-.18-.09,0-.16.18a4.86,4.86,0,0,0-.23.53c-.09.22-.17.45-.27.71s-.19.5-.27.71a4.86,4.86,0,0,1-.23.53c-.07.14-.12.2-.16.18a1.14,1.14,0,0,1-.44-.48,1.85,1.85,0,0,1-.17-.7,1.33,1.33,0,0,1,0-.3c0-.14.06-.3.1-.48s.07-.35.12-.54l.11-.52c0-.16,0-.29.07-.4s0-.16,0-.17-.13,0-.21.12a2.22,2.22,0,0,0-.25.47,6.76,6.76,0,0,0-.26.65l-.26.65a4.88,4.88,0,0,1-.22.49c-.06.13-.11.18-.15.16a.71.71,0,0,1-.22-.21,1.38,1.38,0,0,1-.2-.31,2.52,2.52,0,0,1-.15-.34,1,1,0,0,1-.06-.31,4.24,4.24,0,0,1,0-.69c0-.25.06-.51.1-.77s.07-.49.1-.7a3.62,3.62,0,0,0,0-.49q0-.09.09,0a1.69,1.69,0,0,1,.21.23l.21.33a.67.67,0,0,1,.1.24,2.61,2.61,0,0,1,0,.34c0,.14,0,.3-.06.47s-.05.34-.08.51-.05.34-.06.49a2.6,2.6,0,0,0,0,.36c0,.1,0,.16,0,.17s0-.07.08-.21.1-.32.17-.54.16-.44.25-.68.2-.46.3-.65a1.75,1.75,0,0,1,.33-.45.28.28,0,0,1,.34-.06.58.58,0,0,1,.2.21,1.87,1.87,0,0,1,.17.31c0,.12.08.22.11.32a1.07,1.07,0,0,1,0,.23,2.19,2.19,0,0,1,0,.22c0,.11-.06.23-.09.38s-.08.3-.11.46-.07.31-.1.45a3.06,3.06,0,0,0-.05.36c0,.1,0,.16.05.18s0,0,.09-.18l.18-.48c.07-.2.15-.4.24-.62a5.6,5.6,0,0,1,.29-.6,1.45,1.45,0,0,1,.32-.39.29.29,0,0,1,.34,0,.59.59,0,0,1,.2.19,1.59,1.59,0,0,1,.18.27,2.14,2.14,0,0,1,.12.28.58.58,0,0,1,.06.2,2,2,0,0,1-.06.36c0,.18-.09.38-.14.61s-.11.47-.17.73-.1.49-.14.7a2.5,2.5,0,0,0-.07.55q0,.22.06.27s.09,0,.14-.07a1.48,1.48,0,0,0,.19-.28,4.1,4.1,0,0,0,.21-.42l.23-.46a2.73,2.73,0,0,1,.23-.42A1.21,1.21,0,0,1,186,108.48Z"/><path class="cls-16" d="M188.37,109.93a.76.76,0,0,1-.35.34,1.24,1.24,0,0,1-.42.11.88.88,0,0,0-.09.16c0,.09-.07.19-.12.31a3.59,3.59,0,0,1-.17.34,1.19,1.19,0,0,1-.23.3.53.53,0,0,1-.3.14.53.53,0,0,1-.37-.08,1.07,1.07,0,0,1-.26-.23,1.59,1.59,0,0,1-.23-.36,2.52,2.52,0,0,1-.16-.44,2.1,2.1,0,0,1-.06-.51s0-.13,0-.27a2.76,2.76,0,0,1,.06-.4,1.3,1.3,0,0,1,.12-.35c.06-.1.12-.13.21-.09l.06,0s0,0,0,0a.41.41,0,0,0,0-.07.47.47,0,0,1,0-.14q0-.14-.09-.36a2.83,2.83,0,0,1,0-.56,1.08,1.08,0,0,1,.06-.28,1.54,1.54,0,0,1,.17-.34.73.73,0,0,1,.29-.23.41.41,0,0,1,.38,0,1.53,1.53,0,0,1,.42.39,2.65,2.65,0,0,1,.3.55,2.77,2.77,0,0,1,.19.62,3.38,3.38,0,0,1,.06.6c0,.19,0,.35,0,.49a2.6,2.6,0,0,0,0,.28.09.09,0,0,0,0,.09.31.31,0,0,0,.14,0l.16,0,.15-.07.1-.08s0,0,.06,0A.24.24,0,0,1,188.37,109.93Zm-1.18.39a1.9,1.9,0,0,1-.38-.32,1.29,1.29,0,0,0-.24-.22s-.09,0-.13.12a1.88,1.88,0,0,0-.1.35,3,3,0,0,0,0,.43.8.8,0,0,0,.06.34.29.29,0,0,0,.19.22.5.5,0,0,0,.2-.09,1.46,1.46,0,0,0,.2-.22,1.57,1.57,0,0,0,.16-.29A.88.88,0,0,0,187.19,110.32Zm.09-.39s.06,0,.08-.06a1,1,0,0,0,.07-.24,3.29,3.29,0,0,0,0-.36c0-.13,0-.27,0-.4a2,2,0,0,0-.05-.41,2.37,2.37,0,0,0-.15-.4,1.63,1.63,0,0,0-.21-.34.82.82,0,0,0-.25-.22.19.19,0,0,0-.2,0,.47.47,0,0,0-.14.14,1.12,1.12,0,0,0-.08.24,2.37,2.37,0,0,0,.22,1.35A1.67,1.67,0,0,0,187.28,109.93Z"/><path class="cls-16" d="M188.91,112.53c.07-.15.14-.34.22-.57s.16-.49.24-.77.15-.54.21-.79a.52.52,0,0,1,0-.11.37.37,0,0,0,0-.11l-.1-.2c0-.09-.08-.18-.13-.27l-.12-.29a.92.92,0,0,1-.05-.25,4.84,4.84,0,0,1,0-.53,2.87,2.87,0,0,1,.09-.49,1.27,1.27,0,0,1,.13-.34c.06-.08.12-.1.19-.06a.66.66,0,0,1,.26.35,1.51,1.51,0,0,1,.1.53c0,.12,0,.24,0,.37s0,.27,0,.4l0,.38a2.53,2.53,0,0,1,0,.32.12.12,0,0,0,0,.09l.06,0,.13,0,.18,0,.17,0a.12.12,0,0,0,.1,0,.06.06,0,0,1,.07,0,.16.16,0,0,1,0,.07.29.29,0,0,1,0,.09.08.08,0,0,1,0,.06.25.25,0,0,1-.17,0,1,1,0,0,1-.24,0l-.23-.05c-.07,0-.11,0-.11,0h-.06s0,0,0,0a.14.14,0,0,0,0,.06.08.08,0,0,0,0,0l-.09.42c0,.18-.1.38-.15.59s-.12.43-.19.64a5.06,5.06,0,0,1-.2.59,3.08,3.08,0,0,1-.19.4c-.06.09-.12.13-.17.1a2.29,2.29,0,0,1-.24-.22,1.82,1.82,0,0,1-.23-.3,1.42,1.42,0,0,1-.17-.35,1.07,1.07,0,0,1-.07-.39c0-.09,0-.26,0-.52s0-.55,0-.89,0-.7,0-1.08a7.87,7.87,0,0,0-.13-1.1s0,0,0,0l.16.12.21.21.21.26a2.26,2.26,0,0,1,.16.26.56.56,0,0,1,.06.22s0,.13,0,.26,0,.27-.05.44,0,.36-.06.56,0,.39-.05.59,0,.38,0,.55,0,.31,0,.43a.27.27,0,0,0,0,.12l.06.12.1.14S188.85,112.67,188.91,112.53Zm.79-4.35s-.08,0-.12.1a2.09,2.09,0,0,0-.07.33c0,.12,0,.25,0,.37s0,.21,0,.25a.71.71,0,0,0,0,.2c0,.08,0,.16.05.23s0,.14.08.2a.31.31,0,0,0,.08.1s0,0,0-.11,0-.18,0-.31,0-.26,0-.41,0-.29,0-.42a3.06,3.06,0,0,0,0-.35C189.77,108.26,189.74,108.2,189.7,108.18Z"/><path class="cls-16" d="M191.86,111.67s0,0,0,.06a.43.43,0,0,1,0,0q0,.15-.12.36c0,.13-.09.28-.14.42s-.11.3-.17.44a2,2,0,0,1-.19.36.56.56,0,0,1-.21.22.21.21,0,0,1-.23,0,1,1,0,0,1-.31-.3,1.93,1.93,0,0,1-.22-.43,2.42,2.42,0,0,1-.13-.48,2.48,2.48,0,0,1,0-.45v-.15c0-.1,0-.22,0-.36s0-.3,0-.46l.06-.45a2,2,0,0,1,.08-.36c0-.09.06-.14.09-.14s.08,0,.13,0a.53.53,0,0,1,.17.19,1.51,1.51,0,0,1,.15.28.8.8,0,0,1,.07.25,1.53,1.53,0,0,1,0,.18,2.23,2.23,0,0,1,0,.32c0,.13,0,.27,0,.41s0,.29,0,.42,0,.26,0,.36,0,.18,0,.22,0,.08,0,.15a1.16,1.16,0,0,0,0,.18.6.6,0,0,0,.08.16.16.16,0,0,0,.12.08s.06,0,.11-.1.09-.17.14-.28.11-.25.16-.38l.16-.39c0-.12.09-.22.13-.3a1,1,0,0,1,.07-.16s0,0,.05,0ZM190.5,109a.41.41,0,0,1,0-.22,1.51,1.51,0,0,1,0-.3,1.78,1.78,0,0,1,.05-.28c0-.08.06-.13.09-.14a.42.42,0,0,1,.2.1.9.9,0,0,1,.2.19.89.89,0,0,1,.14.25.44.44,0,0,1,0,.25.45.45,0,0,1,0,.13l0,.17-.06.16a.21.21,0,0,1-.05.08s0,0-.08,0l-.15-.1-.15-.14A.5.5,0,0,1,190.5,109Z"/><path class="cls-16" d="M194.25,113.32c-.05.07-.12.16-.19.27s-.15.22-.24.33-.18.23-.28.34a2.44,2.44,0,0,1-.32.26,1,1,0,0,1-.35.13.62.62,0,0,1-.35-.08,1.37,1.37,0,0,1-.35-.3,2.36,2.36,0,0,1-.32-.44,2.17,2.17,0,0,1-.23-.52,1.73,1.73,0,0,1-.09-.53,4.89,4.89,0,0,1,0-.54,2.82,2.82,0,0,1,.11-.52,2.09,2.09,0,0,1,.17-.46,1,1,0,0,1,.25-.32.59.59,0,0,1,.33-.13.79.79,0,0,1,.41.11l.1.1a2.46,2.46,0,0,1,.17.22,3.1,3.1,0,0,1,.17.32,1.76,1.76,0,0,1,.11.41.43.43,0,0,1-.1.35.51.51,0,0,1-.28.17,1.37,1.37,0,0,1-.35,0,1,1,0,0,1-.3-.09s-.07,0-.09.09a2.16,2.16,0,0,0,0,.32c0,.12,0,.24,0,.36v.26a.91.91,0,0,0,.09.37.69.69,0,0,0,.31.32.34.34,0,0,0,.28,0,1,1,0,0,0,.3-.14,1.73,1.73,0,0,0,.3-.25l.25-.27.18-.23a.49.49,0,0,1,.08-.11h.15l.08,0a.17.17,0,0,1,.06.08ZM193.11,112a.59.59,0,0,0,0-.29.3.3,0,0,0-.53-.1.88.88,0,0,0-.18.33.16.16,0,0,0,0,.1.26.26,0,0,0,.12.12l.06,0a.55.55,0,0,0,.36,0A.37.37,0,0,0,193.11,112Z"/><path class="cls-26" d="M185.84,142.42v-2h-.21c-.67-3.49-2.94-6.93-6.93-9.95-5.55-4.19-13.42-6.83-21.84-7.76-1.13-.12-2.26-.22-3.4-.28s-2.28-.09-3.43-.1h0c-1.11,0-2.23,0-3.34.08a54,54,0,0,0-18,3.92,35.84,35.84,0,0,0-4.84,2.47c-.29.18-.58.36-.86.55-.55.36-1.07.72-1.56,1.1s-.92.72-1.34,1.09a15.84,15.84,0,0,0-5.5,8.87h-.19v2.13h0c0,4.21,2.34,8.45,7.14,12.08a35.36,35.36,0,0,0,9.11,4.84l1.48.52a55.16,55.16,0,0,0,11.25,2.4c1.13.13,2.26.22,3.4.28s2.28.1,3.42.1a62.33,62.33,0,0,0,10.24-.84c.56-.09,1.11-.2,1.66-.31q1.66-.33,3.27-.75l1.6-.46c1.05-.31,2.09-.67,3.1-1l1.5-.6a34.79,34.79,0,0,0,4.1-2,24,24,0,0,0,7.45-6.36c.37-.51.7-1,1-1.53s.53-1,.74-1.46a14.27,14.27,0,0,0,.56-1.63c.11-.41.21-.82.28-1.24a8,8,0,0,0,.12-1C185.83,143.15,185.84,142.78,185.84,142.42Zm-22.46-11.16c3.53-1.49,8.55-1.08,11.19.92s1.94,4.84-1.6,6.33-8.54,1.08-11.19-.92S159.85,132.75,163.38,131.26Zm-20.79-6.21c3.53-1.49,8.54-1.08,11.19.93s1.94,4.84-1.6,6.33-8.54,1.08-11.19-.93S139.06,126.55,142.59,125.05Zm-19.4,14.55c-2.65-2-1.94-4.84,1.6-6.33s8.54-1.08,11.19.92,2,4.67-1.3,6.2H124.53A7.28,7.28,0,0,1,123.19,139.6Zm14.18,14.16c-3.54,1.49-8.55,1.08-11.2-.92s-1.93-4.84,1.6-6.33,8.55-1.08,11.2.92S140.9,152.27,137.37,153.76Zm20.31,5c-3.53,1.5-8.54,1.08-11.19-.92s-1.93-4.84,1.6-6.33,8.54-1.08,11.19.92S161.22,157.31,157.68,158.8Zm17.68-7.22c-3.54,1.5-8.55,1.08-11.2-.92s-1.93-4.84,1.6-6.33,8.55-1.08,11.2.92S178.89,150.09,175.36,151.58Z"/><path class="cls-17" d="M178.7,128.59c-11.84-9-34.24-10.8-50-4.13s-19,19.34-7.15,28.29,34.24,10.8,50,4.13S190.54,137.54,178.7,128.59Zm-53.91,2.83c3.53-1.5,8.54-1.08,11.19.92s1.94,4.84-1.6,6.33-8.54,1.08-11.19-.92S121.25,132.91,124.79,131.42Zm12.58,20.49c-3.54,1.49-8.55,1.08-11.2-.93s-1.93-4.83,1.6-6.33,8.55-1.08,11.2.93S140.9,150.42,137.37,151.91Zm5.22-28.71c3.53-1.49,8.54-1.08,11.19.93s1.94,4.83-1.6,6.33-8.54,1.08-11.19-.93S139.06,124.69,142.59,123.2ZM157.68,157c-3.53,1.5-8.54,1.08-11.19-.92s-1.93-4.84,1.6-6.33,8.54-1.08,11.19.92S161.22,155.46,157.68,157Zm5.7-27.54c3.53-1.5,8.55-1.08,11.19.92s1.94,4.84-1.6,6.33-8.54,1.08-11.19-.92S159.85,130.9,163.38,129.41Zm12,20.32c-3.54,1.49-8.55,1.08-11.2-.92s-1.93-4.84,1.6-6.33,8.55-1.08,11.2.92S178.89,148.24,175.36,149.73Z"/><path class="cls-26" d="M143.6,135.4c4.79-2,11.6-1.47,15.2,1.25a5.07,5.07,0,0,1,2.09,3c.29-1.5-.37-3.06-2.09-4.36-3.6-2.72-10.41-3.28-15.2-1.25-3.19,1.34-4.67,3.49-4.27,5.57C139.65,138,141.1,136.45,143.6,135.4Z"/><path class="cls-26" d="M141.42,142.65c3.6,2.72,10.41,3.28,15.2,1.25,2.5-1.05,3.95-2.6,4.27-4.23a5.07,5.07,0,0,0-2.09-3c-3.6-2.72-10.41-3.28-15.2-1.25-2.5,1-3.95,2.61-4.27,4.23A5,5,0,0,0,141.42,142.65Z"/><path class="cls-26" d="M141.42,142.65c3.6,2.72,10.41,3.28,15.2,1.25,2.5-1.05,3.95-2.6,4.27-4.23a5.07,5.07,0,0,0-2.09-3c-3.6-2.72-10.41-3.28-15.2-1.25-2.5,1-3.95,2.61-4.27,4.23A5,5,0,0,0,141.42,142.65Z"/><path class="cls-8" d="M177.65,129c11.39,8.61,8.3,20.84-6.89,27.25s-36.8,4.64-48.19-4-8.3-20.84,6.89-27.26,36.8-4.63,48.19,4Zm1-.44c-11.84-9-34.24-10.8-50-4.13s-19,19.34-7.15,28.29,34.24,10.8,50,4.13,19-19.34,7.15-28.29Z"/><path class="cls-26" d="M155.66,137.07c-2.3-1.74-6.65-2.1-9.72-.81s-3.68,3.76-1.38,5.5,6.64,2.09,9.71.8,3.69-3.76,1.39-5.49Z"/><path class="cls-8" d="M154.9,136.84c-2-1.52-5.79-1.83-8.47-.7s-3.21,3.27-1.21,4.78,5.8,1.83,8.47.7,3.22-3.27,1.21-4.78Z"/><path class="cls-27" d="M216.25,142.44a11.58,11.58,0,0,1-1.22.41,27,27,0,0,1-8.91.61,31.08,31.08,0,0,1-9-2.11,25.75,25.75,0,0,1-8.9-5.94c-3.78-3.86-5.06-8-7-13.17V132c1.93,5.19,3.21,9.31,7,13.17a25.4,25.4,0,0,0,3.35,2.89,26.32,26.32,0,0,0,5.55,3,31.08,31.08,0,0,0,9,2.11,26.43,26.43,0,0,0,8.91-.61,11.58,11.58,0,0,0,1.22-.41c5.55-2.31,7.68-5,7.68-5v-9.79S221.8,140.13,216.25,142.44Z"/><path class="cls-22" d="M206.12,144.83v7.33a27,27,0,0,0,8.91-.61v-7.33A27,27,0,0,1,206.12,144.83Z"/><path class="cls-22" d="M191.57,139.66c-.77-.56-1.46-1.12-2.1-1.69v7.33c.64.57,1.33,1.13,2.1,1.69a25.93,25.93,0,0,0,5.55,3.06v-7.33A25.93,25.93,0,0,1,191.57,139.66Z"/><path class="cls-28" d="M179.31,131.08a21.76,21.76,0,0,0-2.77-2.47c-11-8.29-31.71-10-46.33-3.83s-17.59,17.91-6.62,26.21c.72.54,1.48,1,2.28,1.54a37.28,37.28,0,0,0,8.91,3.85,52,52,0,0,0,8.94,1.78,58.59,58.59,0,0,0,8.9.31,55.68,55.68,0,0,0,8.88-1.08,45,45,0,0,0,8.42-2.58l.48-.22a26.73,26.73,0,0,0,8.91-6C184.34,143.24,184.53,136.65,179.31,131.08Z"/><path class="cls-22" d="M176.54,127.16c-11-8.29-31.71-10-46.33-3.83s-17.59,17.91-6.62,26.21a26.72,26.72,0,0,0,2.28,1.54V134h8.91v21a51.09,51.09,0,0,0,8.94,1.78V136.35h8.9V157a55.68,55.68,0,0,0,8.88-1.08V136.35h8.9v16.79a26.73,26.73,0,0,0,8.91-6V129.63A22.56,22.56,0,0,0,176.54,127.16Z"/><path class="cls-27" d="M125.87,134v17.11a37.28,37.28,0,0,0,8.91,3.85V134Z"/><path class="cls-27" d="M143.72,136.35v20.36a58.59,58.59,0,0,0,8.9.31V136.35Z"/><path class="cls-27" d="M161.5,136.35v19.59a45,45,0,0,0,8.42-2.58l.48-.22V136.35Z"/><path class="cls-27" d="M179.31,129.63v17.53C184.34,141.79,184.53,135.2,179.31,129.63Z"/><path class="cls-22" d="M176.54,117.84c-11-8.29-31.71-10-46.33-3.82s-17.59,17.91-6.62,26.2,31.71,10,46.33,3.82,17.59-17.91,6.62-26.2Z"/><path class="cls-29" d="M175.31,118.21c-10.6-8-30.66-9.65-44.8-3.67s-17,17.34-6.42,25.35,30.65,9.66,44.8,3.67,17-17.34,6.42-25.35Z"/><path class="cls-28" d="M172.05,119.05c-9.25-7-26.75-8.43-39.1-3.2S118.1,131,127.35,138s26.75,8.43,39.09,3.2,14.85-15.13,5.61-22.12Z"/><path class="cls-29" d="M167.65,120.37c-7.43-5.62-21.49-6.77-31.41-2.57s-11.93,12.15-4.5,17.77,21.5,6.77,31.41,2.57,11.94-12.15,4.5-17.77Z"/><path class="cls-26" d="M185.84,130.69v-2h-.21c-.67-3.49-2.94-6.93-6.93-10-5.55-4.19-13.42-6.83-21.84-7.76-1.13-.12-2.26-.22-3.4-.28s-2.28-.09-3.43-.09h0c-1.11,0-2.26-.33-3.38-.28a54.34,54.34,0,0,0-18,4.28,35.84,35.84,0,0,0-4.84,2.47c-.29.18-.58.36-.86.55-.55.36-1.07.72-1.56,1.1s-.92.72-1.34,1.09a15.84,15.84,0,0,0-5.5,8.87h-.19v2.13h0c0,4.21,2.34,8.45,7.14,12.08a35.36,35.36,0,0,0,9.11,4.84l1.48.52a55.16,55.16,0,0,0,11.25,2.4c1.13.13,2.26.22,3.4.28s2.28.1,3.42.1a61.26,61.26,0,0,0,10.24-.84c.56-.09,1.11-.2,1.66-.31q1.66-.33,3.27-.75l1.6-.46c1.05-.31,2.09-.66,3.1-1.05q.75-.28,1.5-.6a34.79,34.79,0,0,0,4.1-2,24,24,0,0,0,7.45-6.36c.37-.51.7-1,1-1.53s.53-1,.74-1.46a14.27,14.27,0,0,0,.56-1.63c.11-.41.21-.82.28-1.24a8,8,0,0,0,.12-1C185.83,131.42,185.84,131.06,185.84,130.69Zm-22.46-11.16c3.53-1.49,8.55-1.08,11.19.92s1.94,4.84-1.6,6.33-8.54,1.08-11.19-.92S159.85,121,163.38,119.53Zm-20.79-6.21c3.53-1.49,8.54-1.07,11.19.93s1.94,4.84-1.6,6.33-8.54,1.08-11.19-.93S139.06,114.82,142.59,113.32Zm-19.4,14.55c-2.65-2-1.94-4.84,1.6-6.33s8.54-1.08,11.19.92,2,4.67-1.3,6.2H124.53A7.28,7.28,0,0,1,123.19,127.87ZM137.37,142c-3.54,1.49-8.55,1.08-11.2-.92s-1.93-4.84,1.6-6.33,8.55-1.08,11.2.92S140.9,140.54,137.37,142Zm20.31,5c-3.53,1.5-8.54,1.08-11.19-.92s-1.93-4.84,1.6-6.33,8.54-1.08,11.19.92S161.22,145.58,157.68,147.07Zm17.68-7.22c-3.54,1.5-8.55,1.08-11.2-.92s-1.93-4.84,1.6-6.33,8.55-1.08,11.2.92S178.89,138.36,175.36,139.85Z"/><path class="cls-17" d="M178.7,116.86c-11.84-9-34.24-10.8-50-4.13s-19,19.34-7.15,28.29,34.24,10.8,50,4.13S190.54,125.81,178.7,116.86Zm-53.91,2.83c3.53-1.5,8.54-1.08,11.19.92s1.94,4.84-1.6,6.33-8.54,1.08-11.19-.92S121.25,121.18,124.79,119.69Zm12.58,20.49c-3.54,1.49-8.55,1.08-11.2-.93s-1.93-4.83,1.6-6.33,8.55-1.08,11.2.93S140.9,138.69,137.37,140.18Zm5.22-28.71c3.53-1.49,8.54-1.08,11.19.93s1.94,4.83-1.6,6.33-8.54,1.08-11.19-.93S139.06,113,142.59,111.47Zm15.09,33.75c-3.53,1.5-8.54,1.08-11.19-.92s-1.93-4.84,1.6-6.33,8.54-1.08,11.19.92S161.22,143.73,157.68,145.22Zm5.7-27.54c3.53-1.5,8.55-1.08,11.19.92s1.94,4.84-1.6,6.33-8.54,1.08-11.19-.92S159.85,119.17,163.38,117.68Zm12,20.32c-3.54,1.49-8.55,1.08-11.2-.92s-1.93-4.84,1.6-6.33,8.55-1.08,11.2.92S178.89,136.51,175.36,138Z"/><path class="cls-26" d="M143.6,123.67c4.79-2,11.6-1.47,15.2,1.25a5.07,5.07,0,0,1,2.09,3c.29-1.5-.37-3.06-2.09-4.36-3.6-2.72-10.41-3.28-15.2-1.25-3.19,1.34-4.67,3.49-4.27,5.58C139.65,126.28,141.1,124.72,143.6,123.67Z"/><path class="cls-26" d="M141.42,130.92c3.6,2.72,10.41,3.28,15.2,1.26,2.5-1.06,3.95-2.61,4.27-4.24a5.07,5.07,0,0,0-2.09-3c-3.6-2.72-10.41-3.28-15.2-1.25-2.5,1-3.95,2.61-4.27,4.24A5.05,5.05,0,0,0,141.42,130.92Z"/><path class="cls-8" d="M141.42,130.92c3.6,2.72,10.41,3.28,15.2,1.26,2.5-1.06,3.95-2.61,4.27-4.24a5.07,5.07,0,0,0-2.09-3c-3.6-2.72-10.41-3.28-15.2-1.25-2.5,1-3.95,2.61-4.27,4.24A5.05,5.05,0,0,0,141.42,130.92Z"/><path class="cls-8" d="M177.65,117.3c11.39,8.61,8.3,20.84-6.89,27.25s-36.8,4.64-48.19-4-8.3-20.84,6.89-27.26,36.8-4.63,48.19,4Zm1-.44c-11.84-9-34.24-10.8-50-4.13s-19,19.34-7.15,28.29,34.24,10.8,50,4.13,19-19.34,7.15-28.29Z"/><path class="cls-26" d="M155.66,125.34c-2.3-1.74-6.65-2.1-9.72-.81s-3.68,3.76-1.38,5.5,6.64,2.09,9.71.8,3.69-3.76,1.39-5.49Z"/><path class="cls-17" d="M154.9,125.11c-2-1.52-5.79-1.83-8.47-.7s-3.21,3.27-1.21,4.79,5.8,1.82,8.47.69,3.22-3.27,1.21-4.78Z"/><path class="cls-25" d="M156.62,112.9c-.06-.05-.16,0-.16.09,0,.31.14.6.15.92a2.94,2.94,0,0,0,0,.89c0,.09.15.18.25.1C157.46,114.47,157.15,113.25,156.62,112.9Z"/><path class="cls-25" d="M159.71,113.39a1.17,1.17,0,0,0-1.46.7.19.19,0,0,0,.27.21c.2-.13.36-.31.56-.44s.43-.15.63-.27A.12.12,0,0,0,159.71,113.39Z"/><path class="cls-25" d="M181.13,125a2.66,2.66,0,0,0-.83-.84,3.1,3.1,0,0,0-.91-.57c-.12,0-.19.11-.12.2.25.27.56.5.83.76a5.16,5.16,0,0,0,.75.73C181,125.39,181.21,125.16,181.13,125Z"/><path class="cls-25" d="M182.43,125.73a3.49,3.49,0,0,0-1.05.54c-.27.19-.68.42-.73.75a.19.19,0,0,0,.17.24c.34,0,.57-.33.82-.54a11.29,11.29,0,0,0,.93-.75A.14.14,0,0,0,182.43,125.73Z"/><path class="cls-25" d="M177.91,118.71a.13.13,0,0,0-.21.13,6.68,6.68,0,0,1,.17,1.09,3.77,3.77,0,0,0,0,.95.15.15,0,0,0,.26.07C178.77,120.38,178.43,119.22,177.91,118.71Z"/><path class="cls-25" d="M135.65,113.2a.13.13,0,0,0-.21.12,7,7,0,0,1,.17,1.1,4.32,4.32,0,0,0,0,1,.16.16,0,0,0,.27.07C136.51,114.87,136.17,113.71,135.65,113.2Z"/><path class="cls-25" d="M176,117.36a3.06,3.06,0,0,0-2.66-.5c-.16,0-.11.26,0,.27a9,9,0,0,1,1.38.21,7.45,7.45,0,0,0,1.12.31C176,117.66,176.07,117.46,176,117.36Z"/><path class="cls-25" d="M164.1,129.3a3,3,0,0,0-2.11,1.85.16.16,0,0,0,.26.15c.3-.3.53-.66.85-1a12.24,12.24,0,0,1,1.1-.79A.14.14,0,0,0,164.1,129.3Z"/><path class="cls-25" d="M173.78,139.94a14.59,14.59,0,0,1-4.3.69.11.11,0,0,0,0,.22,5.1,5.1,0,0,0,4.45-.63C174,140.13,174,139.88,173.78,139.94Z"/><path class="cls-25" d="M179.65,133.89c0-.06-.15,0-.16,0a8.85,8.85,0,0,1-.21,1.27c-.13.42-.37.79-.47,1.22,0,.14.14.31.27.2A2.51,2.51,0,0,0,179.65,133.89Z"/><path class="cls-25" d="M168.23,140a1.91,1.91,0,0,0-.53.83,1.43,1.43,0,0,0,0,1,.18.18,0,0,0,.36-.05,7.22,7.22,0,0,1,.13-.79,4.08,4.08,0,0,1,.33-.74A.19.19,0,0,0,168.23,140Z"/><path class="cls-25" d="M118.08,127.62a5.67,5.67,0,0,1-.58-.7,2.43,2.43,0,0,1-.24-1,.21.21,0,0,0-.41,0,1.61,1.61,0,0,0,1,2C118,127.94,118.2,127.78,118.08,127.62Z"/><path class="cls-25" d="M119.32,127.49a3.22,3.22,0,0,0-1.27,2.2.22.22,0,0,0,.4.11,6.78,6.78,0,0,0,.51-1.09c.17-.36.37-.72.56-1.06A.13.13,0,0,0,119.32,127.49Z"/><path class="cls-25" d="M139.76,122.77a3.22,3.22,0,0,0-1.27,2.2.22.22,0,0,0,.4.11,6.78,6.78,0,0,0,.51-1.09c.18-.36.37-.72.56-1.06C140,122.8,139.87,122.68,139.76,122.77Z"/><path class="cls-25" d="M122.72,133.57a1.78,1.78,0,0,0-1.25.19,2,2,0,0,0-1,.84.17.17,0,0,0,.23.23,8.18,8.18,0,0,1,1-.54,8.48,8.48,0,0,0,1-.27A.25.25,0,0,0,122.72,133.57Z"/><path class="cls-25" d="M125.57,117.09a1.77,1.77,0,0,0-1.25.19,2,2,0,0,0-1,.84.18.18,0,0,0,.23.24,7.7,7.7,0,0,1,1-.54,9.92,9.92,0,0,0,1-.28C125.84,117.44,125.75,117.16,125.57,117.09Z"/><path class="cls-25" d="M123,137.49a7.09,7.09,0,0,0-.38-.72,7,7,0,0,1-.27-.89.18.18,0,0,0-.35,0,1.66,1.66,0,0,0,.71,1.83C122.82,137.77,123,137.67,123,137.49Z"/><path class="cls-25" d="M141.79,136.38c0-.11-.24-.15-.27,0a5.1,5.1,0,0,1-.24,1.11c-.14.37-.42.64-.58,1-.06.14.05.37.23.3A2,2,0,0,0,141.79,136.38Z"/><path class="cls-25" d="M142.07,140.5a11.58,11.58,0,0,1-1.32.14,5.36,5.36,0,0,0-1.2,0,.14.14,0,0,0,0,.26,2.66,2.66,0,0,0,2.61-.22C142.21,140.66,142.19,140.49,142.07,140.5Z"/><path class="cls-25" d="M155.25,119.08c-.44,0-.87.12-1.32.13a5.36,5.36,0,0,0-1.2,0,.15.15,0,0,0,0,.26,2.65,2.65,0,0,0,2.62-.22C155.39,119.23,155.37,119.06,155.25,119.08Z"/><path class="cls-25" d="M132.18,115.14c-.44,0-.87.13-1.32.14a6,6,0,0,0-1.2,0,.15.15,0,0,0,0,.27,2.66,2.66,0,0,0,2.61-.23C132.32,115.3,132.3,115.12,132.18,115.14Z"/><path class="cls-25" d="M144.67,144.7c-.35-.23-.73-.38-1.08-.61a4.21,4.21,0,0,1-1-1,.14.14,0,0,0-.25.11,2.25,2.25,0,0,0,2.24,1.76A.16.16,0,0,0,144.67,144.7Z"/><path class="cls-30" d="M77.58,203.92a3.51,3.51,0,0,0-2.92,1.89v1.42a7.21,7.21,0,0,1,6.49-.27l.17.11v-1.42A5.55,5.55,0,0,0,77.58,203.92Z"/><path class="cls-31" d="M79.44,189.72l-7.5-4.33a7.23,7.23,0,0,1-6.47.25l-1.37.79.25.15c.24.14.21.39-.07.55a1.07,1.07,0,0,1-1,0l-.25-.15-1.28.74.26.14c.24.14.21.39-.07.55a1,1,0,0,1-1,0l-.26-.14-1.27.73.25.15c.25.14.21.39-.07.55a1.06,1.06,0,0,1-.95,0l-.25-.15-1.27.74.25.14c.24.14.21.39-.07.55a1.15,1.15,0,0,1-.73.12l-.15-.86H54.85v1.41a1.75,1.75,0,0,1,1,2.33H54.38v1.42l20.28,11.71v-1.42a3.51,3.51,0,0,1,2.92-1.89,4.2,4.2,0,0,1,1.86.41Z"/><path class="cls-30" d="M92.22,197.09v-1.41l-1.75.41-10.41-6v14.58a6.67,6.67,0,0,1,1.26,1v1.42l1.35-.79-.45-.26c-.25-.14-.22-.39.06-.55a1.09,1.09,0,0,1,1,0l.45.26L85,205l-.46-.27c-.24-.14-.21-.38.07-.55a1.07,1.07,0,0,1,1,0l.46.27,1.27-.74-.46-.26c-.24-.14-.21-.39.07-.55a1.07,1.07,0,0,1,.95,0l.46.27,1.28-.74L89.1,202c-.25-.14-.21-.38.07-.54a1,1,0,0,1,1,0l.45.26,1.39-.8-.18-.09C90.12,199.87,90.32,198.2,92.22,197.09Z"/><rect class="cls-31" x="57.22" y="188.99" width="1.47" height="2.29"/><rect class="cls-31" x="59.51" y="187.66" width="1.47" height="2.29"/><rect class="cls-31" x="61.81" y="186.34" width="1.47" height="2.29"/><rect class="cls-31" x="64.1" y="185.01" width="1.47" height="2.29"/><path class="cls-32" d="M86.8,202c-.24-.14-.21-.39.07-.55a1.07,1.07,0,0,1,.95,0l.46.27,1.28-.74-.46-.26c-.25-.14-.21-.39.07-.55a1.06,1.06,0,0,1,1,0l.45.26,1.39-.8-.18-.09c-1.66-1-1.46-2.62.44-3.73L71.94,184a7.23,7.23,0,0,1-6.47.25l-1.37.8.25.14c.24.14.21.39-.07.55a1.07,1.07,0,0,1-1,0l-.25-.14-1.28.73.26.15c.24.14.21.38-.07.55a1.06,1.06,0,0,1-1,0l-.26-.14-1.27.73.25.15c.25.14.21.39-.07.55a1.06,1.06,0,0,1-.95,0l-.25-.15-1.27.74.25.14c.24.14.21.39-.07.55a1,1,0,0,1-.95,0l-.25-.14-1.35.78c1.67,1,1.46,2.64-.47,3.74l20.28,11.71a7.21,7.21,0,0,1,6.49-.27l.17.11,1.35-.79-.45-.26c-.25-.14-.22-.39.06-.55a1.09,1.09,0,0,1,1,0l.45.27,1.28-.74-.46-.26c-.24-.14-.21-.39.07-.55a1,1,0,0,1,1,0L86,203l1.27-.73Z"/><polygon class="cls-33" points="83.46 196.02 71.51 189.13 74.84 187.21 86.78 194.1 83.46 196.02"/><polygon class="cls-16" points="74.82 204.04 57.63 194.12 58.47 193.63 75.66 203.55 74.82 204.04"/><polygon class="cls-16" points="76.63 202.99 59.44 193.07 60.29 192.58 77.48 202.5 76.63 202.99"/><path class="cls-33" d="M67.28,191.08a1.07,1.07,0,0,0-.31-.23,1.73,1.73,0,0,0-.9-.24,2,2,0,0,0-1.08.29c-.27.16-.42.33-.44.51s.09.35.34.5a1.74,1.74,0,0,0,.62.19l-.53.2-.51.22a3.06,3.06,0,0,1-.86-.35,1.21,1.21,0,0,1-.74-1.15c0-.5.42-1,1.14-1.37a4.72,4.72,0,0,1,2.16-.64,4,4,0,0,1,2.23.53A2.75,2.75,0,0,1,69,190Z"/><path class="cls-33" d="M71.09,191.16l-2.48,1.32-2.17,1.18L65,192.84l4.32-2.69Z"/><path class="cls-33" d="M74.41,193.08l-2.16,1.13-2.55,1.4c0-.24-.06-.61-.11-1.1,0-.21-.09-.51-.17-.92l-1.57.88L67,194c.39-.23,1.1-.68,2.15-1.34.85-.54,1.55-1,2.12-1.38l1.27.73-.08,1.14.54-.32.44-.29Z"/><path class="cls-33" d="M77.28,194.73l-2,1-.34-.27c-.13-.09-.27-.19-.44-.29l-.59.3c.17.11.48.29.92.52l-.49.18-.48.2-.31-.24-.4-.24-.68.37.74.38.38.14-.53.2-.53.21-2.27-1.31,2.22-1.37q.77-.47,2.1-1.32Z"/><path class="cls-33" d="M81.59,197.22l-2.34,1.23-2.31,1.27-.91-.53,1.35-.81-2.38.35.51-1.41-1.39.77-.91-.52,2.19-1.35c.59-.37,1.29-.82,2.1-1.36l1.45.84c-.09.11-.24.29-.43.55a5.52,5.52,0,0,0-.41.68l1.22-.24.93-.23Z"/><path class="cls-33" d="M80.4,201.72l-1.38-.8.29-.28-.47-.06a5.73,5.73,0,0,0-.62,0l.21-.29.17-.24-.7.24-.74-.42,2.89-1.09c.88-.34,1.69-.68,2.45-1l1.52.88c-.26.2-.84.68-1.75,1.45Zm-.64-1.48c.08-.07.2-.2.36-.37l.33-.43-.74.22c-.19.06-.45.14-.77.26l.38.17A2.26,2.26,0,0,0,79.76,200.24Z"/><path class="cls-16" d="M77.42,189.42l-.89.48-.13-.1-.2-.12-.41.21-.93.49-.57-.33c.17-.12.45-.29.83-.53.13-.08.26-.16.38-.25l-.2-.1-.19-.08.83-.52Z"/><path class="cls-16" d="M78.32,189.94l-1.17.62-1,.55-.66-.38,2-1.27Z"/><path class="cls-16" d="M78.9,191.27a.73.73,0,0,0-.15-.11.88.88,0,0,0-.42-.11,1,1,0,0,0-.51.13.35.35,0,0,0-.2.25c0,.08,0,.16.15.23a1.1,1.1,0,0,0,.29.09l-.24.09-.24.1a1.12,1.12,0,0,1-.4-.16.57.57,0,0,1-.36-.54c0-.23.2-.45.54-.64a2,2,0,0,1,1-.3,1.86,1.86,0,0,1,1,.24,1.74,1.74,0,0,1,.3.21Z"/><path class="cls-16" d="M81.48,191.89l-.86.19-1,.2a2.08,2.08,0,0,1-.06.26q0,.14,0,.36l-.39-.08-.43-.07a1.44,1.44,0,0,1,.11-.28,1.34,1.34,0,0,1,.14-.26h0l-.48.27-.66-.38,1.07-.65,1-.62.83.48-1,.51h0l.7-.22.56-.18.25.24Z"/><path class="cls-16" d="M82.89,192.58l-.92.47-.16-.13-.21-.13-.28.14.43.24-.23.09-.22.09-.15-.11-.18-.11-.32.17.34.18.18.06-.24.09-.26.1-1.06-.61,1-.64,1-.62Z"/><path class="cls-16" d="M84.44,193.47l-.9.48-.13-.1-.19-.12-.42.21-.92.49-.58-.33.84-.53.37-.24-.19-.11-.19-.08.83-.52Z"/><polygon class="cls-31" points="82.67 204.86 82.67 206.28 81.32 207.07 81.32 205.65 82.67 204.86"/><polygon class="cls-31" points="83.69 205.69 83.69 204.28 84.97 203.54 84.97 204.96 83.69 205.69"/><polygon class="cls-31" points="85.99 202.95 85.99 204.37 87.26 203.63 87.26 202.22 85.99 202.95"/><polygon class="cls-31" points="88.28 201.63 88.28 203.04 89.56 202.31 89.56 200.89 88.28 201.63"/><polygon class="cls-31" points="90.58 200.3 90.58 201.72 91.96 200.92 91.96 199.5 90.58 200.3"/><path class="cls-34" d="M50.11,203.88A3.49,3.49,0,0,1,53,205.77v1.42a7.21,7.21,0,0,0-6.49-.27l-.16.1v-1.41A5.55,5.55,0,0,1,50.11,203.88Z"/><path class="cls-22" d="M48.24,189.67l7.51-4.33a7.21,7.21,0,0,0,6.46.26l1.38.79-.26.15c-.24.14-.21.38.07.55a1.07,1.07,0,0,0,.95,0l.26-.15,1.27.74-.25.14c-.24.14-.21.39.07.55a1.06,1.06,0,0,0,1,0l.25-.15,1.27.74-.25.15c-.24.14-.21.38.07.54a1,1,0,0,0,1,0l.25-.14,1.28.73-.25.15c-.25.14-.22.39.06.55a1.16,1.16,0,0,0,.73.12l.15-.87h1.67v1.42a1.75,1.75,0,0,0-1,2.33H73.3v1.42L53,207.19v-1.42a3.49,3.49,0,0,0-2.91-1.89,4.24,4.24,0,0,0-1.87.4Z"/><path class="cls-34" d="M35.47,197.05v-1.42l1.74.41,10.41-6v14.58a6.21,6.21,0,0,0-1.25,1V207L45,206.24l.46-.27c.24-.14.21-.38-.07-.54a1,1,0,0,0-.95,0l-.46.26-1.27-.73.45-.27c.25-.14.22-.39-.06-.55a1.07,1.07,0,0,0-1,0l-.46.27-1.28-.74.46-.26c.24-.14.21-.39-.07-.55a1.07,1.07,0,0,0-1,0l-.46.26-1.27-.73.46-.27c.24-.14.21-.38-.07-.55a1.07,1.07,0,0,0-1,0l-.46.27-1.39-.8.19-.1C37.56,199.83,37.36,198.16,35.47,197.05Z"/><rect class="cls-22" x="69" y="188.95" width="1.47" height="2.29" transform="translate(139.47 380.18) rotate(180)"/><rect class="cls-22" x="66.7" y="187.62" width="1.47" height="2.29" transform="translate(134.87 377.53) rotate(180)"/><rect class="cls-22" x="64.41" y="186.3" width="1.47" height="2.29" transform="translate(130.29 374.88) rotate(180)"/><rect class="cls-22" x="62.11" y="184.97" width="1.47" height="2.29" transform="translate(125.7 372.23) rotate(180)"/><path class="cls-35" d="M40.88,201.91c.24-.14.21-.39-.07-.55a1.07,1.07,0,0,0-1,0l-.46.26-1.27-.73.46-.27c.24-.14.21-.38-.07-.54a1,1,0,0,0-1,0l-.46.26-1.39-.8.19-.09c1.65-1,1.45-2.63-.44-3.74l20.28-11.7a7.21,7.21,0,0,0,6.46.25l1.38.79-.26.15c-.24.14-.21.39.07.55a1.07,1.07,0,0,0,.95,0l.26-.15,1.27.74-.25.14c-.24.14-.21.39.07.55a1.06,1.06,0,0,0,1,0l.25-.14,1.27.73-.25.15c-.24.14-.21.39.07.55a1.07,1.07,0,0,0,1,0l.25-.15,1.28.74-.25.14c-.25.14-.22.39.06.55a1.07,1.07,0,0,0,1,0l.26-.14,1.34.77c-1.66,1-1.45,2.64.47,3.75L53,205.77a7.21,7.21,0,0,0-6.49-.27.91.91,0,0,0-.16.11L45,204.82l.46-.26c.24-.14.21-.39-.07-.55a1.07,1.07,0,0,0-.95,0l-.46.26-1.27-.73.45-.27c.25-.14.22-.38-.06-.55a1.07,1.07,0,0,0-1,0l-.46.27-1.28-.74Z"/><polygon class="cls-33" points="44.23 195.98 56.17 189.08 52.85 187.16 40.9 194.06 44.23 195.98"/><polygon class="cls-16" points="52.87 204 70.06 194.07 69.21 193.59 52.02 203.51 52.87 204"/><polygon class="cls-16" points="51.05 202.95 68.24 193.02 67.4 192.54 50.21 202.46 51.05 202.95"/><path class="cls-33" d="M47.71,198.26a2.34,2.34,0,0,0-.41.18c-.27.16-.4.33-.41.52s.16.43.51.63a2,2,0,0,0,.89.25,1.6,1.6,0,0,0,.85-.2.69.69,0,0,0,.33-.35l.36.3c.11.1.24.19.37.3a1.78,1.78,0,0,1-.6.49,3.71,3.71,0,0,1-2,.43,4.93,4.93,0,0,1-2.39-.66c-.67-.39-1-.8-1.09-1.25s.24-.9.91-1.28a3.89,3.89,0,0,1,.76-.37Z"/><path class="cls-33" d="M47.85,196.06l2.29,1.44,2,1.25-1.42.82-4.66-2.5Z"/><path class="cls-33" d="M51.17,194.14c.37.25,1,.66,2,1.25l2.42,1.47-1.9.07-1.59.09,1.52.91-.81.47-2.33-1.23-2.38-1.23,1.27-.73,2,0-.57-.32-.5-.25Z"/><path class="cls-33" d="M54,192.49l1.74,1.13-.47.2a4.55,4.55,0,0,0-.49.25l.52.34c.19-.1.49-.28.89-.53l.32.29.34.27-.42.18-.41.23.63.39c.12-.07.35-.21.66-.42a2.11,2.11,0,0,0,.25-.23s.16.15.34.31l.36.31L56,196.52l-2.37-1.28c-.54-.3-1.3-.7-2.29-1.22Z"/><path class="cls-33" d="M58.34,190l2.14,1.35c.64.4,1.38.85,2.2,1.33l-.92.53-1.4-.78.59,1.38-2.44-.3,1.34.8-.91.53-2.33-1.27c-.63-.34-1.42-.74-2.36-1.21l1.45-.83,1,.24c.32.08.71.16,1.18.24-.06-.12-.2-.35-.42-.7-.08-.13-.22-.31-.4-.54Z"/><path class="cls-33" d="M66.14,190.69l-1.39.8-.48-.18a2.26,2.26,0,0,0-.11.28,1.28,1.28,0,0,0,0,.36l-.5-.12-.42-.1.43.4-.73.43c-.38-.34-1-.9-1.88-1.67-.61-.51-1.19-1-1.76-1.42l1.52-.87,2.52,1Zm-2.56.36-.65-.2-.73-.19.37.43.44.44a2.89,2.89,0,0,0,.31-.22A1.6,1.6,0,0,0,63.58,191.05Z"/><path class="cls-16" d="M44.84,192.41l.83.51-.17.08-.21.11a3.43,3.43,0,0,0,.36.24l.84.54-.57.33-.91-.48-.43-.22-.18.11-.15.11-.89-.48Z"/><path class="cls-16" d="M45.73,191.89l1.08.67.95.59-.66.39-2.19-1.17Z"/><path class="cls-16" d="M48,191.56a.52.52,0,0,0-.19.08c-.13.07-.2.16-.2.25s.08.19.24.29a1,1,0,0,0,.42.12.77.77,0,0,0,.4-.1.29.29,0,0,0,.15-.16l.17.14.18.14a.94.94,0,0,1-.29.23,1.78,1.78,0,0,1-.93.2,2.27,2.27,0,0,1-1.12-.31c-.32-.18-.49-.37-.51-.58s.11-.43.42-.61a2.65,2.65,0,0,1,.36-.17Z"/><path class="cls-16" d="M49.11,190.06l.33.5.36.56.44,0,.62,0-.13.23c0,.06-.08.14-.13.25l-.48-.06-.45-.09h0l.46.28-.66.37-1.13-.61L47.28,191l.82-.48.88.56h0l-.37-.4-.33-.33.42-.14Z"/><path class="cls-16" d="M50.3,189.25l.82.53-.22.1-.23.11.24.17.42-.25.15.13.16.13-.19.08-.2.11.3.19.31-.2a1.11,1.11,0,0,0,.11-.11l.16.14.18.15-1.07.61-1.11-.6L49.05,190Z"/><path class="cls-16" d="M51.86,188.36l.82.51-.17.08-.21.11.37.24.84.54-.58.33-.9-.48-.43-.22-.18.11-.15.11-.89-.48Z"/><polygon class="cls-22" points="45.01 204.82 45.01 206.24 46.37 207.02 46.37 205.6 45.01 204.82"/><polygon class="cls-22" points="43.99 205.65 43.99 204.23 42.72 203.5 42.72 204.91 43.99 205.65"/><polygon class="cls-22" points="41.7 202.91 41.7 204.33 40.42 203.59 40.42 202.17 41.7 202.91"/><polygon class="cls-22" points="39.4 201.59 39.4 203 38.13 202.27 38.13 200.85 39.4 201.59"/><polygon class="cls-22" points="37.11 200.26 37.11 201.68 35.72 200.88 35.72 199.46 37.11 200.26"/><path class="cls-27" d="M64.55,66.22a3.15,3.15,0,0,0-3.24.2l-6.59,3.8V71.8L62,67.6a2.53,2.53,0,0,1,1.2-.37,1.34,1.34,0,0,1,.67.17,2.9,2.9,0,0,1,1,2.57V87c0,2.62-1.64,5.77-3.57,6.89l-6.59,3.8v1.58L62,95.05c2.35-1.36,4.25-5,4.25-8.07V70A4.11,4.11,0,0,0,64.55,66.22Z"/><path class="cls-27" d="M54.72,97.67l3.89,2.26a71.91,71.91,0,0,0,7.16-3.62c1.16-.91,3.38-4.21,3.55-5.64s0-20.16,0-20.16L67.5,68.66l-2,.29s-.24,12.11-.18,13.64.11,7.67-1,9.15a18.32,18.32,0,0,1-4.67,3.94C58.79,96.14,54.72,97.67,54.72,97.67Z"/><polygon class="cls-27" points="68.04 68.3 64.55 66.22 59.99 68.12 54.72 70.22 58.6 72.48 65.77 68.82 68.04 68.3"/><path class="cls-24" d="M68.43,68.48a3.15,3.15,0,0,0-3.24.2l-6.58,3.81v1.57l7.27-4.2a2.49,2.49,0,0,1,1.2-.37,1.39,1.39,0,0,1,.67.17,2.92,2.92,0,0,1,1,2.57v17c0,2.61-1.63,5.76-3.57,6.88l-6.58,3.8v1.58l7.27-4.2c2.34-1.35,4.25-5,4.25-8.06v-17A4.12,4.12,0,0,0,68.43,68.48Z"/><path class="cls-22" d="M75.67,128.81v-.26c-.23-12.65-16.32-62.7-16.32-62.7H52.12c.44,8.81,2.41,49.07,2.41,54.89,0,4.67,0,15.47,0,21.28a35.46,35.46,0,0,0,11.71-2.57c6.16-2.6,9.42-6.58,9.46-10.62h0Z"/><path class="cls-22" d="M48.12,65.85H44.69S28.55,116,28.36,128.6v.23h0c0,2.63,1.47,5.28,4.35,7.58A142.41,142.41,0,0,1,35,118.35C37,108.54,45.52,75.75,48.12,65.85Z"/><path class="cls-22" d="M52.12,65.85h-4C45.52,75.75,37,108.54,35,118.35a142.41,142.41,0,0,0-2.28,18.06l.37.31c5.18,3.92,13.41,5.76,21.41,5.3,0-5.81,0-16.61,0-21.28C54.53,114.92,52.56,74.66,52.12,65.85Z"/><path class="cls-24" d="M52.12,65.85h-4C45.52,75.75,37,108.54,35,118.35a142.41,142.41,0,0,0-2.28,18.06l.37.31c5.18,3.92,13.41,5.76,21.41,5.3,0-5.81,0-16.61,0-21.28C54.53,114.92,52.56,74.66,52.12,65.85Z"/><path class="cls-27" d="M63.27,52.05l-22.49.08,3.66,13.69v.05h0a3.79,3.79,0,0,0,1.45,1.94c2.54,1.92,7.35,2.32,10.75.89,1.8-.77,2.83-1.89,3-3.07Z"/><path class="cls-24" d="M61,47.83c-3.73-2.82-10.78-3.4-15.75-1.3s-6,6.09-2.26,8.91,10.79,3.4,15.76,1.3,6-6.09,2.25-8.91Z"/><path class="cls-22" d="M59.3,48.33c-3-2.28-8.72-2.75-12.75-1a6.11,6.11,0,0,0-3.35,2.83c2.18-1.72,5.59-2,8.2-1.48,3.45.73,5.35,3.71,6,6.95l.11,0C61.5,53.84,62.31,50.61,59.3,48.33Z"/><path class="cls-22" d="M51.4,48.63c-2.61-.56-6-.24-8.2,1.48-.66,1.46-.19,3.07,1.53,4.37,3,2.26,8.62,2.74,12.64,1.1C56.75,52.34,54.85,49.36,51.4,48.63Z"/><path class="cls-36" d="M51.4,48.63c-2.61-.56-6-.24-8.2,1.48-.66,1.46-.19,3.07,1.53,4.37,3,2.26,8.62,2.74,12.64,1.1C56.75,52.34,54.85,49.36,51.4,48.63Z"/><path class="cls-37" d="M44.58,101.05a1.49,1.49,0,0,0-2.95-.35c-.11.72-3.91,19-5.16,27-.39,2.47-1.06,5.64.77,7.73a6.26,6.26,0,0,0,3.4,2.06c1.84.58,5.75.62,5.4-3.31-.17-1.89-.2-7.7-.57-14.65C44.91,109.21,44.64,102.26,44.58,101.05Z"/><path class="cls-16" d="M42.7,128.93c-.11-4.19-.32-8.29-2.45-7.71-.57.16-1.45,3.65-2,7.07-.41,2.52-.8,5,0,6.08a2.92,2.92,0,0,0,3.61.7C43.23,134.11,42.73,130.32,42.7,128.93Z"/><path class="cls-27" d="M65.75,99.9a12.47,12.47,0,0,1-.61,1.14,4,4,0,0,0-.58,1.07.3.3,0,0,0,.44.34,4.33,4.33,0,0,0,1.23-2.34C66.32,99.83,65.88,99.62,65.75,99.9Z"/><path class="cls-27" d="M68.84,104a5.43,5.43,0,0,0-1.4-.27c-.52-.1-1-.26-1.52-.41-.17,0-.35.21-.19.33.75.59,2.18,1.21,3.11.77A.24.24,0,0,0,68.84,104Z"/><path class="cls-27" d="M74.09,127a.19.19,0,0,0-.32,0,5.59,5.59,0,0,0-.31,1.17,4.11,4.11,0,0,0-.35,1.18.24.24,0,0,0,.37.21,1.86,1.86,0,0,0,.63-1.21A2.14,2.14,0,0,0,74.09,127Z"/><path class="cls-27" d="M72.2,132a4.79,4.79,0,0,0-.87-.67,3.84,3.84,0,0,1-.8-.86.25.25,0,0,0-.45.19c.24.81,1,1.91,2,1.73A.24.24,0,0,0,72.2,132Z"/><path class="cls-27" d="M73.11,121.53c-.5-.74-2-.3-2.51.29a.14.14,0,0,0,.1.23c.41,0,.81-.09,1.21-.09s.75.16,1.1,0A.31.31,0,0,0,73.11,121.53Z"/><path class="cls-27" d="M71.44,117.41a.26.26,0,0,0-.25.44,7,7,0,0,1,.71.73,5.35,5.35,0,0,0,.62.8.3.3,0,0,0,.5-.21C73,118.36,72.15,117.62,71.44,117.41Z"/><path class="cls-27" d="M68,134.62a7.21,7.21,0,0,1-1.4,1.52A11.09,11.09,0,0,0,65,137.27a.24.24,0,0,0,.17.4,2.83,2.83,0,0,0,1.84-.95,5.55,5.55,0,0,0,1.33-1.88A.22.22,0,0,0,68,134.62Z"/><path class="cls-27" d="M62.05,137.33a9.68,9.68,0,0,0-.95-1.07c-.18-.18-.42,0-.33.25a10.91,10.91,0,0,0,.71,1.25,2.69,2.69,0,0,0,.79,1,.31.31,0,0,0,.45-.35A2.62,2.62,0,0,0,62.05,137.33Z"/><path class="cls-27" d="M58.08,138.35a7.55,7.55,0,0,0-1.18.93,3.92,3.92,0,0,0-1,.79.14.14,0,0,0,.09.21,1.88,1.88,0,0,0,1.45-.45,2,2,0,0,0,1-1.23A.22.22,0,0,0,58.08,138.35Z"/><path class="cls-27" d="M60,72.56a.15.15,0,0,0-.27,0c-.09.63-.07,1.28-.15,1.92a8.46,8.46,0,0,0-.31,1.91.2.2,0,0,0,.35.15C60.5,75.72,60.48,73.61,60,72.56Z"/><path class="cls-27" d="M59.59,79c-.28-.67-.94-1.16-1.29-1.8-.12-.23-.5-.07-.43.19.22.74.56,1.69,1.37,2C59.43,79.44,59.68,79.23,59.59,79Z"/><path class="cls-27" d="M65.49,94.17a.14.14,0,0,0-.26.07c0,.59.14,1.17.15,1.76a13.37,13.37,0,0,0,0,1.79.21.21,0,0,0,.39.1A4,4,0,0,0,65.49,94.17Z"/><path class="cls-38" d="M110.85,155.1c-6.1-4.14-11.58-8-15.42-10.27S79.93,137,79.93,137s-7.56,5.34-9.91,6.7c-1.73,1-4.08,2.17-6.7,3.42l-22.08-2.45v3.19A3.37,3.37,0,0,0,42.48,149c-.34.41-1.24,0-1.24,0v5.56s.63.55,1.37,1.11a1.34,1.34,0,0,1-1.37,0v3.61s7.26,5.26,16,10.31c11,6.37,24.64,11.86,31.24,15.66,3.73,2.16,14.94,9.92,14.94,9.92-.57-2.63-.12-7.28,0-9.58s0-5.09,0-5.09Z"/><path class="cls-8" d="M142.84,160v-3.19l-22.33,2.48-.13,2c-3.25-2-6.47-4.14-9.53-6.23l-7.43,25.47s.11,2.79,0,5.09-.57,7,0,9.58c0,0,4.47-3.23,9.67-6.24,7.34-4.23,16.41-7.39,20.92-10,1.92-1.11,8.46-7.2,8.79-7.52h0v-3.61a1.36,1.36,0,0,1-1.38,0c.74-.56,1.38-1.1,1.38-1.1v-5.56s-.91.37-1.25,0A3.45,3.45,0,0,0,142.84,160Z"/><path class="cls-17" d="M103.42,180.57s4.47-3.24,9.67-6.25c7.34-4.23,16.41-7.39,20.92-10,2-1.14,8.83-7.54,8.83-7.54A88.77,88.77,0,0,1,124.36,149c-11-6.36-22.37-15.1-28.93-18.89-3.71-2.14-15.5-7.82-15.5-7.82S72.37,127.67,70,129c-5.27,3-16.18,7.6-23,11.53a52.52,52.52,0,0,0-5.79,4.12s7.26,5.26,16,10.31c11,6.37,24.64,11.86,31.24,15.66C92.21,172.8,103.42,180.57,103.42,180.57Z"/><path class="cls-26" d="M132.4,167.08a118.35,118.35,0,0,0-13.43,6.7c-4.33,2.35-8.91,4.73-12.66,8-.07.06,0,.17.11.13,4.38-2.34,8.51-5.14,12.9-7.49s9-4.28,13.27-6.86C132.82,167.39,132.67,167,132.4,167.08Z"/><path class="cls-26" d="M139.47,166.93a67.9,67.9,0,0,1-9.69,6.18c-3.43,1.65-7.19,2.61-10.48,4.55a.35.35,0,0,0,.35.6c3.54-1.74,7.36-2.82,10.88-4.59a44,44,0,0,0,9-6.61C139.63,167,139.54,166.88,139.47,166.93Z"/><path class="cls-26" d="M127.82,179.14a68.77,68.77,0,0,0-10.61,4.44c-3.36,1.62-7.16,3.23-10,5.61-.18.14,0,.48.22.39,3.4-1.4,6.54-3.6,9.81-5.27,3.51-1.79,7.18-3.26,10.68-5.06C127.93,179.22,127.89,179.12,127.82,179.14Z"/><path class="cls-26" d="M122.48,178.16a8.69,8.69,0,0,0-3,1.24,34.28,34.28,0,0,0-3.74,2c-.24.16-.09.6.21.49a31.84,31.84,0,0,0,3.43-1.66,10,10,0,0,0,3.19-2A.06.06,0,0,0,122.48,178.16Z"/><path class="cls-8" d="M64.36,161c-3.52-1.89-7.16-3.51-10.63-5.5s-6.63-4.46-10.11-6.4c0,0-.11,0-.06.09,2.8,2.79,6.44,4.89,9.84,6.88a57.79,57.79,0,0,0,10.84,5.21A.15.15,0,0,0,64.36,161Z"/><path class="cls-8" d="M69.24,164.46a123.65,123.65,0,0,0-12.89-4.62s0,0,0,0a56.82,56.82,0,0,0,12.8,5A.2.2,0,0,0,69.24,164.46Z"/><path class="cls-8" d="M100.61,190c-3.19-2.95-7.22-5.23-11-7.34a73,73,0,0,0-12-5.58.1.1,0,0,0-.07.18c4.11,1.9,8.23,3.71,12.19,5.93,3.75,2.1,7.19,4.69,10.9,6.84C100.6,190,100.63,190,100.61,190Z"/><path class="cls-8" d="M89.43,179.59a60.9,60.9,0,0,0-14.91-5.4.09.09,0,0,0,0,.17c4.84,2,9.82,4,14.81,5.58A.19.19,0,0,0,89.43,179.59Z"/><path class="cls-8" d="M97.49,179.39c-2.82-2.83-7-4.83-10.58-6.45,0,0-.07,0,0,.05,1.77,1,3.54,2.12,5.29,3.22a60.3,60.3,0,0,0,5.2,3.33A.1.1,0,0,0,97.49,179.39Z"/><path class="cls-33" d="M67.4,147.63a1.47,1.47,0,0,0-.33.13.25.25,0,0,0-.13.18q0,.13.18.24a2.88,2.88,0,0,0,.76.19,3,3,0,0,1,1,.3c.32.19.48.4.48.65a.78.78,0,0,1-.46.61,3.13,3.13,0,0,1-.68.31l-.52-.21-.53-.19a2.71,2.71,0,0,0,.45-.17c.25-.15.27-.28,0-.41a1.31,1.31,0,0,0-.58-.16H66a3.25,3.25,0,0,1-1.65-.39c-.47-.27-.67-.57-.61-.88s.3-.54.75-.8a5.63,5.63,0,0,1,1-.41Z"/><path class="cls-33" d="M70.46,145.86a1.38,1.38,0,0,0-.4.18.66.66,0,0,0-.42.52c0,.22.16.42.51.62a1.83,1.83,0,0,0,.89.25,1.49,1.49,0,0,0,.85-.19.78.78,0,0,0,.34-.36l.35.31.38.29a1.88,1.88,0,0,1-.6.5,3.77,3.77,0,0,1-2,.43,5,5,0,0,1-2.39-.66c-.67-.39-1-.81-1.09-1.25s.24-.9.91-1.29a4.37,4.37,0,0,1,.76-.36Z"/><path class="cls-33" d="M71.51,143.13l1.74,1.13-.47.2-.49.26.52.34c.19-.1.49-.28.89-.53l.32.28.35.28a3.53,3.53,0,0,0-.42.18,4,4,0,0,0-.41.23l.62.39.67-.43.24-.22.34.31.37.31-2.27,1.3-2.37-1.28c-.54-.29-1.3-.7-2.3-1.21Z"/><path class="cls-33" d="M74.84,141.21l2,1.25,2.43,1.47-1.91.07-1.59.09,1.53.91-.82.47-2.33-1.24c-.94-.49-1.73-.89-2.39-1.22l1.28-.74,2,0L74.4,142l-.5-.26Z"/><path class="cls-33" d="M82.64,141.89l-1.39.8-.48-.17a2.26,2.26,0,0,0-.11.28,1.28,1.28,0,0,0,0,.36l-.5-.12-.42-.1.43.4-.73.43-1.89-1.67c-.6-.51-1.19-1-1.76-1.42l1.52-.88c.36.15,1.2.49,2.53,1C80.5,141.08,81.45,141.45,82.64,141.89Zm-2.56.37-.66-.2-.73-.19.38.43.44.44.31-.22A1.6,1.6,0,0,0,80.08,142.26Z"/><path class="cls-33" d="M83.32,138.25a1.56,1.56,0,0,1,.7.7.69.69,0,0,1-.06.64l.92.11c.22,0,.54,0,.94,0l-.27.45c-.09.16-.17.32-.24.47l-.87-.12c-.23,0-.59-.12-1.09-.24h0l1,.6-1.43.83-2.18-1.17q-.89-.49-2.49-1.32a12.23,12.23,0,0,1,1.19-.79A3.67,3.67,0,0,1,83.32,138.25Zm-.51,1a.92.92,0,0,0-.61-.11,1.13,1.13,0,0,0-.45.17l1,.59a.6.6,0,0,0,.27-.28C83.06,139.51,83,139.39,82.81,139.28Z"/><path class="cls-33" d="M83.55,136.18l2.29,1.44,2,1.25-1.43.82-4.66-2.49Z"/><path class="cls-33" d="M89.3,135.34a2.72,2.72,0,0,1,1.29,1.28.87.87,0,0,1-.5,1.14,3.1,3.1,0,0,1-2,.29,5.64,5.64,0,0,1-2.19-.74c-.74-.42-1.15-.85-1.24-1.28s.13-.76.63-1.05a3.12,3.12,0,0,1,1.8-.35A5.11,5.11,0,0,1,89.3,135.34Zm-.7,1c-.54-.31-1-.38-1.29-.19s-.19.42.35.74a2.84,2.84,0,0,0,.74.28.92.92,0,0,0,.65,0c.13-.07.14-.2,0-.39A1.32,1.32,0,0,0,88.6,136.34Z"/><path class="cls-23" d="M90.23,140.74a60.8,60.8,0,0,0-6.92,4.35c-2,1.3-4.46,2.5-6.07,4.28a0,0,0,0,0,0,.06c2.38-.76,4.59-2.63,6.69-4a56.5,56.5,0,0,0,6.52-4.36C90.69,140.92,90.44,140.65,90.23,140.74Z"/><path class="cls-23" d="M93,142c-2.31,1.48-4.59,3-6.87,4.51A53.13,53.13,0,0,0,80,150.82c-.1.08,0,.26.13.21a53.86,53.86,0,0,0,6.35-3.91c2.3-1.49,4.6-3,6.87-4.5C93.71,142.38,93.35,141.8,93,142Z"/><path class="cls-23" d="M105.83,142.34c-4.13,2.17-8.08,4.72-12.06,7.18a118.48,118.48,0,0,0-11.13,7.24c-.11.08,0,.23.13.17,4-2,7.85-4.64,11.7-7s7.84-4.62,11.61-7.16A.25.25,0,0,0,105.83,142.34Z"/><path class="cls-23" d="M107.89,144.25a43,43,0,0,0-10.22,6.93c-.19.17.06.5.27.36a115.13,115.13,0,0,0,10.12-7.07C108.2,144.36,108,144.19,107.89,144.25Z"/><path class="cls-39" d="M50.18,143c1.84-2.11,5.34-3.91,10.4-5.68A61.42,61.42,0,0,1,71,134.78s-5,4.54-8.11,7.14a45.28,45.28,0,0,1-7.92,4.9l2.31-5.43S51.66,142.8,50.18,143Z"/><path class="cls-39" d="M114.17,166.43s-9.78-1.14-14.4,0a35.53,35.53,0,0,0-7.39,2.62,44.39,44.39,0,0,0,9.7.45C106.43,169.08,114.17,166.43,114.17,166.43Z"/><path class="cls-40" d="M217.73,184.85l.14-.12s-1.23-.69-1.37-.75c-2.16-1-4.07-2.14-7.17-.35l-19.08,11c-2.75,1.59-3.57.11-6,1.53l-9.79,5.65v6l9.79-5.66c2.34-1.34,3.2-3.61,5.66-5.19l.47-.27,18.86-10.89c1.68-1,2.19.06,3.38,1.22.69.68,1.55,2.39,2.61,3l1,.57.21-.38a2.89,2.89,0,0,0,1.39-1.24A3.25,3.25,0,0,0,217.73,184.85Z"/><path class="cls-38" d="M217.49,184.53c-2.16-1-4.06-2.14-7.17-.34l-19.07,11c-2.76,1.59-3.57.11-6,1.52l-9.8,5.66v6l9.8-5.66c2.33-1.35,3.19-3.61,5.66-5.2l.46-.26,18.86-10.89c1.68-1,2.2,0,3.38,1.22s2.91,5.42,5.25,2A3.25,3.25,0,0,0,217.49,184.53Z"/><path class="cls-40" d="M180.53,163.45l.15-.12s-1.23-.69-1.37-.75c-2.16-1-4.07-2.14-7.18-.35s-16.31,9.42-19.07,11-3.57.12-6,1.53l-9.8,5.66v6l9.8-5.65c2.34-1.35,3.2-3.61,5.66-5.2l.46-.27L172,164.44c1.68-1,2.19.06,3.38,1.22.69.68,1.55,2.39,2.61,3l1,.58.22-.39a2.89,2.89,0,0,0,1.39-1.24A3.24,3.24,0,0,0,180.53,163.45Z"/><path class="cls-38" d="M180.3,163.13c-2.16-1-4.07-2.13-7.17-.34l-19.07,11c-2.76,1.59-3.58.11-6,1.53L138.24,181v6l9.79-5.66c2.34-1.35,3.2-3.61,5.66-5.19l.47-.27L173,165c1.68-1,2.19.06,3.38,1.22s2.9,5.42,5.24,2A3.25,3.25,0,0,0,180.3,163.13Z"/><path class="cls-8" d="M175.16,200.64l-17.25-10L155,189l-17.25-10c-.79-.46-1.43,0-1.43,1.08v5.62a5.66,5.66,0,0,0,1.71,3.9,50.28,50.28,0,0,0,5.37,4.4l9.28,5.36c1,.57,1.54-.39,1.72-1.31.38-1.93.66-3.92,2-3.17h0c1.37.84,1.65,3.15,2,5.52.18,1.13.73,2.73,1.72,3.3l9.28,5.35a27.38,27.38,0,0,0,5.37,1.8c1,.25,1.71-.54,1.71-1.92v-5.63A3.43,3.43,0,0,0,175.16,200.64Z"/><polygon class="cls-8" points="135.72 179.63 136.86 178.99 137.79 179.76 136.25 180.75 135.72 179.63"/><polygon class="cls-8" points="152.59 200.1 153.65 199.51 153.61 198.58 152 199.45 152.59 200.1"/><polygon class="cls-8" points="174.67 211.45 175.88 210.77 175.64 210.02 174.3 210.77 174.67 211.45"/><path class="cls-17" d="M174.08,201.23l-17.25-10L154,189.62l-17.25-10c-.79-.45-1.43,0-1.43,1.09v5.62a5.68,5.68,0,0,0,1.71,3.9,50.52,50.52,0,0,0,5.37,4.4l9.28,5.36c1,.57,1.53-.39,1.72-1.31.38-1.93.66-3.92,2-3.18h0c1.37.84,1.64,3.15,2,5.52.18,1.13.73,2.72,1.72,3.29l9.28,5.36a26.87,26.87,0,0,0,5.36,1.79c1,.26,1.72-.53,1.72-1.91V204A3.46,3.46,0,0,0,174.08,201.23Z"/><path class="cls-22" d="M150.33,189.21l-4.74-2.74-2.48,6.5,7.23,4.17c.67.39,1.22,0,1.22-.93v-4.65A3,3,0,0,0,150.33,189.21Z"/><path class="cls-22" d="M138,182.09c-.68-.39-1.23,0-1.23.93v3.32a3.85,3.85,0,0,0,.42,1.66l2-5.22Z"/><path class="cls-22" d="M143.29,185.14l-2.43,6.37c.37.28.7.53,1,.7l2.48-6.48Z"/><path class="cls-22" d="M139.19,182.78l-2,5.22a3.5,3.5,0,0,0,.82,1.12c.83.73,1.94,1.68,2.84,2.39l2.43-6.37Z"/><path class="cls-41" d="M139.19,182.78l-2,5.22a3.5,3.5,0,0,0,.82,1.12c.83.73,1.94,1.68,2.84,2.39l2.43-6.37Z"/><path class="cls-22" d="M144.3,185.73l-2.48,6.48.2.13,1.09.63,2.48-6.5Z"/><path class="cls-41" d="M144.3,185.73l-2.48,6.48.2.13,1.09.63,2.48-6.5Z"/><path class="cls-15" d="M160.07,194.83c-.68-.39-1.23,0-1.23.93v4.65a2.8,2.8,0,0,0,.25,1.12l2.27-5.95Z"/><path class="cls-15" d="M172.39,202l-4.32-2.5-2.48,6.49,2.78,1.61a23,23,0,0,0,4,1.41c.73.2,1.24-.36,1.24-1.35v-3.32A2.91,2.91,0,0,0,172.39,202Z"/><polygon class="cls-15" points="165.46 197.94 162.98 204.44 164.3 205.2 166.78 198.7 165.46 197.94"/><polygon class="cls-15" points="166.78 198.7 164.3 205.2 165.59 205.94 168.07 199.45 166.78 198.7"/><polygon class="cls-42" points="166.78 198.7 164.3 205.2 165.59 205.94 168.07 199.45 166.78 198.7"/><path class="cls-15" d="M161.36,195.58l-2.27,5.95a2.53,2.53,0,0,0,1,1.22l2.92,1.69,2.48-6.5Z"/><path class="cls-42" d="M161.36,195.58l-2.27,5.95a2.53,2.53,0,0,0,1,1.22l2.92,1.69,2.48-6.5Z"/><path class="cls-25" d="M216.74,189.49c-.11-.2-.37-.26-.52-.42a3.14,3.14,0,0,1-.37-.64s-.06,0-.08,0a.79.79,0,0,0,.1.89c.17.23.52.55.82.35A.14.14,0,0,0,216.74,189.49Z"/><path class="cls-25" d="M218,187.3c-.14.34-.41.6-.55.93-.06.14.13.23.24.18a1.8,1.8,0,0,0,.68-1C218.43,187.17,218.06,187.08,218,187.3Z"/><path class="cls-25" d="M188,198.65a3.16,3.16,0,0,0-.71.75,4.32,4.32,0,0,0-.61.86.13.13,0,0,0,.2.15,3.55,3.55,0,0,0,.69-.8,2.84,2.84,0,0,0,.5-.9A.05.05,0,0,0,188,198.65Z"/><path class="cls-25" d="M185.33,199.83a.07.07,0,0,0-.12.07,1.83,1.83,0,0,0,.52,1.13.11.11,0,0,0,.16-.06A1.42,1.42,0,0,0,185.33,199.83Z"/><path class="cls-25" d="M184.61,202c-.42.1-.82.29-1.24.41s-.85.16-1.25.31c-.07,0-.09.14,0,.16a3.52,3.52,0,0,0,2.61-.59C184.87,202.19,184.79,202,184.61,202Z"/><path class="cls-25" d="M179.51,168.08c-.11-.2-.36-.26-.52-.42a2.89,2.89,0,0,1-.37-.64s-.06,0-.08,0a.78.78,0,0,0,.11.89c.16.23.51.55.81.36A.13.13,0,0,0,179.51,168.08Z"/><path class="cls-25" d="M180.74,165.9c-.13.34-.41.59-.55.92-.06.14.13.23.24.18a1.73,1.73,0,0,0,.68-1C181.2,165.76,180.83,165.67,180.74,165.9Z"/><path class="cls-25" d="M150.73,177.25a3.13,3.13,0,0,0-.71.74,4.34,4.34,0,0,0-.6.87c-.07.13.08.23.19.15a3.57,3.57,0,0,0,.69-.81,2.66,2.66,0,0,0,.5-.9A0,0,0,0,0,150.73,177.25Z"/><path class="cls-25" d="M148.1,178.42a.07.07,0,0,0-.12.07,2,2,0,0,0,.53,1.14.11.11,0,0,0,.15-.07A1.41,1.41,0,0,0,148.1,178.42Z"/><path class="cls-25" d="M147.38,180.59c-.42.11-.82.29-1.24.41s-.84.16-1.25.32c-.07,0-.09.14,0,.16a3.56,3.56,0,0,0,2.61-.6C147.64,180.78,147.56,180.54,147.38,180.59Z"/></g></g></svg>