<svg xmlns="http://www.w3.org/2000/svg" viewBox="0 0 127.14 191.49"><defs><style>.cls-1{fill:#82b7bc;}.cls-2{fill:#a3d0d8;}.cls-3{fill:#709da0;}.cls-4{fill:#bce0e8;}</style></defs><g id="Layer_2" data-name="Layer 2"><g id="OBJECTS"><path class="cls-1" d="M77.84,169a.77.77,0,0,0-.12-.36.61.61,0,0,0-.6-.36l-27.92.45a.72.72,0,0,0-.72.72c.22,5.38-.23,10.92.66,16.25.82,5,6.27,5.35,10.48,5.6,5.4.31,13.11.5,16.21-2.36C79.42,185.66,78,174.29,77.84,169Z"/><path class="cls-2" d="M53.33,179.53a5.37,5.37,0,0,1-5.2-4,.44.44,0,0,1,.32-.52.43.43,0,0,1,.52.33c0,.16,1,4.06,5.6,3.23,3-.55,3.28-6.94,3.28-7a.43.43,0,0,1,.85-.11c.08.28.16.64.25,1.06.36,1.54.89,3.88,2,4.86,1.39,1.22,4.6,1.36,6.26.63s2.55-3.08,2.48-5.26c0-.31-.07-.63-.08-1a.43.43,0,0,1,.85-.08,7.44,7.44,0,0,1,.09,1c.36,2.34,1.74,4.3,3.48,4.82,1.39.41,2.73-.18,3.79-1.66a.42.42,0,0,1,.6-.1.43.43,0,0,1,.1.6c-1.27,1.78-3,2.5-4.74,2A5.79,5.79,0,0,1,70.34,175a5.14,5.14,0,0,1-2.79,3.82c-1.91.85-5.47.69-7.16-.79a8.15,8.15,0,0,1-2-4c-.41,2.14-1.38,5-3.7,5.4A7.93,7.93,0,0,1,53.33,179.53Z"/><path class="cls-3" d="M62.51,166.41c-2.95,0-13,.13-14.1,2.4-1.47,3.18,14.87,2.93,18,2.83C81.39,171.15,83.18,165.66,62.51,166.41Z"/><path class="cls-2" d="M62.51,165.84c-1.71,0-16-.25-14.74,3.63.64,1.9,3.68,2.07,5.29,2.29a74.15,74.15,0,0,0,10.75.5,55.33,55.33,0,0,0,9.45-.74c1.4-.25,4.43-.73,5-2.36,1.6-4.2-14.66-3.36-15.8-3.32-.73,0-.74,1.17,0,1.15a77.81,77.81,0,0,1,9.78.2c.58.06,6.27.82,4.4,2-3.44,2.24-8.94,1.85-12.88,1.88-4.4,0-9.1.12-13.38-1-2.06-.55-.67-1.75.71-2.15a24.64,24.64,0,0,1,4.46-.68c2.29-.23,4.61-.27,6.91-.27A.58.58,0,0,0,62.51,165.84Z"/><path class="cls-1" d="M78,134.74c-.19,11.31-.6,22.62-.75,33.92a.43.43,0,0,0,.86,0c.15-11.3.56-22.61.74-33.92a.43.43,0,0,0-.85,0Z"/><path class="cls-1" d="M46.28,134.55c.35,11.45.5,22.86,1.7,34.26.06.54.92.55.86,0-1.2-11.4-1.35-22.81-1.7-34.26,0-.56-.88-.56-.86,0Z"/><path class="cls-1" d="M61.77,136.46c1,11.54-.24,23.12.77,34.66.05.55.91.55.86,0-1-11.54.2-23.12-.76-34.66,0-.55-.91-.55-.87,0Z"/><path class="cls-2" d="M122.32,36.23c-3.6-9.15-10.25-18.27-20.66-20.15h-.23l-.17,0c-7.77-.79-12.29,7-15,12.89-4.93,10.72-7.1,22.73-9,34.25-3.8,22.67-7.72,47.51-1.07,70a1.51,1.51,0,0,0,2.71.35c7.1-10.93,21.78-14.67,31.15-23.39,9.8-9.11,14.78-22.43,16.38-35.32C128,61.65,127.23,48.65,122.32,36.23Z"/><path class="cls-4" d="M44.94,72.9c-3.45-18.65-11.59-37.3-21-53.83a1.31,1.31,0,0,0-1.36-.69,1.47,1.47,0,0,0-.66.17C12.47,23.41,7.39,32.73,4.2,42.34.79,52.66-1,65.24.59,76c2.05,14,10,26.33,20.35,35.88,8.53,7.84,19.13,12.92,26.75,21.87a1.49,1.49,0,0,0,2.52-1C50,112.8,48.58,92.55,44.94,72.9Z"/><path class="cls-4" d="M89.89,5.27C81.54.72,71.79,0,62.56,1.77a1.22,1.22,0,0,0-1,.86c-5.58,8-6.4,19.09-7.22,28.4C53,45.66,53.39,60.46,54,75.12c.88,19.76,2.54,39.56,5.06,59.2a1.5,1.5,0,0,0,1.48,1.44h17a1.51,1.51,0,0,0,1.28-.71c15.68-28.8,20.07-63.44,22.69-95.56.6-7.31,1.08-14.66,1.2-22C102.83,12.64,93.43,7.2,89.89,5.27Z"/><path class="cls-2" d="M66.37,7.45C63.71-7.88,36.65,4.35,29.49,9.59c-6.62,4.84-8.42,9.43-8.84,16.83a200.36,200.36,0,0,0,1.52,37,179.28,179.28,0,0,0,13.25,49.13q3.12,7.13,6.86,13.95c1.12,2,3.62,8.6,6.06,9.25,3.58,1,8.52,0,12.24,0a1.35,1.35,0,0,0,1.36-1,1.41,1.41,0,0,0,.12-.47c2.34-27.95,4.19-56,5.15-84C67.69,36.25,68.79,21.4,66.37,7.45Z"/><path class="cls-1" d="M45.89,136.41a95.33,95.33,0,0,0,33.48,0c3.14-.54,1.8-4.74-1.31-4.19a88.8,88.8,0,0,1-30.85,0c-3.12-.58-4.44,3.61-1.32,4.19Z"/></g></g></svg>